<svg id="Layer_1" data-name="Layer 1" xmlns="http://www.w3.org/2000/svg" width="480" height="690" viewBox="0 0 480 690"><defs><style>.cls-1,.cls-6{fill:#f2ce94;}.cls-2{fill:#f2a03d;}.cls-3{fill:#679312;}.cls-4{fill:#d9f726;}.cls-5{fill:#7fb229;}.cls-10,.cls-13,.cls-14,.cls-15,.cls-6,.cls-9{stroke:#000;}.cls-10,.cls-12,.cls-13,.cls-14,.cls-15,.cls-6,.cls-7,.cls-9{stroke-miterlimit:10;}.cls-10,.cls-12,.cls-15,.cls-7{fill:none;}.cls-7{stroke:#c98943;}.cls-12,.cls-13,.cls-15,.cls-7{stroke-linecap:round;}.cls-12,.cls-7,.cls-9{stroke-width:4px;}.cls-8{fill:#b0e7f7;}.cls-11,.cls-9{fill:#fff;}.cls-10{stroke-width:2px;}.cls-12{stroke:#fff;}.cls-13{fill:#cff0f9;}.cls-14{fill:#f2ff73;}</style></defs><polygon class="cls-1" points="343.76 170.19 365.64 178.88 387.52 187.58 353.71 199.19 319.9 210.79 331.83 190.49 343.76 170.19"/><polygon class="cls-1" points="262.94 158.76 238.7 168.75 214.46 178.74 246.95 193.63 279.44 208.53 271.19 183.65 262.94 158.76"/><ellipse class="cls-2" cx="286.76" cy="141.5" rx="85.45" ry="175.14" transform="translate(120.75 414.8) rotate(-84.99)"/><path class="cls-1" d="M376.31,539.06l18.8,6.13L376.26,571.1l-14.44,11.56q-2.18-8.85-4.36-17.69l0-32Z"/><path class="cls-3" d="M197.66,665.8c-20.27,8.85-42.92,1.51-57.52-5L187.6,481.68l92.48-175.12,60.59,188.55q5,92.05,10,184.1c-12.52,3-33,5.8-50.47-4.42-35.63-20.81-31.86-79.69-47.54-80.68C237.23,593.15,234,649.93,197.66,665.8Z"/><path class="cls-4" d="M253.85,366.73c-15.57-16.51-63.68-6.23-92.62,7.54-25.88,12.3-40.13,29.14-49.23,39.89C98.82,429.73,91.41,455,90.9,454.75c0,0-.42-.35-.42-.35h0s16.68,22.09,28.52,20.23c8.32-1.3,6.32-14.38,19.48-30.72a149,149,0,0,1,40.3-34.26c15.85-9.17,27.17-15.72,41.87-15.35,16.58.43,23.26,9.29,30.63,5.75C260.18,395.78,263.25,376.69,253.85,366.73Z"/><path class="cls-4" d="M302.75,379.44c19.81-10.26,62.9,30.24,79.88,59.92a152.57,152.57,0,0,1,9.1,19.33c6.28,16.76,7.71,31.21,8.72,41.43,2,20.25-6.2,45.06-5.65,45.16,0,0,.54,0,.54,0s-26.17,8.39-34.84.08c-6.09-5.84,2.95-15.34,1.4-36.2a149.72,149.72,0,0,0-13.68-51.05c-7.82-16.58-13.4-28.41-25.67-36.55-13-8.63-23.77-4.65-28.39-12.93C289.42,400.1,293.49,384.24,302.75,379.44Z"/><path class="cls-1" d="M110.14,463.28l13,8.2-19.32,22.71L85.9,499.51q-.6-8.77-1.19-17.55L91,451Z"/><polygon class="cls-4" points="263.01 499.02 180.31 491.61 230.29 399.1 280.26 306.6 312.99 406.52 345.72 506.43 263.01 499.02"/><rect class="cls-3" x="225.01" y="420.42" width="81.98" height="81.98" transform="translate(41.33 -21.48) rotate(5.01)"/><path class="cls-1" d="M267.93,361.52c43.88,6.07,79.72-29.93,103.22-53.54,27.62-27.74,93.36-93.77,68.1-163.26C421.54,96,365.27,62.68,300,61.8l.46.05c-58.07-7.77-114.08,10.77-141.28,51.36C115.74,178,169.66,263.5,187.57,291.88,204.62,318.91,228,356,267.93,361.52Z"/><rect class="cls-3" x="236.9" y="359.37" width="15.01" height="62.35" transform="translate(-36.24 25.17) rotate(-5.49)"/><rect class="cls-3" x="290.61" y="369.87" width="15.01" height="58.89" transform="translate(154.17 -77.76) rotate(19.95)"/><circle class="cls-4" cx="241.67" cy="203.69" r="28.87"/><circle class="cls-4" cx="332.94" cy="207.06" r="33.49"/><circle class="cls-1" cx="235.65" cy="252.42" r="39.84" transform="translate(-36.4 465.12) rotate(-84.99)"/><circle class="cls-1" cx="329.13" cy="257.14" r="39.84"/><circle class="cls-5" cx="227.86" cy="202.48" r="9.24"/><circle class="cls-5" cx="314.44" cy="206.59" r="9.24"/><circle cx="224.31" cy="203.32" r="2.31"/><ellipse cx="312.05" cy="207.4" rx="3.32" ry="3.46" transform="translate(78.18 500.13) rotate(-84.99)"/><path class="cls-6" d="M286.24,217.45a49.33,49.33,0,0,0,21.87,37.61l.45,11.87-12.5,3.48-27.14-8.89"/><path class="cls-2" d="M136.49,134.19c7.77,7.32,24.91-7,58.17-15.76,28.91-7.6,51.84-6.21,82.68-4.34a400.22,400.22,0,0,1,81.07,14.06,441.9,441.9,0,0,1,68.45,25.71c11.3,5.33,18.72,13.79,22.2,11.22,5.18-3.83-3.89-26.25-13.2-41.15C427.34,110.31,412.2,93,382,77.48,318.71,45,255.47,54.54,222.39,60,161.5,70.06,146.8,90.45,142.64,97.06,134.91,109.33,129.67,127.78,136.49,134.19Z"/><path d="M147.8,137.5c-3.86,9.27-1.88,25.21.09,25.51,3,.44,9.24-34,14.61-33.49,4.14.39,3.89,21.12,8.62,21.62,5,.52,11.14-22.61,13.6-22,2,.5-2,15.71,2,17.55,5.18,2.44,19.33-20.66,22.67-18.87,3.62,1.94-8.84,31.2-7.46,31.8,1.66.72,20.66-41.2,25.65-39.48,3.35,1.15-2.16,21.53,2.61,23.41s12-16.41,21.63-15.49,13.6,19.89,17.76,19c4.61-1,.69-24.71,5.8-26.15,7.08-2,22.86,36.86,28.46,34.95,4.44-1.52-2.19-27.24,2.54-28.76,2.44-.78,7.39,5,9.45,11.26,3,9.17-1.14,16.36.85,17.47,3.85,2.14,21.2-23.87,24.13-22.23,2.3,1.28-7.59,20.71-4.33,22.8s17.13-15.22,19.85-13.33-8.22,19.47-5.4,21.56c3.29,2.43,20.95-19.33,25.95-16.28s-7,27.42-2.63,29.91c4.58,2.63,22.75-21.49,25.09-19.82,2,1.45-10.38,20.52-7.81,22.5,2.86,2.19,20.7-19.5,25.95-16.27,4.39,2.7-2.89,21.16-.76,22s10.33-18.3,13.2-17.39-3.34,23,.19,24.36c3.2,1.27,16.87-13.33,16.13-24.08C443,123.38,170.16,83.73,147.8,137.5Z"/><path class="cls-2" d="M215.65,11.31c25.65.8,52.6,2.32,80.72,4.76,29,2.52,56.54,5.79,82.62,9.57a14.15,14.15,0,0,1,9.39,4.91,13.73,13.73,0,0,1,3.2,10.1l7.47,47c-.69-.9-6.12-7.75-15-7.72a18.28,18.28,0,0,0-10.1,3.2L210.61,68.82a18.6,18.6,0,0,0-9.4-4.91c-9.54-1.73-16.66,5.33-17.36,6q8.39-23,16.79-46.05A13.89,13.89,0,0,1,215.65,11.31Z"/><path class="cls-7" d="M394.1,78c-21.68-4.83-39.91-7.79-53-9.63-44.87-6.32-81.55-6.88-112.59-7.26-16-.19-29.19,0-38.13.15"/><path class="cls-8" d="M170.25,597.13c-4.46,9.93-14.84,7.82-59.26,20.26-37,10.36-44.11,15.83-52.73,10.3-9.09-5.83-9.69-17.41-12.94-64.38-5.27-76.36-6.73-90.1,4.6-101.89C59,452,74.37,445.81,88.27,449.32c19.37,4.91,22,25.07,53.44,82.78C165,574.73,175.46,585.57,170.25,597.13Z"/><path class="cls-5" d="M167.4,596.32c-1.33,2.08-4.86,3.41-11.83,6a136.67,136.67,0,0,1-17.86,5.39c-22.74,5.06-20.7,3.89-27.16,5.73-6.65,1.89-20.29,6.4-32.27,11.08-3.13,1.22-9.27,3.81-15.12,1.32a14.66,14.66,0,0,1-5.49-4.29c-6.91-8.22-7.75-20-8.13-26.21-1.19-19.77-1.79-29.65-1.82-31.46q0-.09-2.39-45.79c-1.45-27.82-2.36-43.8,3-45.56,3.14-1,5.26,4,11.82,3.72s7.18-5.21,15-7.18c8.45-2.14,12.75,2.38,18.92-1.31,3.83-2.29,3.31-5,5.48-5.35,5.42-.91,11.48,14.92,24.16,40.46,7.05,14.21,13.9,26.67,16.34,31.11,5.06,9.24,9.2,17,17.49,32.58C166.88,584.13,170.56,591.35,167.4,596.32Z"/><rect class="cls-4" x="45.56" y="440.07" width="42.42" height="16.37" transform="translate(-115.64 33.38) rotate(-15.26)"/><rect class="cls-4" x="12.48" y="415.02" width="90.04" height="26.79" transform="translate(-110.74 30.24) rotate(-15.26)"/><rect class="cls-4" x="7.48" y="435.94" width="6.7" height="10.42" transform="translate(-115.74 18.41) rotate(-15.26)"/><path class="cls-9" d="M68,574.44c3.44,7.58,13.73,11.28,15.59,23.38.46,3,.15,4.85,1.72,6.32,3.64,3.39,10.42-1.71,25.19-5.42,12.84-3.22,19.77-2.39,21.42-6.81.88-2.34-.5-4.09-1.52-7.34-3.74-12,5.06-19.63,4.39-28.35-1-12.29-20.94-30.18-42.51-24.29S62.77,563,68,574.44Z"/><line class="cls-10" x1="130.2" y1="585.09" x2="83.26" y2="597.9"/><line class="cls-10" x1="89.7" y1="591.29" x2="92.53" y2="601.67"/><line class="cls-10" x1="121.95" y1="581.53" x2="124.78" y2="591.91"/><line class="cls-10" x1="114.36" y1="582.14" x2="117.19" y2="592.52"/><line class="cls-10" x1="107.3" y1="586.49" x2="110.13" y2="596.87"/><line class="cls-10" x1="98.11" y1="586.57" x2="100.94" y2="596.95"/><circle cx="101.41" cy="575.63" r="1.07"/><circle cx="106.57" cy="574.22" r="1.07"/><circle cx="89.49" cy="569.77" r="6.78"/><circle cx="113.86" cy="563.12" r="6.78"/><ellipse class="cls-11" cx="109.67" cy="561.6" rx="1.54" ry="1.4" transform="translate(-143.96 48.67) rotate(-15.26)"/><ellipse class="cls-11" cx="84.84" cy="568.51" rx="1.54" ry="1.4" transform="translate(-146.65 42.38) rotate(-15.26)"/><path class="cls-12" d="M229.45,17.68a32.92,32.92,0,0,0-10.35-.9c-3,.22-5,.38-7.1,1.69a14.24,14.24,0,0,0-5.21,6.5,19.14,19.14,0,0,0-1.65,5.65"/><path class="cls-13" d="M226.25,282.62c9-3.58,9.94-6.36,14-6s3.66,3.1,8,4c6.79,1.39,10.08-4.83,15-3,3.88,1.44,2.79,5.68,8,9,.64.4,5.87,3.64,11,2,5.85-1.88,5.37-8.14,11-10,4.21-1.39,5.37,1.82,12,2,9.52.25,12.94-6.21,18-4,4.62,2,2.83,7.88,8,11,6.28,3.78,14.17-1.74,16,1s-7.06,8.18-6,16c.76,5.59,6,7.79,5,13a9.68,9.68,0,0,1-3,5c-4.78,4.68-9.89,1.73-16,5-7.16,3.82-5.73,10.84-11,12-5.47,1.19-7.4-6.27-16-8-9.57-1.93-13.08,6.11-22,4-8.44-2-8.28-9.9-16-11-8.89-1.28-13.74,8.51-20,6-4.57-1.84-2.65-7.31-9-13-6.08-5.45-12.16-4.3-13-8-.93-4.05,6.12-6.23,6-12s-7.26-8.66-6-12C220.75,284.28,222.06,284.28,226.25,282.62Z"/><path d="M296.43,190.05l60.82-26.43-57.19,33.56a4,4,0,0,1-4.06-6.91Z"/><path class="cls-14" d="M335,301.3c-3.24-10.72-15.23-15.82-24.09-16-14.65-.34-17.79,12.79-31.22,12.33-14.32-.49-17.93-15.66-31.2-14.33-7.56.76-15.65,6.61-17.52,14.69-2,8.67,3.47,18.49,10.84,21.82,10.88,4.9,18.33-7.18,34-4,9.94,2,9.36,7.4,22.2,11.22,7,2.07,18.63,5.54,27.91-1C333,321,337.8,310.65,335,301.3Z"/><line class="cls-15" x1="232.76" y1="310.3" x2="251.71" y2="283.3"/><line class="cls-15" x1="254.01" y1="319.12" x2="252.04" y2="283.66"/><line class="cls-15" x1="254.33" y1="319.47" x2="272.33" y2="295.23"/><line class="cls-15" x1="279.72" y1="316.74" x2="272.33" y2="295.23"/><line class="cls-15" x1="281.19" y1="317.19" x2="302" y2="287.4"/><line class="cls-15" x1="303.39" y1="328.41" x2="302" y2="287.4"/><line class="cls-15" x1="304.54" y1="328.51" x2="319.78" y2="286.96"/><line class="cls-15" x1="322.82" y1="327.47" x2="319.78" y2="286.96"/><path d="M266.9,201.86,212,157.11l59.6,38.27a4,4,0,1,1-4.32,6.74A3.47,3.47,0,0,1,266.9,201.86Z"/><path class="cls-12" d="M244.39,219s-17-4.52-26.91,4.58"/><path class="cls-12" d="M335.69,225.57s-17.05-4.52-26.91,4.58"/></svg>
