<svg id="Layer_1" data-name="Layer 1" xmlns="http://www.w3.org/2000/svg" width="220" height="300" viewBox="0 0 220 300"><defs><style>.cls-1{fill:#b0e7f7;}.cls-2{fill:#7fb229;}.cls-3{fill:#d9f726;}.cls-4,.cls-6{fill:#fff;}.cls-4,.cls-5{stroke:#000;}.cls-4,.cls-5,.cls-7{stroke-miterlimit:10;}.cls-4,.cls-7{stroke-width:4px;}.cls-5,.cls-7{fill:none;}.cls-5{stroke-width:2px;}.cls-7{stroke:#fff;stroke-linecap:round;}</style></defs><path class="cls-1" d="M195.59,285c-9.3,11.29-22,4.89-84,5.31-51.57.35-62.78,4.91-72-5.31-9.71-10.76-6.41-26,6-88C65.76,96.07,68.73,77.74,87.59,66.46c15.12-9,37.22-11.6,54-2.12,23.38,13.21,19.61,40.27,40,126.22C196.66,254.05,206.43,271.81,195.59,285Z"/><path class="cls-2" d="M192.18,282.9c-3.15,3.06-7.63,3.86-16.59,5.45-11.34,2-20,1.41-27,1-12.34-.73-25.09-1.48-36.88-1.37-5.36,0-23.28.4-43.12,1.37-4.81.23-14,.71-22-5a26.85,26.85,0,0,1-6-6c-7.29-10.3-4-24.62-1-38,3.1-13.9,5.39-28,8.9-41.79.15-.58,4.47-20.46,13.1-60.21,8-36.57,12.43-57.62,20-58,4.44-.22,5.41,7,14,9,8.76,2,11.16-4.21,22-4,11.72.22,15.7,7.6,25,5,5.77-1.61,6.06-5.29,9-5,7.35.74,9.6,23.4,17,61,3.57,18.15,5.91,30,10.18,46.12,4.66,17.56,8.14,27,12.82,47.88C197.91,268.54,197.5,277.72,192.18,282.9Z"/><rect class="cls-3" x="85.59" y="44.35" width="57" height="22"/><rect class="cls-3" x="48.59" y="8.35" width="121" height="36"/><rect class="cls-3" x="39.59" y="19.35" width="9" height="14"/><path class="cls-4" d="M71,219.36c1.78,11,13.82,19.48,11.94,35.83-.46,4.05-1.53,6.34,0,8.8,3.52,5.68,14.11,1.47,34.57,1.88,17.79.37,26.48,3.89,30.18-1.25,2-2.73.8-5.49.63-10.06-.62-16.81,13.5-23.65,15.71-35.2,3.12-16.27-16.47-46.53-46.52-46.52C87.65,172.84,68.3,202.74,71,219.36Z"/><line class="cls-5" x1="147.92" y1="255.19" x2="82.54" y2="255.19"/><line class="cls-5" x1="93.23" y1="248.9" x2="93.23" y2="263.36"/><line class="cls-5" x1="138.49" y1="247.64" x2="138.49" y2="262.1"/><line class="cls-5" x1="128.43" y1="245.76" x2="128.43" y2="260.22"/><line class="cls-5" x1="117.75" y1="248.9" x2="117.75" y2="263.36"/><line class="cls-5" x1="105.8" y1="245.76" x2="105.8" y2="260.22"/><circle cx="113.95" cy="232.74" r="1.44"/><circle cx="121.14" cy="232.74" r="1.44"/><circle cx="100.57" cy="220.93" r="9.12"/><circle cx="134.52" cy="220.93" r="9.12"/><ellipse class="cls-6" cx="129.62" cy="217.47" rx="2.07" ry="1.89"/><ellipse class="cls-6" cx="94.99" cy="217.65" rx="2.07" ry="1.89"/><path class="cls-7" d="M98,73S83.48,77.65,80.53,88.9"/></svg>
