<svg id="Layer_1" data-name="Layer 1" xmlns="http://www.w3.org/2000/svg" xmlns:xlink="http://www.w3.org/1999/xlink" width="1920" height="1080" viewBox="0 0 1920 1080"><defs><style>.cls-1{fill:url(#linear-gradient);}.cls-2{fill:url(#linear-gradient-2);}.cls-3{fill:#fff;}.cls-4{fill:url(#linear-gradient-3);}.cls-5{fill:url(#linear-gradient-4);}.cls-6{fill:url(#linear-gradient-5);}</style><linearGradient id="linear-gradient" x1="960.99" y1="1073.68" x2="959.01" y2="7.56" gradientUnits="userSpaceOnUse"><stop offset="0" stop-color="#b0e7f7"/><stop offset="1" stop-color="#67c5fe"/></linearGradient><linearGradient id="linear-gradient-2" x1="5492.02" y1="1145.36" x2="5490.42" y2="283.48" gradientTransform="matrix(-1, 0, 0, 1, 6496, 0)" gradientUnits="userSpaceOnUse"><stop offset="0" stop-color="#b0e7f7"/><stop offset="1" stop-color="#29abe2"/></linearGradient><linearGradient id="linear-gradient-3" x1="5521.02" y1="1145.36" x2="5519.42" y2="283.48" gradientTransform="matrix(-1, 0, 0, 1, 6496, 0)" gradientUnits="userSpaceOnUse"><stop offset="0" stop-color="#b0e7f7"/><stop offset="1" stop-color="#9d39d1"/></linearGradient><linearGradient id="linear-gradient-4" x1="354.78" y1="835.98" x2="424.8" y2="1311.57" gradientTransform="translate(1420.82 532.61) rotate(80.32)" gradientUnits="userSpaceOnUse"><stop offset="0.23" stop-color="#68e256"/><stop offset="1" stop-color="#09a84c"/></linearGradient><linearGradient id="linear-gradient-5" x1="1089.88" y1="962.11" x2="1813.84" y2="1337.31" gradientTransform="translate(182.07 -199.28) rotate(8.28)" gradientUnits="userSpaceOnUse"><stop offset="0" stop-color="#68e256"/><stop offset="0" stop-color="#67e256"/><stop offset="0.19" stop-color="#45cd52"/><stop offset="0.39" stop-color="#2bbd50"/><stop offset="0.58" stop-color="#18b14e"/><stop offset="0.78" stop-color="#0daa4c"/><stop offset="1" stop-color="#09a84c"/></linearGradient></defs><path class="cls-1" d="M1920,1080H0V0H1920Z"/><polygon class="cls-2" points="2000 639 1662 365 1477 755 1293.06 523 1045 806 504 275 -14 751 -25 1150 2033 1114 2000 639"/><path class="cls-3" d="M1314,604c-46.1,24.37-101.59,42-155.07,38.94l105.14-120,59.88,75.52Q1319,601.37,1314,604Z"/><path class="cls-3" d="M641.33,536.44c-16,18.22-32.18,38.63-54.62,49.2-28.47,13.42-60.78,5.86-85.24-12.37-12.79-9.53-23.8-21.4-33.39-34.1-8.12-10.76-14.69-22.61-23.2-33.1s-18.38-18.56-31.14-23c-13.92-4.81-28.83-5.45-43.43-5-30.64.95-61.26,4.46-91.95,3.18a193.36,193.36,0,0,1-25-2.64L475,275,696.14,492.06C674.34,502,657.18,518.39,641.33,536.44Z"/><path class="cls-4" d="M-43,751,252.3,479.64c19.39,3.21,39.28,3.22,58.93,2.46,16.06-.62,32.1-1.56,48.14-2.48,16.28-.93,33-1.49,48.86,2.84,32.4,8.82,44.2,39.19,63.6,63.12C489.22,567,512,586.79,539.87,592c23.47,4.42,45.63-1.66,64.37-16.21,19.59-15.21,34-35.75,51.16-53.38A135.6,135.6,0,0,1,697,492.94L1016,806l142.52-162.59c1.86.1,3.73.19,5.61.25,56.25,1.61,111.77-16.62,160.47-44.3L1448,755l104.15-219.57c16.69,7.86,33.09,16.51,51.3,20.43,27.69,6,56.2,9.57,84.34,4.54,24.91-4.44,52.28-15.41,70.83-33,9.54-9.07,20.42-24.32,33.16-33.64L1971,639l33,475L-54,1150Z"/><path class="cls-3" d="M1767.07,517.3c-9,9.54-18,17.23-29.51,23.71a160.08,160.08,0,0,1-87.72,20.58,285,285,0,0,1-48.69-7.23c-16.08-3.66-30.87-11.06-45.64-18.15l-3-1.46L1633,365l158.52,128.51C1782.46,500.4,1774.85,509.05,1767.07,517.3Z"/><ellipse class="cls-5" cx="394.85" cy="1108.12" rx="250.12" ry="619.38" transform="translate(-763.88 1311.06) rotate(-80.32)"/><ellipse class="cls-6" cx="1467.18" cy="1157.65" rx="644.49" ry="321.76" transform="translate(-151.46 223.43) rotate(-8.28)"/></svg>
