<svg id="Layer_1" data-name="Layer 1" xmlns="http://www.w3.org/2000/svg" width="290" height="290" viewBox="0 0 290 290"><defs><style>.cls-1{fill:#7a2bad;}.cls-2{fill:#9d39d1;}.cls-3{fill:#ac37dd;}.cls-4{fill:#f2d022;}.cls-5{fill:#f266a7;}.cls-6{fill:#fff;}.cls-7,.cls-8{fill:none;stroke-miterlimit:10;}.cls-7{stroke:#1d1d1b;stroke-width:2px;}.cls-8{stroke:#fff;stroke-linecap:round;stroke-width:4px;}</style></defs><path class="cls-1" d="M277.26,160.39c-2.6-20.61-41-34.43-70.88-29.27l-1.06.2a194.1,194.1,0,0,0,14.61-21c8.41-13.7,18.59-30.3,15.53-51.53C231.56,31.84,207.08,2.85,175.35,3c-40.86.16-58.4,48.44-59.12,50.53-5.5,15.89-4,29.47-3,37.32,2.52,20.17,14.33,63,42.6,68a31.24,31.24,0,0,0,5.06.47A19,19,0,0,0,159.7,165c-1.1,20.31,31.81,41.8,61.49,40.16C250.1,203.58,279.71,179.84,277.26,160.39Z"/><path class="cls-2" d="M267.84,160c-2.61-20.61-41-34.43-70.88-29.27l-1.07.2a193.1,193.1,0,0,0,14.62-21c8.4-13.7,18.59-30.3,15.52-51.52-3.89-27-28.37-55.95-60.11-55.82C125.06,2.71,107.53,51,106.8,53.08c-5.49,15.89-4,29.47-3,37.32,2.52,20.17,14.33,63,42.61,68a31.13,31.13,0,0,0,5.06.47,18.74,18.74,0,0,0-1.22,5.67c-1.1,20.31,31.8,41.8,61.49,40.16C240.67,203.15,270.29,179.41,267.84,160Z"/><path class="cls-1" d="M126.16,283.86c-16.82-6.5-20.4-41.93-9.78-66.24l.39-.86a166.1,166.1,0,0,1-20.75,8c-13.3,4.27-29.42,9.46-46.65,2.43C27.48,218.3,8.21,191.49,15,164.59,23.69,130,68,125.14,69.94,125c14.54-1.35,25.65,2.79,32.06,5.26,16.45,6.34,50,25.27,48.36,50.32a26.25,26.25,0,0,1-.67,4.39,16.33,16.33,0,0,1,5,.15c17.34,3.3,28.53,35.69,20.92,60.54C168.23,269.81,142,290,126.16,283.86Z"/><path class="cls-3" d="M121.8,277.49C105,271,101.4,235.56,112,211.25l.39-.86a169.41,169.41,0,0,1-20.75,8c-13.3,4.27-29.42,9.46-46.65,2.43-21.89-8.92-41.16-35.73-34.39-62.63,8.71-34.63,53.05-39.45,55-39.63,14.54-1.35,25.65,2.79,32.06,5.25,16.45,6.34,50,25.28,48.36,50.33a26.41,26.41,0,0,1-.67,4.39,16.63,16.63,0,0,1,5,.14c17.34,3.31,28.53,35.7,20.92,60.55C163.87,263.44,137.66,283.62,121.8,277.49Z"/><path class="cls-4" d="M78,71.33c-17.56,14,8.13,106.61,70.12,137.46,32.28,16.07,78.53,17.45,86.43,3.55a10.74,10.74,0,0,0,1.35-7.38c-2.09-9.29-19.34-11-35.27-16.3,0,0-16.07-5.34-41.53-24.15-47.56-35.15-45.89-94.69-73.3-95.24C83.93,69.23,80.7,69.21,78,71.33Z"/><circle class="cls-5" cx="109.44" cy="110.07" r="5.95"/><circle class="cls-5" cx="85.8" cy="120.75" r="4.51"/><circle cx="98.09" cy="94.04" r="8.63" transform="translate(-21.14 159.24) rotate(-72.47)"/><circle cx="83.03" cy="102.5" r="7.11" transform="translate(-31.97 167.12) rotate(-80.32)"/><circle class="cls-6" cx="78.95" cy="100.25" r="1.7" transform="matrix(0.77, -0.63, 0.63, 0.77, -45.6, 72.48)"/><circle class="cls-6" cx="92.58" cy="91.16" r="1.7"/><path class="cls-7" d="M93.87,121.26a4.83,4.83,0,1,0,8.58-4.44"/><path class="cls-8" d="M157.46,13.06a44.73,44.73,0,0,0-33.74,30.77"/><path class="cls-8" d="M47.66,130.45A40,40,0,0,0,17.46,158"/></svg>
