<svg id="Layer_1" data-name="Layer 1" xmlns="http://www.w3.org/2000/svg" width="300" height="280" viewBox="0 0 300 280"><defs><style>.cls-1{fill:#f2d022;}.cls-2{stroke:#1d1d1b;}.cls-2,.cls-8{stroke-miterlimit:10;}.cls-3{fill:#1d1d1b;}.cls-4{fill:#f266a7;}.cls-5{fill:#b0e7f7;}.cls-6{fill:#cff0f9;}.cls-7{fill:#fff;}.cls-8{fill:none;stroke:#fff;stroke-linecap:round;stroke-width:4px;}</style></defs><path class="cls-1" d="M176.58,114.87c-.39.16-1,.4-1.67.67a100.47,100.47,0,0,1-15.62,4.71l-.53.11c1-.3,2.08-.6,3.13-.92,5.18-1.58,10.36-3.38,15.66-5.13a2.15,2.15,0,0,1-.22.19A2.57,2.57,0,0,1,176.58,114.87Z"/><path class="cls-1" d="M218.55,259.87l5.54-1.8a185.79,185.79,0,0,1-36.4,11.54c2.43-.65,5.39-1.5,9-2.55C202.83,265.3,203.89,264.64,218.55,259.87Z"/><path class="cls-1" d="M176.64,170.59c-.94-15,1.89-56.08,1.62-56.26a1.11,1.11,0,0,0-.34-.14c16.55-5.47,34.24-10.38,56.45-6.23,7.44,1.39,18.43,3.57,28.89,11.48,22.5,17,28.76,50.24,24.77,72.08-5.23,28.68-30.7,51.65-62.41,65.87C233,248.05,179.55,216.69,176.64,170.59Z"/><path class="cls-1" d="M101,191.17c.28-27.35,12.35-62.81,10.11-63.42-.18,0-.54.09-2.36.19,0,0-1.26.07-2.62.08-2.79,0-7.39-.61-12-1.07-4.1-.41-5.86-.47-8.62-.93-.34-.06-1.19-.21-2.37-.37h0c15.45,1.51,34.09,3.15,57.61-1.08h0c-16.29,8.23-5,61.93-3.49,68.59,1.21,5.56,17.38,77.44,42.08,78a169.14,169.14,0,0,1-29.42,2.2,173.18,173.18,0,0,1-29.27-3.11C127.38,266,100.58,232.83,101,191.17Z"/><path class="cls-1" d="M33.24,135.47c12.66-12.75,26.69-12.06,45.59-10.24l-.39,0a19.52,19.52,0,0,0-4.09,0c-4.93,1.24-7,11.72-8.8,20.58h0c-5.07,22.75-7.61,34.12-7.44,48.61.3,26.29.58,50.2,15.3,60.11-27.78-13.85-50-35-54.92-62.24C18.14,190.34,12.53,156.33,33.24,135.47Z"/><path d="M177.73,114.15h.1l.09,0-.37.12Z"/><path d="M225.61,257.4c-.14.18-.22.24-1.52.67l1.53-.68Z"/><path d="M158.76,120.36a183.65,183.65,0,0,1-18,4.21C142.28,123.78,147.8,122.63,158.76,120.36Z"/><path d="M179.31,271.16h0c2.8-.45,5.6-1,8.39-1.55C183.71,270.68,181.15,271.2,179.31,271.16Z"/><path d="M137.22,193.16c-1.46-6.66-12.8-60.36,3.49-68.59h0a183.65,183.65,0,0,0,18-4.21l.53-.11a100.47,100.47,0,0,0,15.62-4.71c.7-.27,1.28-.51,1.67-.67a2.57,2.57,0,0,0,.75-.37,2.15,2.15,0,0,0,.22-.19l.37-.12a1.11,1.11,0,0,1,.34.14c.27.18-2.56,41.3-1.62,56.26,2.91,46.1,56.33,77.46,49,86.8l-1.53.68-5.54,1.8c-14.66,4.77-15.72,5.43-21.82,7.19-3.65,1.05-6.61,1.9-9,2.55-2.79.59-5.59,1.1-8.39,1.55C154.6,270.6,138.43,198.72,137.22,193.16Z"/><path d="M83.1,125.65l-4.27-.42C79.55,125.27,81.09,125.38,83.1,125.65Z"/><path d="M120.61,270.25c-.7.43-3.36-.2-8.69-1.46a153.44,153.44,0,0,1-16.86-5c-10.13-3.73-17.2-6.33-21.63-9.31h0a184.61,184.61,0,0,0,47.2,15.74Z"/><path d="M58.11,194.4c-.17-14.49,2.37-25.86,7.44-48.61h0c1.77-8.86,3.87-19.34,8.8-20.58a19.52,19.52,0,0,1,4.09,0l.39,0,4.27.42h0c1.18.16,2,.31,2.37.37,2.76.46,4.52.52,8.62.93,4.62.46,9.22,1.07,12,1.07,1.36,0,2.62-.08,2.62-.08,1.82-.1,2.18-.23,2.36-.19,2.24.61-9.83,36.07-10.11,63.42-.43,41.66,26.37,74.85,19.6,79.08a184.61,184.61,0,0,1-47.2-15.74C58.69,244.6,58.41,220.69,58.11,194.4Z"/><circle class="cls-2" cx="210.47" cy="154.94" r="15.84" transform="translate(18.52 332.32) rotate(-79.1)"/><circle class="cls-2" cx="252.26" cy="137.84" r="12.86"/><path class="cls-3" d="M224.16,184.35c4.91,9.77,16.42,17.68,27.67,15.42,10-2,17.68-12.09,17.93-22a23.47,23.47,0,0,0-5.43-15.25,2.5,2.5,0,0,0-3.53,0,2.54,2.54,0,0,0,0,3.53l.18.23c.29.37-.37-.52-.06-.08.16.24.34.47.51.72a23.25,23.25,0,0,1,1.35,2.26,17.74,17.74,0,0,1,1.92,6.54,18.07,18.07,0,0,1-4.29,13,17.55,17.55,0,0,1-7.84,5.65c-4.94,1.67-9.95.4-14.31-2.15a24.88,24.88,0,0,1-9.79-10.41c-1.44-2.88-5.76-.35-4.31,2.52Z"/><circle class="cls-4" cx="210.47" cy="188.04" r="8.52"/><circle class="cls-4" cx="274.84" cy="154.94" r="6.45"/><path d="M106.21,132.72a3.87,3.87,0,0,0,1,0,6.83,6.83,0,0,0,1.62-.31,1.89,1.89,0,0,0,.85-.45,2,2,0,0,0,.65-.7,1.85,1.85,0,0,0,.29-.93,1.89,1.89,0,0,0,0-1l-.25-.59a2.59,2.59,0,0,0-.9-.9l-.6-.25a2.5,2.5,0,0,0-1.33,0,5.15,5.15,0,0,1-.88.22l.66-.09a4.42,4.42,0,0,1-1.09,0,1.88,1.88,0,0,0-1,.22,1.85,1.85,0,0,0-.81.52,1.83,1.83,0,0,0-.51.8,1.88,1.88,0,0,0-.22,1l.09.67a2.5,2.5,0,0,0,.64,1.1l.51.39a2.43,2.43,0,0,0,1.26.34Z"/><path d="M105.72,127.84a130.53,130.53,0,0,0-13.27.07,2.5,2.5,0,0,0,0,5,130.53,130.53,0,0,1,13.27-.07,2.52,2.52,0,0,0,2.5-2.5,2.55,2.55,0,0,0-2.5-2.5Z"/><path d="M105.47,127.87a217.57,217.57,0,0,0-21.82.49,2.56,2.56,0,0,0-2.5,2.5,2.52,2.52,0,0,0,2.5,2.5,217.57,217.57,0,0,1,21.82-.49c3.22.1,3.21-4.9,0-5Z"/><path d="M95.32,131.84a3.2,3.2,0,0,0,2,.53,6.26,6.26,0,0,0,1.14-.16c.47-.1-.57,0,0,0l2.86.15,5.7.34a2.51,2.51,0,0,0,2.5-2.5,2.56,2.56,0,0,0-2.5-2.5l-5.3-.32c-.88-.05-1.76-.12-2.65-.16a8.64,8.64,0,0,0-1.68.12c-.08,0-.4,0-.47.09.41,0,.47-.06.2,0,.85.34,1.09.39.73.15a2.51,2.51,0,0,0-3.42.89,2.56,2.56,0,0,0,.89,3.42Z"/><path d="M95.13,133a11.76,11.76,0,0,0,2.63-.93,2.51,2.51,0,0,0,.5-3.92c-1.31-1.13-2.84-1.17-4.48-1.35q-2.16-.23-4.32-.36-4.32-.27-8.66-.15a2.5,2.5,0,0,0,0,5q3.87-.11,7.73.1c1.24.06,2.47.15,3.71.26l1.84.18,1.08.13h-.08c.41.13.29,0-.35-.27l.5-3.92c-.27.13-.32.15-.14.06l-.38.13c-.3.09-.6.16-.91.23a2.51,2.51,0,0,0-1.74,3.07A2.55,2.55,0,0,0,95.13,133Z"/><path d="M108.47,132.53c3.21,0,3.22-5,0-5s-3.23,5,0,5Z"/><path d="M108.56,132.53c3.22,0,3.22-5,0-5s-3.22,5,0,5Z"/><path d="M189.2,267.2c2.54,1.43,5.21.65,7.83-.08,2.83-.77,5.66-1.52,8.47-2.35a87.24,87.24,0,0,0,15.85-6.45c2.85-1.5.32-5.81-2.52-4.32a79.5,79.5,0,0,1-13.77,5.68c-2.4.74-4.84,1.38-7.27,2.05l-3.67,1c-.73.19-1.69.54-2.39.15-2.81-1.58-5.34,2.74-2.53,4.31Z"/><path d="M187.68,267.7c1.13.24,2.06.85,3.27.85a4.73,4.73,0,0,0,2.17-.56c.19-.09.37-.2.56-.3l.37-.2a.61.61,0,0,1-.47.11,2.5,2.5,0,0,0,1.26-4.66,2.69,2.69,0,0,0-3.34.49l-.21.27c.64-.32.8-.42.49-.31a8.22,8.22,0,0,0-.82.21c-1.33.32-2.67.59-4,.81l-1.08.17-.42.06c-.72.1-1.44.18-2.16.25a15.26,15.26,0,0,1-1.64.12h-.36c-.27-.09-.25-.07,0,.06-.23-.14-.23-.12,0,.06a2.56,2.56,0,0,0-3.54,0,2.54,2.54,0,0,0,0,3.54,6,6,0,0,0,4.25,1.33c1.58-.09,3.17-.31,4.73-.54s2.88-.46,4.3-.77a19.77,19.77,0,0,0,2-.48,4.25,4.25,0,0,0,1.31-.66,3.5,3.5,0,0,0,.46-.39l.26-.33q.39-.52,0,0l-1.1.64.11,0-1.93-.25.09.05,1.27-4.66a5.67,5.67,0,0,0-2.05.58c-.19.09-.37.2-.56.3l-.37.2a.5.5,0,0,1,.33-.12c.19,0,.16,0-.09,0,.28.05.33.05.14,0s-.42-.13-.62-.21a8.27,8.27,0,0,0-1.35-.46,2.5,2.5,0,1,0-1.33,4.82Z"/><path d="M211.12,255.63a3,3,0,0,0,1.43,3.4,4.61,4.61,0,0,0,2.74.3,25.06,25.06,0,0,1,4,0L218,254.63c-.34.2-.68.39-1,.57l-.47.21c-.17.08-.09.05.26-.1l-.27.11a19.11,19.11,0,0,1-2.11.66,43.3,43.3,0,0,1-4.38.82,2.51,2.51,0,0,0-1.5,1.15,2.6,2.6,0,0,0-.25,1.93,2.53,2.53,0,0,0,1.15,1.49,2.91,2.91,0,0,0,1.93.26c3.18-.49,6.4-1.08,9.19-2.78a2.53,2.53,0,0,0,1.15-2.83,2.6,2.6,0,0,0-2.41-1.83c-.9-.06-1.8-.07-2.7,0-.46,0-.91.05-1.36.09a5.8,5.8,0,0,1-1.25.07l.67.09a2,2,0,0,1,1.29,1.32l.09.66v-.09l-.09.66,0-.1a2.5,2.5,0,0,0-4.82-1.32Z"/><path d="M218.11,256.86l0,.12-.25-.6a2.66,2.66,0,0,1,.1.38l-.09-.67a2.54,2.54,0,0,1,0,.39l1.24-2.16a4.07,4.07,0,0,1-.86.49l.6-.25a7.19,7.19,0,0,1-1.7.43l.66-.08a46.48,46.48,0,0,1-5.28.32,2.52,2.52,0,0,0-2.5,2.5,2.55,2.55,0,0,0,2.5,2.5,48.06,48.06,0,0,0,5.62-.37,8.8,8.8,0,0,0,2.91-.86,3,3,0,0,0,1.77-2.19,4.32,4.32,0,0,0-.44-2.47,2.49,2.49,0,0,0-1.49-1.15,2.5,2.5,0,0,0-3.08,1.75,2.85,2.85,0,0,0,.25,1.92Z"/><path d="M218.15,256.17l.35.87a2.52,2.52,0,0,0,.65,1.1,2,2,0,0,0,.8.52,2,2,0,0,0,1,.21,2.44,2.44,0,0,0,1.27-.34l.54-.32c.18-.1.36-.2.53-.31a3.2,3.2,0,0,0,1-1,2.25,2.25,0,0,0,.3-.68v-.05l.09-.66v-.08l-.09-.66v0l0-.05-.25-.6a0,0,0,0,1,0,0l0,0-.39-.51,0,0a2.61,2.61,0,0,0-1.16-.67,1.89,1.89,0,0,0-1-.05,2.26,2.26,0,0,0-1.63.94,1.83,1.83,0,0,0-.44.85l-.09.67a2.43,2.43,0,0,0,.34,1.26l.39.51a2.5,2.5,0,0,0,1.1.64h0l-.6-.25,0,0-.5-.39,0,0-.39-.51s0,0,0,0l-.25-.6a.24.24,0,0,1,0,.08l-.09-.67v.08l.09-.67s0,0,0,.06l.26-.6a.56.56,0,0,1-.05.08l.39-.5a.52.52,0,0,1-.11.1l.51-.39c-.17.12-.36.21-.53.32l-.58.33,3.68,1.5-.36-.86a2.87,2.87,0,0,0-1.15-1.5,2,2,0,0,0-.93-.3,2,2,0,0,0-1,0l-.59.25a2.43,2.43,0,0,0-.9.9l-.25.6a2.46,2.46,0,0,0,0,1.32Z"/><path d="M64.21,235.87a6,6,0,0,0-.5,4,18,18,0,0,0,.81,3.91,33.86,33.86,0,0,0,3.25,6.72,6.85,6.85,0,0,0,2.84,2.35,10.48,10.48,0,0,0,3.48,1.38A19.43,19.43,0,0,0,82,254.1,2.53,2.53,0,0,0,83.76,251a2.55,2.55,0,0,0-3.07-1.75,14.7,14.7,0,0,1-5.44.1c.47.06-.32-.07-.33-.07a4.21,4.21,0,0,1-.61-.16c-.16-.06-.16-.05,0,0l-.24-.12-.7-.38L72.23,248s-.67-.38-.19-.08c.25.14,0,0-.07-.18-.5-.9-1-1.81-1.44-2.71-.21-.39-.41-.79-.61-1.18a7.89,7.89,0,0,1-.44-1,16.26,16.26,0,0,1-.74-2.82l0-.28c0,.16,0,.16,0,0s0-.46,0-.69,0-.56,0-.84c0-.45,0,0-.08.21a2.51,2.51,0,0,0-.9-3.42,2.56,2.56,0,0,0-3.42.89Z"/><path d="M108.89,133.15l.21-.07a6.86,6.86,0,0,0,.69-.3l.09-.05a5.92,5.92,0,0,0,.57-.45,2.33,2.33,0,0,0,.25-.32,1.89,1.89,0,0,0,.25-.33v0l.25-.6h0a.08.08,0,0,0,0-.05,1.85,1.85,0,0,0,0-1A1.79,1.79,0,0,0,111,129a1.85,1.85,0,0,0-.65-.71,1.78,1.78,0,0,0-.85-.44l-.66-.09a2.43,2.43,0,0,0-1.26.34l-.51.39a2.5,2.5,0,0,0-.64,1.1s0,0,0,.06l.25-.59a.27.27,0,0,1-.06.1l.39-.51-.1.1.51-.39a.78.78,0,0,1-.2.11l.6-.25-.22.08a2.67,2.67,0,0,0-1.49,1.15,1.8,1.8,0,0,0-.3.93,1.86,1.86,0,0,0,0,1l.25.6a2.56,2.56,0,0,0,.89.9l.6.25a2.5,2.5,0,0,0,1.33,0Z"/><path d="M97.92,132.18l.28-.05-.67.09a4.09,4.09,0,0,1,.7,0,2.5,2.5,0,0,0,1.77-4.27,2.81,2.81,0,0,0-1.77-.73,34.46,34.46,0,0,0-7.25.16,2.72,2.72,0,0,0-1.77.74,2.5,2.5,0,0,0,0,3.53,2.42,2.42,0,0,0,1.77.73,34.46,34.46,0,0,1,7.25-.16v-5a6,6,0,0,0-1.64.15,2.52,2.52,0,0,0-1.74,3.08,2.55,2.55,0,0,0,3.07,1.74Z"/><path class="cls-5" d="M122,125c-4.94-.45-7.91-13-11-25.93-1.23-5.21-1-5.22-3.33-18.29-3.22-17.75-4.18-20.22-5.07-29-1.22-12.13-.39-17.47.11-20.1,2-10.14,6-14.69,7.34-16.11a24.79,24.79,0,0,1,6.32-4.79A21.75,21.75,0,0,1,127.18,8a36.2,36.2,0,0,1,31.44,20.91c5,11.2,3.27,21.77,2.3,26.83-.68,3.56-1.44,5.44-12.81,27.54-2.73,5.3-6.83,13.24-12.84,23.76C125.7,123.74,123.78,125.13,122,125Z"/><path class="cls-6" d="M123.9,125.71c-3.44,3.58-15.11-2-27.08-7.7-4.84-2.3-4.67-2.52-16.34-8.86-15.85-8.6-18.38-9.4-25.8-14.23C44.46,88.27,40.82,84.29,39.09,82.25c-6.68-7.89-7.71-13.86-8-15.81a24.8,24.8,0,0,1,.23-7.93A21.79,21.79,0,0,1,35.93,48.4,36.23,36.23,0,0,1,71.92,37c11.88,3.11,19,11.09,22.36,15,2.35,2.77,3.34,4.53,13.44,27.24,2.43,5.45,6,13.62,10.48,24.89C125.24,122.07,125.13,124.44,123.9,125.71Z"/><circle class="cls-7" cx="243.92" cy="135.55" r="2.27"/><circle class="cls-7" cx="199.3" cy="150.51" r="2.17"/><path class="cls-8" d="M134.26,16.22S150.78,21,154.47,33.54"/><path class="cls-8" d="M66.93,43.17S85.2,47.71,90.21,56.42"/></svg>
