<svg id="Layer_1" data-name="Layer 1" xmlns="http://www.w3.org/2000/svg" width="300" height="270" viewBox="0 0 300 270"><defs><style>.cls-1{fill:#f2d022;}.cls-2{fill:#1d1d1b;}.cls-3{fill:#f266a7;}.cls-4{fill:#b0e7f7;}.cls-5{fill:#cff0f9;}.cls-6,.cls-7{fill:none;stroke-linecap:round;stroke-miterlimit:10;stroke-width:4px;}.cls-6{stroke:#000;}.cls-7{stroke:#fff;}</style></defs><path class="cls-1" d="M160.16,174.24c-.31-.28-.78-.69-1.36-1.18a100.54,100.54,0,0,0-13.19-9.6l-.46-.28c.88.62,1.76,1.26,2.65,1.91,4.37,3.19,8.67,6.6,13.09,10,0-.08-.08-.16-.15-.26A2.71,2.71,0,0,0,160.16,174.24Z"/><path class="cls-1" d="M247.59,51.2c2.43,1.84,3.83,2.89,4.64,3.52a185.81,185.81,0,0,0-30.56-22.91c2.08,1.42,4.59,3.2,7.69,5.4C234.54,40.88,235.33,41.86,247.59,51.2Z"/><path class="cls-1" d="M178.59,121.66c-5.82,13.81-16.71,53.57-17,53.65a1.16,1.16,0,0,1-.36,0C175,186,190.1,196.42,212.44,199.82c7.48,1.14,18.58,2.71,31.05-1.31,26.86-8.66,43.73-37.95,47.16-59.88,4.52-28.8-11.95-58.88-37.2-82.77C257.31,67.1,196.53,79.1,178.59,121.66Z"/><path class="cls-1" d="M114,77.29c-8.75,25.91-9,63.37-11.38,63.2-.17,0-.47-.25-2.16-1,0,0-1.16-.48-2.45-.94-2.62-.92-7.17-1.86-11.69-2.95-4-1-5.69-1.49-8.44-2-.34-.06-1.19-.2-2.36-.44h0c15.09,3.67,33.22,8.27,54,20h0c-12.66-13.14,15.75-60.09,19.32-65.9,3-4.85,41.95-67.37,65.45-59.76a169.13,169.13,0,0,0-27-11.78A172.24,172.24,0,0,0,158.55,9.1C163.55,15.32,127.3,37.82,114,77.29Z"/><path class="cls-1" d="M31.63,107.53c7.75,16.21,21.22,20.18,39.66,24.7l-.37-.11a19.14,19.14,0,0,1-3.86-1.35c-4.25-2.79-2.77-13.38-1.53-22.33h0c2.72-23.15,4.07-34.72,9-48.34,8.95-24.73,17.1-47.21,34.27-51.71C78,12.31,50,24.92,36.43,49,35.47,50.74,19,81,31.63,107.53Z"/><path d="M161,175.29l.09,0h.1l-.31-.24C160.93,175.16,161,175.23,161,175.29Z"/><path d="M253.45,55.85c-.08-.21-.14-.3-1.22-1.13l1.22,1.14Z"/><path d="M145.15,163.18a183.75,183.75,0,0,0-15.65-9.92C130.72,154.52,135.55,157.43,145.15,163.18Z"/><path d="M214.28,27.59h0c2.5,1.35,5,2.75,7.41,4.22C218.27,29.5,216,28.16,214.28,27.59Z"/><path d="M148.81,87.35c-3.57,5.81-32,52.76-19.32,65.9h0a183.75,183.75,0,0,1,15.65,9.92l.46.28a100.54,100.54,0,0,1,13.19,9.6c.58.49,1,.9,1.36,1.18a2.71,2.71,0,0,1,.58.59c.07.1.1.18.15.26l.31.24a1.16,1.16,0,0,0,.36,0c.32-.08,11.21-39.84,17-53.65,17.94-42.56,78.72-54.56,74.86-65.8l-1.22-1.14c-.81-.63-2.21-1.68-4.64-3.52-12.26-9.34-13.05-10.32-18.23-14-3.1-2.2-5.61-4-7.69-5.4-2.44-1.47-4.91-2.87-7.41-4.22C190.76,20,151.79,82.5,148.81,87.35Z"/><path d="M75.46,133.24l-4.17-1C72,132.43,73.48,132.83,75.46,133.24Z"/><path d="M158.55,9.1c-.51-.64-3.24-.93-8.68-1.49a154.53,154.53,0,0,0-17.55-.88c-10.8.18-18.33.31-23.49,1.66h0a184.49,184.49,0,0,1,49.74.71Z"/><path d="M74.54,60.1c-4.94,13.62-6.29,25.19-9,48.34h0c-1.24,9-2.72,19.54,1.53,22.33a19.14,19.14,0,0,0,3.86,1.35l.37.11,4.17,1h0c1.17.24,2,.38,2.36.44,2.75.47,4.44,1,8.44,2,4.52,1.09,9.07,2,11.69,2.95,1.29.46,2.45.94,2.45.94,1.69.7,2,.94,2.16,1,2.33.17,2.63-37.29,11.38-63.2,13.32-39.47,49.57-62,44.57-68.19a184.49,184.49,0,0,0-49.74-.71C91.64,12.89,83.49,35.37,74.54,60.1Z"/><path class="cls-2" d="M265.34,143.65l-.46.39c-.55.44.23-.18-.13.1l-1.16.83a28.54,28.54,0,0,1-3,1.75,24.74,24.74,0,0,1-7.48,2.27h0l-.54.06c-.41,0-.83.09-1.24.12a24.67,24.67,0,0,1-3.33,0A15.62,15.62,0,0,1,240.8,147a14.88,14.88,0,0,1-5.18-5.42q-.48-.84-.9-1.71a10.81,10.81,0,0,1-.76-1.78,17.88,17.88,0,0,1,1-14.91,19,19,0,0,1,4.6-5.35s.38-.3.07-.07c.24-.18.48-.36.73-.53l.9-.59c.45-.28.92-.55,1.39-.79,2.86-1.48.34-5.79-2.52-4.32a22.88,22.88,0,0,0-11.42,26.52,23.53,23.53,0,0,0,7.09,11.48c4.72,3.92,10.81,5.2,16.81,4.51a30.28,30.28,0,0,0,16.28-6.86,2.53,2.53,0,0,0,0-3.54,2.57,2.57,0,0,0-3.54,0Z"/><circle class="cls-3" cx="217.23" cy="116.67" r="8.52"/><circle class="cls-3" cx="267.09" cy="169.14" r="6.45"/><path d="M99.07,139.28a4.17,4.17,0,0,1,.78.25l-.6-.26a4,4,0,0,1,.92.54l-.51-.39.1.08a2.4,2.4,0,0,0,2.73.51,1.83,1.83,0,0,0,.8-.51l.4-.51a2.53,2.53,0,0,0,.34-1.26l-.09-.67a2.52,2.52,0,0,0-.65-1.1,7,7,0,0,0-1.35-.93l-.79-.34-.24-.09a4.84,4.84,0,0,0-.51-.14,1.89,1.89,0,0,0-1,0,1.85,1.85,0,0,0-.93.29,2.87,2.87,0,0,0-1.15,1.5l-.09.66a2.53,2.53,0,0,0,.34,1.26l.39.51a2.53,2.53,0,0,0,1.11.64Z"/><path d="M100,134.19a130,130,0,0,1-12.51-4.44,2.49,2.49,0,0,0-3.07,1.74,2.59,2.59,0,0,0,1.75,3.08A131.67,131.67,0,0,0,98.64,139a2.5,2.5,0,1,0,1.33-4.83Z"/><path d="M99.75,134.07a209.25,209.25,0,0,1-19.85-7.39,2.58,2.58,0,0,0-3.42.89,2.51,2.51,0,0,0,.9,3.42,224.62,224.62,0,0,0,21,7.91c3.07,1,4.39-3.85,1.33-4.83Z"/><path d="M91.13,136.62a2,2,0,0,1-.76,0c-.36-.16-.41-.18-.17-.05l.41.24a8.94,8.94,0,0,0,1.58.62l2.46.7,5.17,1.46a2.5,2.5,0,1,0,1.33-4.82l-5.55-1.57-1.34-.38-.74-.21c-.11,0-.45-.08-.5-.16.32.15.36.16.12,0l-.28-.16-.42-.22a3.61,3.61,0,0,0-2.64-.3,2.5,2.5,0,0,0,1.33,4.82Z"/><path d="M87.52,134.78a4.54,4.54,0,0,1,1.18.91l1.11-4.18a1.16,1.16,0,0,1,.32.08l-.4-.08-1-.23-1.7-.4c-1.27-.32-2.53-.66-3.79-1-2.46-.72-4.9-1.54-7.3-2.45a2.51,2.51,0,0,0-3.08,1.75,2.57,2.57,0,0,0,1.75,3.07c2.58,1,5.21,1.86,7.86,2.61,1.31.38,2.62.72,3.94,1s3.25,1,4.72.46a2.53,2.53,0,0,0,1.1-4.17,12.43,12.43,0,0,0-2.2-1.7,2.5,2.5,0,1,0-2.52,4.32Z"/><path d="M101.8,140.3c3.21,0,3.22-5,0-5s-3.23,5,0,5Z"/><path d="M101.88,140.33c3.22,0,3.23-5,0-5s-3.22,5,0,5Z"/><path d="M224.39,39.78c.75-.12,1.8.82,2.36,1.19,1.06.72,2.11,1.46,3.16,2.19,2.13,1.47,4.28,2.92,6.35,4.46A78.88,78.88,0,0,1,247,57.3c2.2,2.35,5.73-1.19,3.53-3.54a86.45,86.45,0,0,0-12.48-11c-2.3-1.67-4.66-3.26-7-4.88-2.5-1.72-4.79-3.46-8-2.92a2.5,2.5,0,0,0,1.33,4.82Z"/><path d="M221.8,38.94a10,10,0,0,0,1.45,0c.08,0,.84,0,.47,0-.2,0-.18,0,.06,0-.28-.13-.31-.13-.09,0-.53-.35-.13-.08,0,.06s.3.34.46.5a4.54,4.54,0,0,0,1.28,1l.6-4.56-.1,0,2.43.64.44.75,0-.16a2.42,2.42,0,0,0-.53-1,4.44,4.44,0,0,0-.81-.81,19.81,19.81,0,0,0-1.82-1.21c-1.16-.72-2.35-1.4-3.55-2s-2.37-1.2-3.57-1.74c-1.59-.72-3.32-1.39-5.06-.77a2.5,2.5,0,0,0,1.33,4.83l.4-.13-.24,0h.21c-.12.08-.38-.09,0,0,.18.06.36.1.53.17s.47.19.22.08l.22.1.85.4q1.8.84,3.54,1.8c1.13.62,2.23,1.28,3.32,2l.73.48c0,.06-.35-.39-.11-.06,0,0-.51-1-.36-.52a2.79,2.79,0,0,0,3.34,1.94c2.06-.4,2.49-3.66.6-4.57a2.69,2.69,0,0,1-.29-.16c.28.23.33.25.13.07s-.31-.34-.46-.5a5,5,0,0,0-1.44-1.14,5.25,5.25,0,0,0-2.44-.51,13,13,0,0,1-1.65,0,2.51,2.51,0,0,0-2.5,2.5,2.57,2.57,0,0,0,2.5,2.5Z"/><path d="M245.12,53.24v-.08l-.09.66,0-.08-.25.59,0-.07-.39.51.06-.07-.51.39.15-.1-.59.25.17,0-.66.09h.12l-.67-.09a1.4,1.4,0,0,1,.35.1l-.6-.25a38,38,0,0,0,5.25,2,2.54,2.54,0,0,0,2.82-1.15,3,3,0,0,0,.34-1.27A2.63,2.63,0,0,0,250,52.9c-2.05-2.51-5-4.12-7.79-5.62a2.5,2.5,0,0,0-2.52,4.32,35.6,35.6,0,0,1,5,3.07l-.51-.39a14.25,14.25,0,0,1,2.24,2.15l2.43-4.18a25.75,25.75,0,0,1-3.2-1.11l.6.25a13.57,13.57,0,0,0-2.4-1,3,3,0,0,0-3.74,2.86,2.51,2.51,0,0,0,2.5,2.5,2.55,2.55,0,0,0,2.5-2.5Z"/><path d="M250.52,57.88a3.87,3.87,0,0,0,1.11-2.21A3.21,3.21,0,0,0,250.48,53a8.65,8.65,0,0,0-2.23-1.57,48.1,48.1,0,0,0-5.4-2.26,2.48,2.48,0,0,0-3.07,1.75,2.47,2.47,0,0,0,.25,1.92A2.75,2.75,0,0,0,241.52,54c.92.34,1.84.7,2.74,1.08l-.6-.25A15.2,15.2,0,0,1,247,56.5l-.51-.39a4.78,4.78,0,0,1,.76.73l-.39-.5a2.48,2.48,0,0,1,.19.26l-.25-1.93a1.51,1.51,0,0,1-.11.32l.26-.59-.17.29.39-.51-.15.17a2.5,2.5,0,1,0,3.53,3.53Z"/><path d="M250.76,58.07l.62-.7h-3.53c.26.31.53.61.78.92l-.39-.51a.75.75,0,0,1,.1.17l-.25-.59,0,.09-.09-.66v.06l.09-.67s0,0,0,.08l.25-.6a.25.25,0,0,1,0,.07l.39-.51a.08.08,0,0,1,0,0l.51-.39,0,0,.6-.25h0l.66-.08h0a1.88,1.88,0,0,0-1,.21,1.85,1.85,0,0,0-.8.52,1.82,1.82,0,0,0-.52.8,1.9,1.9,0,0,0-.22,1l.09.66a2.55,2.55,0,0,0,.65,1.11l.5.39a2.53,2.53,0,0,0,1.26.34,2.71,2.71,0,0,0,1.9-.78l0,0,.39-.51,0,0a2.87,2.87,0,0,0,.28-.68,2.73,2.73,0,0,0,0-1.5,2.55,2.55,0,0,0-.56-1c-.31-.41-.65-.79-1-1.17a1.77,1.77,0,0,0-.8-.52,1.88,1.88,0,0,0-1-.22l-.67.09a2.52,2.52,0,0,0-1.1.65l-.62.69a1.82,1.82,0,0,0-.52.8,2.32,2.32,0,0,0,0,1.93,1.85,1.85,0,0,0,.52.81l.5.39a2.54,2.54,0,0,0,1.27.34l.66-.09a2.5,2.5,0,0,0,1.1-.64Z"/><path d="M99.78,22.14c.08.35-.14.65.11.24.09-.16.15-.43.22-.59.14-.32.32-.67.5-1a14.09,14.09,0,0,1,1.3-2,37.65,37.65,0,0,1,4.18-4.1c.11-.1.6-.41.2-.24s.16,0,.25,0c.45-.09.91-.16,1.36-.23a5.31,5.31,0,0,1,2.21,0,14,14,0,0,1,4.94,1.9,2.52,2.52,0,0,0,3.42-.9,2.55,2.55,0,0,0-.89-3.42,18.17,18.17,0,0,0-7-2.57,11.7,11.7,0,0,0-4.17.14,6.65,6.65,0,0,0-3.62,1.51,35.55,35.55,0,0,0-5.22,5.33C96.15,18.17,94.41,21,95,23.47a2.5,2.5,0,1,0,4.82-1.33Z"/><path d="M100.54,139.21l.07,0-.5-.39a1.15,1.15,0,0,1,.22.22l-.39-.51a.64.64,0,0,1,.08.14l-.25-.6a.27.27,0,0,1,0,.12l-.09-.66a.28.28,0,0,1,0,.09,1.8,1.8,0,0,0,.21,1,1.82,1.82,0,0,0,.52.8,1.85,1.85,0,0,0,.8.52,1.89,1.89,0,0,0,1,.21l.66-.09a2.5,2.5,0,0,0,1.1-.64l.39-.51a2.25,2.25,0,0,0,.3-1.68,1.75,1.75,0,0,0-.07-.43,4.09,4.09,0,0,0-.29-.68,1.68,1.68,0,0,0-.25-.33,2.13,2.13,0,0,0-.33-.4c-.21-.18-.44-.35-.66-.52a1.85,1.85,0,0,0-.93-.29,2.21,2.21,0,0,0-1.85.49,1.8,1.8,0,0,0-.64.7l-.26.6a2.5,2.5,0,0,0,0,1.33l.26.59a2.48,2.48,0,0,0,.89.9Z"/><path d="M89.87,136.5a5.78,5.78,0,0,0,1.49.64l1.33-4.82a27.64,27.64,0,0,1-4.34-1.45l.59.25c-.82-.35-1.63-.72-2.44-1.1a2.69,2.69,0,0,0-1.93-.25,2.56,2.56,0,0,0-1.49,1.15,2.5,2.5,0,0,0-.25,1.93A2.46,2.46,0,0,0,84,134.34a37,37,0,0,0,7.38,2.8,2.64,2.64,0,0,0,1.93-.25,2.58,2.58,0,0,0,1.15-1.5,2.54,2.54,0,0,0-1.75-3.07,3.57,3.57,0,0,1-.46-.16l.6.25a3.61,3.61,0,0,1-.44-.22,2.5,2.5,0,1,0-2.52,4.31Z"/><path class="cls-4" d="M112.92,147.05c-4.81-1.21-11.76,9.68-18.9,20.86-2.88,4.52-2.62,4.62-9.17,16.17C76,199.77,74.24,201.79,70.5,209.81c-5.15,11.05-6.13,16.36-6.52,19-1.49,10.22.79,15.83,1.61,17.62A24.48,24.48,0,0,0,70,253.05a21.67,21.67,0,0,0,9.24,6.15,36.2,36.2,0,0,0,36.57-9.37c8.43-8.92,10.27-19.47,11-24.57.53-3.59.44-5.61-3-30.23-.83-5.9-2.08-14.75-4.29-26.66C116,149.42,114.64,147.48,112.92,147.05Z"/><path class="cls-5" d="M115,147c-2.08-4.51-14.92-3.1-28.11-1.66-5.32.59-5.24.85-18.35,3-17.8,2.9-20.45,2.82-29,4.93-11.84,2.91-16.59,5.46-18.89,6.82-8.91,5.24-11.85,10.54-12.74,12.3a24.89,24.89,0,0,0-2.4,7.57,21.67,21.67,0,0,0,1,11,36.2,36.2,0,0,0,30.21,22.63c12.24,1,21.61-4.19,26.06-6.8,3.13-1.83,4.64-3.17,21.67-21.28,4.09-4.35,10.19-10.86,18.1-20C115,150.85,115.69,148.57,115,147Z"/><line class="cls-6" x1="211.64" y1="180.98" x2="201.48" y2="144.8"/><line class="cls-6" x1="224.24" y1="157.23" x2="187.07" y2="167.23"/><line class="cls-6" x1="239.58" y1="190.71" x2="232.75" y2="168.3"/><line class="cls-6" x1="247.11" y1="175.73" x2="224.08" y2="182.48"/><path class="cls-7" d="M88.62,253.75s17.17.95,24.8-9.69"/><path class="cls-7" d="M34,206.1s18.74,1.74,26.34-4.82"/></svg>
