<svg id="Layer_1" data-name="Layer 1" xmlns="http://www.w3.org/2000/svg" width="220" height="300" viewBox="0 0 220 300"><defs><style>.cls-1{fill:#b0e7f7;}.cls-2{fill:#d9f726;}.cls-3,.cls-5{fill:#fff;}.cls-3,.cls-4{stroke:#000;}.cls-3,.cls-4,.cls-7{stroke-miterlimit:10;}.cls-3,.cls-7{stroke-width:4px;}.cls-4,.cls-7{fill:none;}.cls-4{stroke-width:2px;}.cls-6{fill:#7fb229;}.cls-7{stroke:#fff;stroke-linecap:round;}</style></defs><path class="cls-1" d="M190.66,284.61c-9.3,11.29-22,4.89-84,5.31-51.57.35-62.79,4.91-72-5.31-9.72-10.76-6.41-26,6-88C60.83,95.72,63.8,77.38,82.66,66.11c15.12-9,37.22-11.6,54-2.12,23.37,13.21,19.6,40.27,40,126.22C191.72,253.7,201.5,271.46,190.66,284.61Z"/><rect class="cls-2" x="80.66" y="44" width="57" height="22"/><rect class="cls-2" x="43.66" y="8" width="121" height="36"/><rect class="cls-2" x="34.66" y="19" width="9" height="14"/><path class="cls-3" d="M65.57,221.58c1.78,11,13.82,19.48,12,35.84-.47,4.05-1.53,6.34,0,8.8,3.52,5.67,14.1,1.46,34.57,1.88,17.78.37,26.47,3.88,30.18-1.25,2-2.73.79-5.49.62-10.06-.62-16.81,13.51-23.65,15.72-35.21,3.12-16.26-16.48-46.52-46.52-46.51C82.24,175.07,62.89,205,65.57,221.58Z"/><line class="cls-4" x1="142.51" y1="257.42" x2="77.13" y2="257.42"/><line class="cls-4" x1="87.82" y1="251.13" x2="87.82" y2="265.59"/><line class="cls-4" x1="133.08" y1="249.87" x2="133.08" y2="264.33"/><line class="cls-4" x1="123.02" y1="247.99" x2="123.02" y2="262.44"/><line class="cls-4" x1="112.33" y1="251.13" x2="112.33" y2="265.59"/><line class="cls-4" x1="100.39" y1="247.99" x2="100.39" y2="262.44"/><circle cx="108.54" cy="234.96" r="1.44"/><circle cx="115.72" cy="234.96" r="1.44"/><circle cx="95.16" cy="223.16" r="9.12"/><circle cx="129.1" cy="223.16" r="9.12"/><ellipse class="cls-5" cx="124.21" cy="219.7" rx="2.07" ry="1.89"/><ellipse class="cls-5" cx="89.57" cy="219.88" rx="2.07" ry="1.89"/><path class="cls-6" d="M182,283c0-2.34-12.92-5.72-26-5-11,.61-11.17,3.36-23,4-9.68.52-9.78-1.49-21-1-10.19.45-10.4,2.12-19,2-10-.14-9.75-2.41-19-2-4.81.21-10.82,1.09-17,2s-5.87,1.05-7,1c-9.76-.43-15-8.95-18-7-1.21.78-1.26,2.84-1,4,.66,2.92,4.31,4.34,6,5,9.44,3.68,35.89,1.37,40,1,2.25,0,5.73,0,10,0,6.36-.07,8.61-.21,13.36-.26,5.92-.05,7.72.13,14.64.26,4.54.09,11,.15,19,0h24c9.72,0,12.63.09,17-1C178.2,285.21,182,284.27,182,283Z"/><path class="cls-7" d="M92,72.41s-14.55,4.66-17.5,15.9"/></svg>
