<svg id="Layer_1" data-name="Layer 1" xmlns="http://www.w3.org/2000/svg" width="270" height="270" viewBox="0 0 270 270"><defs><style>.cls-1{fill:#f2a03d;}.cls-2{fill:#f2d022;}.cls-3{fill:#f266a7;}</style></defs><polygon class="cls-1" points="33.76 216.05 47.96 186.79 15.47 185.38 37.34 161.3 6.56 150.79 34.33 133.86 7.76 115.1 39.17 106.67 18.96 81.19 51.47 81.95 39.26 51.81 70.24 61.7 67.02 29.34 93.96 47.56 99.98 15.6 120.7 40.67 135.48 11.71 148.29 41.6 170.64 17.97 174.51 50.26 202.61 33.88 197.23 65.96 228.8 58.16 214.6 87.42 247.09 88.83 225.22 112.9 256 123.41 228.24 140.35 254.81 159.11 223.4 167.53 243.6 193.01 211.09 192.25 223.3 222.39 192.32 212.5 195.54 244.86 168.6 226.65 162.58 258.6 141.87 233.53 127.08 262.5 114.27 232.61 91.92 256.24 88.05 223.95 59.95 240.32 65.34 208.25 33.76 216.05"/><circle class="cls-2" cx="131.28" cy="137.1" r="91.07"/><path d="M150.94,120.28a12.37,12.37,0,0,1,3.75-9.16,9.38,9.38,0,0,1,9.59-1.53c4,1.66,5.9,6.54,6.18,10.27.12,1.59,2.62,1.6,2.5,0-.29-3.82-1.72-7.91-4.58-10.55a11.73,11.73,0,0,0-16.49,1.11,15.49,15.49,0,0,0-3.45,9.86,1.25,1.25,0,0,0,2.5,0Z"/><path d="M113.47,120.28c-.11-6.45-3.86-12.9-10.71-13.75a11.48,11.48,0,0,0-8.37,2.08,13.35,13.35,0,0,0-4.35,6.2,18.9,18.9,0,0,0-1.09,5c-.12,1.6,2.38,1.59,2.5,0,.28-3.73,2.18-8.61,6.18-10.27a9.37,9.37,0,0,1,9.58,1.53,12.38,12.38,0,0,1,3.76,9.16,1.25,1.25,0,0,0,2.5,0Z"/><path d="M140.46,156.5a12.41,12.41,0,0,1-3.76,9.16,9.39,9.39,0,0,1-9.58,1.53c-4-1.67-5.9-6.54-6.19-10.27-.12-1.6-2.62-1.61-2.5,0,.29,3.81,1.72,7.9,4.59,10.54a11.72,11.72,0,0,0,16.49-1.11A15.5,15.5,0,0,0,143,156.5a1.25,1.25,0,0,0-2.5,0Z"/><circle class="cls-3" cx="80.61" cy="150.42" r="9.59"/><circle class="cls-3" cx="177.6" cy="150.42" r="9.59"/></svg>
