<svg height="260" viewBox="0 0 260 260" width="260" xmlns="http://www.w3.org/2000/svg"><path d="m-.5-.5h260v260h-260z" fill="#f6c8df" stroke="#4d4d4d" stroke-miterlimit="10"/><g fill="#70c2b1"><path d="m200.9 50.05c-.15-21.95-25.08-28.81-42.83-29.34a101.48 101.48 0 0 0 -55.22 14.7 153.19 153.19 0 0 0 -34.85 28.3c-5.55 6.19-11.42 16.22-3.3 23 3 2.56 7.06 3.75 10.88 4.65a150.89 150.89 0 0 0 17.8 2.94c11 1.26 22 1.81 33 3.24a157.86 157.86 0 0 1 60.37 20.74c15.09 9 31 22.63 30.42 41.81-.27 9.27-4.41 17.18-9.81 24.47-.9 1.21-2.71 2.55 1.57-1.32l5.31-4.46c.78-.57.59-.44-.64.42-1.53.94-3.1 1.86-4.71 2.71a112.2 112.2 0 0 1 -14.3 6.09c-20.14 7.3-41.49 13.33-62.78 15.93-22.49 2.77-46.26.66-66.49-10.19-8.93-4.81-17.89-11.47-23.24-20.27a25.4 25.4 0 0 1 -4-14.11 18.7 18.7 0 0 1 1.37-6.27 29.91 29.91 0 0 1 1.35-2.72c4.53-8.67-24.47 16.35-14.77 12.78 2.11-.79 4.35-2.66 6.09-3.92 3.2-2.42 6.33-5 9.3-7.72a59.57 59.57 0 0 0 6.58-6.59c.26-.32 2.09-2.56.42-1.95-7.73 2.82-14.42 9.19-20.42 14.64-4.57 4.1-9.76 8.63-12.14 14.48-3.41 8.37-1.12 17.16 4 24.27 11.78 16.12 32.82 24.64 51.91 27.64 21.76 3.43 43.9.22 65.07-5.13s43.12-11.28 61.3-23.62c12.09-8.21 24.3-18.16 33.08-30 5.77-7.75 9.83-16.93 9.78-26.74-.12-19.93-17.7-33.46-33.47-42.34-19.55-11-41-17.31-63.29-19.67-11.76-1.25-23.52-1.82-35.22-3.63-7.89-1.22-21.17-2.46-24.09-11.65a11.25 11.25 0 0 1 .7-8.16 17.81 17.81 0 0 1 1.14-2.16c3.38-5.49 1.68 2-7.43 5.82 3.14-1.31-1.27.67 1.63-1.16 1.13-.7 2.25-1.42 3.39-2.09 2.15-1.25 4.33-2.4 6.58-3.44a97.87 97.87 0 0 1 33.61-8.82c19.6-1.5 52.28 3.39 52.47 29.14 0 .63 5-2.64 4.21-2.13a103.3 103.3 0 0 0 8.77-6.81 109.27 109.27 0 0 0 8.13-7.54c.88-.92 2.79-2.45 2.78-3.82z" stroke="#4d4d4d" stroke-miterlimit="10"/><path d="m79.09 55.42-.26.4a1 1 0 0 0 -.17.55 1.11 1.11 0 0 0 0 .6 1.14 1.14 0 0 0 .27.51 1.31 1.31 0 0 0 .42.39l.36.15a1.55 1.55 0 0 0 .8 0l.36-.15a1.61 1.61 0 0 0 .53-.54l.26-.4a1.12 1.12 0 0 0 .18-.56 1 1 0 0 0 0-.6 1.13 1.13 0 0 0 -.26-.51 1.18 1.18 0 0 0 -.42-.38l-.36-.15a1.55 1.55 0 0 0 -.8 0l-.36.15a1.55 1.55 0 0 0 -.54.54z"/><path d="m81.8 57.09a1.5 1.5 0 0 0 0-3 1.5 1.5 0 0 0 0 3z"/><path d="m82.5 56.11a1.5 1.5 0 0 0 0-3 1.5 1.5 0 0 0 0 3z"/><path d="m82.93 55.41a1.5 1.5 0 0 0 0-3 1.5 1.5 0 0 0 0 3z"/><path d="m83.24 55.25a1.5 1.5 0 0 0 0-3 1.5 1.5 0 0 0 0 3z"/><path d="m83.52 54.59a1.5 1.5 0 0 0 0-3 1.5 1.5 0 0 0 0 3z"/><path d="m83.71 54.16a1.5 1.5 0 0 0 0-3 1.5 1.5 0 0 0 0 3z"/><path d="m83.87 53.81a1.5 1.5 0 0 0 0-3 1.5 1.5 0 0 0 0 3z"/><path d="m84 53.58a1.5 1.5 0 0 0 0-3 1.5 1.5 0 0 0 0 3z"/><path d="m83.2 55.33a1.5 1.5 0 0 0 0-3 1.5 1.5 0 0 0 0 3z"/><path d="m87.48 47.48-1 .64a1.52 1.52 0 0 0 -.3 2.35 1.47 1.47 0 0 0 .48.38l-.3-2.36c.1-.09.24-.16 0-.05s-.23 0 .06 0a2.55 2.55 0 0 0 -.39.13 10.24 10.24 0 0 0 -1.03.43 6.62 6.62 0 0 0 -1.71 1.16 11.35 11.35 0 0 0 -2.17 3.63 1.55 1.55 0 0 0 .54 2.06 1.52 1.52 0 0 0 2-.54c.29-.61.58-1.23.88-1.83a6.47 6.47 0 0 1 .49-.85c.14-.23-.17.18 0 0a.81.81 0 0 1 .12-.14 3.22 3.22 0 0 1 .32-.32l.14-.12c.13-.12-.27.2-.06 0l.35-.22.36-.21c.1-.05.34-.11.41-.2s-.3.13-.1.05l.21-.08.39-.14a4 4 0 0 0 1.31-.73 1.5 1.5 0 0 0 -.3-2.35q-.21-.1.12.09l-.3 2.45 1-.64a1.5 1.5 0 1 0 -1.51-2.59z"/><path d="m87.15 51.23a1.5 1.5 0 0 0 0-3 1.5 1.5 0 0 0 0 3z"/><path d="m87.11 51.35a1.5 1.5 0 0 0 0-3 1.5 1.5 0 0 0 0 3z"/><path d="m86.72 51.47a1.5 1.5 0 0 0 0-3 1.5 1.5 0 0 0 0 3z"/><path d="m86.29 51.62a1.5 1.5 0 0 0 0-3 1.5 1.5 0 0 0 0 3z"/><path d="m85.86 51.9a1.5 1.5 0 0 0 0-3 1.5 1.5 0 0 0 0 3z"/><path d="m85.51 52.09a1.5 1.5 0 0 0 0-3 1.5 1.5 0 0 0 0 3z"/><path d="m85.12 52.29a1.5 1.5 0 0 0 0-3 1.5 1.5 0 0 0 0 3z"/><path d="m84.88 52.6a1.5 1.5 0 0 0 0-3 1.5 1.5 0 0 0 0 3z"/><path d="m82.84 51.69v.07a1.14 1.14 0 0 0 .12.58 1.21 1.21 0 0 0 .31.48 1.11 1.11 0 0 0 .49.31 1.06 1.06 0 0 0 .58.13h.39a1.47 1.47 0 0 0 .67-.39l.23-.3a1.55 1.55 0 0 0 .21-.76v-.07a1.27 1.27 0 0 0 -.13-.58 1.32 1.32 0 0 0 -.8-.8 1.13 1.13 0 0 0 -.57-.12l-.4.05a1.54 1.54 0 0 0 -.67.38l-.23.31a1.42 1.42 0 0 0 -.2.76z"/><path d="m87.14 49.75a6.74 6.74 0 0 0 -2.81 1.88 6.51 6.51 0 0 0 -.8 1.41c-.12.28-.23.57-.35.86l-.13.34v.09a1.24 1.24 0 0 1 -.1.2.75.75 0 1 0 1.3.76c.23-.5.43-1 .64-1.54l.09-.21a3.18 3.18 0 0 1 .16-.32 3.86 3.86 0 0 1 .39-.65c.08-.1-.11.12 0 0l.13-.14a2.16 2.16 0 0 1 .27-.25s.12-.11 0 0a1.4 1.4 0 0 1 .18-.13l.31-.2a12.4 12.4 0 0 1 1.48-.85.75.75 0 0 0 .27-1 .77.77 0 0 0 -1-.27z"/><path d="m215.55 177.33a3 3 0 0 0 -.92.28 2.46 2.46 0 0 0 -.78.76c-.4.56-.78 1.13-1.17 1.7l1.29.75a4.64 4.64 0 0 0 .6-2.27.76.76 0 0 0 -.95-.72 4.74 4.74 0 0 0 -2.17 2 15.7 15.7 0 0 0 -1.21 2.34.8.8 0 0 0 .12.91.79.79 0 0 0 .91.12c1.23-.58 1.78-1.87 2.47-3a.75.75 0 0 0 -1.29-.75c-.33.51-.59 1.05-.94 1.55a2.61 2.61 0 0 1 -1 .88l1 1a16 16 0 0 1 1.08-2.15 4.52 4.52 0 0 1 .63-.83 4.07 4.07 0 0 1 .42-.41l.12-.1s0 0 .05 0l.13-.09c.08 0 .1 0 .05 0l-1-.72a3.18 3.18 0 0 1 -.39 1.52.76.76 0 0 0 .27 1 .75.75 0 0 0 1-.27l1-1.47.19-.28.14-.13c.15-.11 0 0 .06 0a1.39 1.39 0 0 1 .19-.06l.38-.08a.76.76 0 0 0 .53-.92.78.78 0 0 0 -.93-.52z"/><path d="m206.59 186.13c0 .15-.13.15.09.07a3.55 3.55 0 0 0 .43-.23 3.08 3.08 0 0 0 .79-.78 2.25 2.25 0 0 1 1.4-1.07 5.93 5.93 0 0 0 1.09-.25 3.9 3.9 0 0 0 1-.63l1.93-1.53a.76.76 0 0 0 0-1.06.75.75 0 0 0 -1.06 0c-.68.54-1.34 1.12-2 1.62a2.11 2.11 0 0 1 -1 .35 3.65 3.65 0 0 0 -1.26.38 3.08 3.08 0 0 0 -.89.76 4.82 4.82 0 0 1 -.69.86c-.28.23-.64.3-.9.57a1.32 1.32 0 0 0 -.36 1.33c.29.91 1.74.52 1.44-.4z"/><path d="m208.6 184.28c.06-.17-.07.08 0-.07s0 0 0 0l.12-.12c.14-.13-.09.05.07-.05l.68-.41a7.19 7.19 0 0 0 1.46-1.18 13.4 13.4 0 0 0 1.16-1.45 4.07 4.07 0 0 1 1-1.09.77.77 0 0 0 .27-1 .76.76 0 0 0 -1-.27 5.23 5.23 0 0 0 -1.36 1.36 10.57 10.57 0 0 1 -1.12 1.4 5.66 5.66 0 0 1 -1.38 1.05 2.53 2.53 0 0 0 -1.32 1.41.76.76 0 0 0 .52.93.77.77 0 0 0 .92-.53z"/><path d="m26.48 163.37a7.62 7.62 0 0 0 -1.06.2 1.75 1.75 0 0 0 -.33.06c-.12-.07-.13 0 0 0s.09.1.15 0a7.71 7.71 0 0 0 .74-.33 7.18 7.18 0 0 1 .92-.2 7.34 7.34 0 0 0 3.44-1.37c1.18-.89 2.33-1.83 3.5-2.74a34.31 34.31 0 0 0 3.48-2.88.76.76 0 0 0 -.33-1.26 4.81 4.81 0 0 0 -3.99 1.45 8 8 0 0 0 -1.35 1.5 15 15 0 0 1 -1.15 1.67c-.95 1-2.65 1-3.86 1.6a3.14 3.14 0 0 0 -1.84 3.25c.07.53.71.63 1.1.45a17 17 0 0 0 3-1.74c.64-.46.3-1.63-.58-1.37a7.27 7.27 0 0 0 -1.87.88c-.79.53-.08 1.79.76 1.3l.86-.51a.75.75 0 0 0 -.76-1.3l-.86.51.76 1.3a5.7 5.7 0 0 1 1.51-.73l-.58-1.37a17 17 0 0 1 -3 1.74l1.1.44c-.17-1.18 1.45-1.72 2.31-2a6.07 6.07 0 0 0 3-1.43c.75-.79 1.17-1.82 1.91-2.61s1.93-1.78 3.07-1.56l-.33-1.25a42.06 42.06 0 0 1 -4.2 3.53l-2.25 1.76a5.36 5.36 0 0 1 -2.11 1.14c-1.27.3-3.17.3-3.9 1.62a1.3 1.3 0 0 0 .53 1.76c.77.47 1.44.06 2.24 0 1-.09 1-1.59 0-1.5z"/><path d="m36.56 156.51c.28-.53.83-.86 1.09-1.43.12-.27.18-.59.29-.84a1.65 1.65 0 0 1 .52-.65l-1.25-.73a17.21 17.21 0 0 1 -2.83 6.07.76.76 0 0 0 .27 1 .77.77 0 0 0 1-.27 18.46 18.46 0 0 0 3-6.42.76.76 0 0 0 -1.26-.73 3.55 3.55 0 0 0 -1 1.79 1.8 1.8 0 0 1 -.41.58 4.3 4.3 0 0 0 -.68.85c-.45.85.84 1.61 1.3.76z"/><path d="m41.25 147.71a11.32 11.32 0 0 1 -1.78 1.53 3.9 3.9 0 0 0 -1.3 1.85.75.75 0 0 0 .92.92 5.38 5.38 0 0 0 3-2.55.75.75 0 0 0 -1.17-.91 24.69 24.69 0 0 0 -5.12 6.65.76.76 0 0 0 .27 1 .75.75 0 0 0 1-.27 23.4 23.4 0 0 1 4.93-6.32l-1.18-.91a3.81 3.81 0 0 1 -2.16 1.86l.92.92a2.94 2.94 0 0 1 1.1-1.32 8.83 8.83 0 0 0 1.6-1.39.75.75 0 0 0 -1.06-1.06z"/><path d="m40.45 149.21c-1 1.33-2 2.65-3 4a14.49 14.49 0 0 0 -2.2 4c-.3.92 1.15 1.31 1.45.4a13.76 13.76 0 0 1 2.13-3.74c1-1.3 1.94-2.59 2.91-3.88a.76.76 0 0 0 -.27-1 .78.78 0 0 0 -1 .27z"/><path d="m40.46 149.84c-1.27 1.48-3.09 2.37-4.61 3.58a21.84 21.84 0 0 0 -4.05 4.32.76.76 0 0 0 .27 1 .77.77 0 0 0 1-.27 20.15 20.15 0 0 1 3.93-4.08c1.49-1.18 3.24-2 4.49-3.49.63-.73-.43-1.8-1.06-1.06z"/><path d="m38.22 155.17a13 13 0 0 1 1.76-3l2.33-3.24a.74.74 0 0 0 -.27-1 .76.76 0 0 0 -1 .27l-2.4 3.32a13.4 13.4 0 0 0 -1.84 3.28.75.75 0 0 0 .52.92.76.76 0 0 0 .92-.52z"/><path d="m40.9 147.68a30 30 0 0 0 -7.18 5.49 15.23 15.23 0 0 0 -4.31 7.39c-.21.94 1.24 1.34 1.44.4a14.06 14.06 0 0 1 4.09-6.89 28.75 28.75 0 0 1 6.71-5.1c.86-.44.1-1.74-.75-1.29z"/><path d="m39.47 148.71-.08.16a.75.75 0 0 0 .27 1 .77.77 0 0 0 1.05-.26.81.81 0 0 0 0-.74.79.79 0 0 0 -.75-.48.86.86 0 0 0 -.56.24c-.26.24.25-.19.53-.09l.33.2-.16 1.17.89-.53a.75.75 0 0 0 -.57-1.37 4.38 4.38 0 0 0 -1.07.51c-.32.2-.63.4-.93.63a3.27 3.27 0 0 0 -1.24 1.85.75.75 0 0 0 1.45.4 1.6 1.6 0 0 1 0-.21.32.32 0 0 0 0-.09c0 .18 0 .1 0 0s.15-.23.21-.35c-.08.15-.06.07 0 0l.07-.09c0-.05.1-.11.16-.16a1.07 1.07 0 0 1 .16-.14l.09-.08c.11-.09-.09.07 0 0 .25-.18.51-.35.77-.51l.4-.24.23-.11h.15l-.58-1.37-.89.53a.76.76 0 0 0 -.15 1.18.8.8 0 0 0 .81.21.91.91 0 0 0 .37-.21v-.05l-.07.06-.38.1h-.15l-.33-.19-.19-.33.06-.51.45-.35.58.07.27 1 .09-.15a.76.76 0 0 0 -.27-1 .78.78 0 0 0 -1 .27z"/><path d="m23.27 165.53a8.37 8.37 0 0 0 1.84-2.25 8.8 8.8 0 0 1 2.3-1.95 10.7 10.7 0 0 0 2.46-2 4.85 4.85 0 0 1 2.33-1.8c.94-.22.54-1.67-.4-1.45a5.25 5.25 0 0 0 -2.56 1.71c-.38.41-.74.85-1.15 1.25a7.6 7.6 0 0 1 -1.3.95 10.84 10.84 0 0 0 -2.46 2 8.47 8.47 0 0 0 -1 1.27 3.14 3.14 0 0 1 -.85 1.06c-.82.52-.06 1.82.75 1.3z"/><path d="m24.33 164.24c1.51-3 4.69-4.33 7.57-5.59a.75.75 0 0 0 .27-1 .76.76 0 0 0 -1-.27c-3.13 1.36-6.48 2.94-8.11 6.13-.44.85.86 1.61 1.29.75z"/><path d="m23.31 164.32a.75.75 0 0 0 0-1.5.75.75 0 0 0 0 1.5z"/></g></svg>
