<svg id="Layer_1" data-name="Layer 1" xmlns="http://www.w3.org/2000/svg" width="260" height="260" viewBox="0 0 260 260"><defs><style>.cls-1,.cls-2{fill:#70c2b1;}.cls-1{stroke:#4d4d4d;stroke-miterlimit:10;}</style></defs><path class="cls-1" d="M201.27,51.05c-.16-21.95-25.09-28.81-42.83-29.34a101.49,101.49,0,0,0-55.23,14.7,153.41,153.41,0,0,0-34.86,28.3c-5.55,6.19-11.42,16.22-3.3,23,3,2.56,7.06,3.75,10.88,4.65A151.23,151.23,0,0,0,93.74,95.3c11,1.26,22.05,1.81,33,3.24a157.86,157.86,0,0,1,60.37,20.74c15.09,9,31,22.63,30.42,41.81-.26,9.27-4.41,17.18-9.8,24.47-.91,1.21-2.72,2.55,1.56-1.32l5.31-4.46c.78-.57.59-.44-.64.42-1.53.94-3.1,1.86-4.71,2.71A112.68,112.68,0,0,1,195,189c-20.15,7.3-41.5,13.33-62.79,15.93-22.48,2.77-46.25.66-66.49-10.19-8.93-4.81-17.89-11.47-23.24-20.27a25.4,25.4,0,0,1-4-14.11,19,19,0,0,1,1.37-6.27,30,30,0,0,1,1.36-2.72c4.52-8.67-24.48,16.35-14.78,12.78,2.11-.79,4.36-2.66,6.09-3.92,3.21-2.42,6.33-5,9.3-7.72a59.57,59.57,0,0,0,6.66-6.63c.26-.32,2.09-2.56.43-1.95-7.77,2.82-14.49,9.19-20.49,14.64-4.57,4.1-9.76,8.63-12.14,14.48-3.41,8.37-1.12,17.16,4.06,24.27C32,213.48,53,222,72.13,225c21.76,3.43,43.91.22,65.08-5.13s43.12-11.28,61.29-23.62c12.09-8.21,24.3-18.16,33.08-30,5.78-7.75,9.84-16.93,9.78-26.74-.12-19.93-17.69-33.46-33.47-42.34-19.54-11-41-17.31-63.28-19.67-11.76-1.25-23.52-1.82-35.23-3.63-7.89-1.22-21.17-2.46-24.08-11.65A11.2,11.2,0,0,1,86,54.1a21.15,21.15,0,0,1,1.14-2.16c3.38-5.49,1.68,2-7.42,5.82,3.13-1.31-1.27.67,1.62-1.16,1.13-.7,2.25-1.42,3.39-2.09,2.15-1.25,4.33-2.4,6.58-3.44a97.87,97.87,0,0,1,33.61-8.82c19.6-1.5,52.28,3.39,52.47,29.14,0,.63,5-2.64,4.22-2.13a104.77,104.77,0,0,0,8.73-6.85,107.33,107.33,0,0,0,8.13-7.54c.89-.92,2.79-2.45,2.78-3.82Z"/><path class="cls-2" d="M79.45,56.42l-.25.4a1.09,1.09,0,0,0-.18.55,1.11,1.11,0,0,0,0,.6,1.14,1.14,0,0,0,.27.51,1.31,1.31,0,0,0,.42.39l.36.15a1.55,1.55,0,0,0,.8,0l.36-.15a1.74,1.74,0,0,0,.54-.54l.26-.4a1.22,1.22,0,0,0,.17-.56,1.11,1.11,0,0,0,0-.6,1.26,1.26,0,0,0-.27-.51,1.18,1.18,0,0,0-.42-.38l-.36-.15a1.55,1.55,0,0,0-.8,0l-.36.15a1.55,1.55,0,0,0-.54.54Z"/><path class="cls-2" d="M82.16,58.09a1.5,1.5,0,0,0,0-3,1.5,1.5,0,0,0,0,3Z"/><path class="cls-2" d="M82.86,57.11a1.5,1.5,0,0,0,0-3,1.5,1.5,0,0,0,0,3Z"/><path class="cls-2" d="M83.29,56.41a1.5,1.5,0,0,0,0-3,1.5,1.5,0,0,0,0,3Z"/><path class="cls-2" d="M83.6,56.25a1.5,1.5,0,0,0,0-3,1.5,1.5,0,0,0,0,3Z"/><path class="cls-2" d="M83.88,55.59a1.5,1.5,0,0,0,0-3,1.5,1.5,0,0,0,0,3Z"/><path class="cls-2" d="M84.07,55.16a1.5,1.5,0,0,0,0-3,1.5,1.5,0,0,0,0,3Z"/><path class="cls-2" d="M84.23,54.81a1.5,1.5,0,0,0,0-3,1.5,1.5,0,0,0,0,3Z"/><path class="cls-2" d="M84.39,54.58a1.5,1.5,0,0,0,0-3,1.5,1.5,0,0,0,0,3Z"/><path class="cls-2" d="M83.57,56.33a1.5,1.5,0,0,0,0-3,1.5,1.5,0,0,0,0,3Z"/><path class="cls-2" d="M87.84,48.48l-1,.64a1.52,1.52,0,0,0-.3,2.35,1.41,1.41,0,0,0,.49.38l-.31-2.36c.11-.09.24-.16,0-.05s-.22,0,.06,0a3,3,0,0,0-.39.13,10.24,10.24,0,0,0-1.08.45,6.79,6.79,0,0,0-1.71,1.16,11.53,11.53,0,0,0-2.17,3.63A1.55,1.55,0,0,0,82,56.85a1.52,1.52,0,0,0,2-.54c.29-.61.58-1.23.88-1.83a6.47,6.47,0,0,1,.49-.85c.14-.23-.16.18,0,0l.12-.14c.1-.11.21-.22.32-.32l.14-.12c.13-.12-.27.2,0,0l.34-.22.36-.21c.1-.05.34-.11.41-.2s-.3.13-.1.05l.21-.08.39-.14a4,4,0,0,0,1.31-.73,1.5,1.5,0,0,0-.3-2.35q-.21-.1.12.09l-.3,2.36,1-.64a1.5,1.5,0,1,0-1.51-2.59Z"/><path class="cls-2" d="M87.51,52.23a1.5,1.5,0,0,0,0-3,1.5,1.5,0,0,0,0,3Z"/><path class="cls-2" d="M87.47,52.35a1.5,1.5,0,0,0,0-3,1.5,1.5,0,0,0,0,3Z"/><path class="cls-2" d="M87.08,52.47a1.5,1.5,0,0,0,0-3,1.5,1.5,0,0,0,0,3Z"/><path class="cls-2" d="M86.65,52.62a1.5,1.5,0,0,0,0-3,1.5,1.5,0,0,0,0,3Z"/><path class="cls-2" d="M86.22,52.9a1.5,1.5,0,0,0,0-3,1.5,1.5,0,0,0,0,3Z"/><path class="cls-2" d="M85.87,53.09a1.5,1.5,0,0,0,0-3,1.5,1.5,0,0,0,0,3Z"/><path class="cls-2" d="M85.48,53.29a1.5,1.5,0,0,0,0-3,1.5,1.5,0,0,0,0,3Z"/><path class="cls-2" d="M85.24,53.6a1.5,1.5,0,0,0,0-3,1.5,1.5,0,0,0,0,3Z"/><path class="cls-2" d="M83.2,52.69v.07a1.06,1.06,0,0,0,.13.58,1.36,1.36,0,0,0,.79.79,1.06,1.06,0,0,0,.58.13l.4,0a1.49,1.49,0,0,0,.66-.39l.23-.3a1.45,1.45,0,0,0,.21-.76v-.07a1.15,1.15,0,0,0-.13-.58,1.21,1.21,0,0,0-.31-.49,1.24,1.24,0,0,0-.48-.31,1.17,1.17,0,0,0-.58-.12l-.4.05a1.45,1.45,0,0,0-.66.38l-.24.31a1.51,1.51,0,0,0-.2.76Z"/><path class="cls-2" d="M87.5,50.75a6.81,6.81,0,0,0-2.81,1.88A6.08,6.08,0,0,0,83.9,54c-.12.28-.24.57-.35.86,0,.11-.1.23-.14.34l0,.09-.09.2a.75.75,0,1,0,1.29.76c.24-.5.43-1,.64-1.54,0,0,0-.1,0,0l.09-.21a3.18,3.18,0,0,1,.16-.32,3.86,3.86,0,0,1,.39-.65c.08-.1-.11.12,0,0l.12-.14a2.16,2.16,0,0,1,.27-.25s.13-.11,0,0l.18-.13.31-.2A12.4,12.4,0,0,1,88.26,52a.75.75,0,0,0,.27-1,.77.77,0,0,0-1-.27Z"/><path class="cls-2" d="M215.92,178.33a3,3,0,0,0-.93.28,2.46,2.46,0,0,0-.78.76l-1.17,1.7,1.3.75a4.74,4.74,0,0,0,.59-2.27.76.76,0,0,0-1-.72,4.79,4.79,0,0,0-2.17,2,15.7,15.7,0,0,0-1.21,2.34.8.8,0,0,0,.12.91.79.79,0,0,0,.91.12c1.23-.58,1.79-1.87,2.47-3a.75.75,0,0,0-1.29-.75c-.32.51-.59,1.05-.94,1.55a2.61,2.61,0,0,1-1,.88l1,1a16,16,0,0,1,1.08-2.15,5,5,0,0,1,.63-.83,4.07,4.07,0,0,1,.42-.41l.12-.1s0,0,0,0l.14-.09,0,0-.95-.72a3.07,3.07,0,0,1-.39,1.52.75.75,0,0,0,1.3.75l1-1.47a3.27,3.27,0,0,1,.19-.28.8.8,0,0,1,.13-.13c.15-.11,0,0,.07,0l.18-.06.39-.08a.75.75,0,1,0-.4-1.44Z"/><path class="cls-2" d="M207,187.13c.05.15-.13.15.09.07a3.55,3.55,0,0,0,.43-.23,3.08,3.08,0,0,0,.79-.78,2.25,2.25,0,0,1,1.4-1.07,5.93,5.93,0,0,0,1.09-.25,4.15,4.15,0,0,0,1-.63l1.92-1.53a.75.75,0,0,0-1.06-1.06c-.68.54-1.33,1.12-2,1.62a2.11,2.11,0,0,1-1,.35,3.53,3.53,0,0,0-1.2.39,3.12,3.12,0,0,0-.9.76,4.41,4.41,0,0,1-.69.86c-.28.23-.64.3-.9.57a1.34,1.34,0,0,0-.36,1.33c.29.91,1.74.52,1.44-.4Z"/><path class="cls-2" d="M209,185.28c.05-.17-.08.08,0-.07s0,0,0,0l.12-.12c.13-.13-.1.05.06-.05l.68-.41a6.93,6.93,0,0,0,1.46-1.18A12.28,12.28,0,0,0,212.5,182a4.07,4.07,0,0,1,1-1.09.77.77,0,0,0,.27-1,.76.76,0,0,0-1-.27,5.19,5.19,0,0,0-1.4,1.44,12.49,12.49,0,0,1-1.12,1.4,5.72,5.72,0,0,1-1.39,1.05,2.57,2.57,0,0,0-1.32,1.41.77.77,0,0,0,.52.93.78.78,0,0,0,.93-.53Z"/><path class="cls-2" d="M26.84,164.37a7.76,7.76,0,0,0-1.05.2,1.61,1.61,0,0,0-.33.06c-.13-.07-.14,0,0,0s.08.1.14,0a7.71,7.71,0,0,0,.74-.33,7.18,7.18,0,0,1,.92-.2,7.29,7.29,0,0,0,3.44-1.37c1.18-.89,2.33-1.83,3.5-2.74a33.25,33.25,0,0,0,3.48-2.88.76.76,0,0,0-.33-1.26,4.81,4.81,0,0,0-3.94,1.39A8.37,8.37,0,0,0,32,158.8a13.73,13.73,0,0,1-1.15,1.67c-.95,1-2.65,1-3.86,1.6a3.15,3.15,0,0,0-1.84,3.25c.07.53.72.63,1.1.45a17,17,0,0,0,3-1.74c.65-.46.3-1.63-.57-1.37a7,7,0,0,0-1.87.88c-.8.53-.09,1.79.75,1.3l.86-.51a.75.75,0,0,0-.76-1.3l-.85.51.75,1.3a5.85,5.85,0,0,1,1.51-.73l-.57-1.37a17.44,17.44,0,0,1-3,1.74l1.11.44c-.17-1.18,1.44-1.72,2.3-2a6.15,6.15,0,0,0,3-1.43c.74-.79,1.16-1.82,1.9-2.61s1.94-1.78,3.07-1.56l-.33-1.25a42.06,42.06,0,0,1-4.26,3.49l-2.25,1.76A5.36,5.36,0,0,1,28,162.5c-1.27.3-3.17.3-3.9,1.62a1.3,1.3,0,0,0,.53,1.76c.78.47,1.44.06,2.24,0,1-.09,1-1.59,0-1.5Z"/><path class="cls-2" d="M36.92,157.51c.28-.53.83-.86,1.09-1.43.12-.27.18-.59.29-.84a1.74,1.74,0,0,1,.52-.65l-1.25-.73a17.36,17.36,0,0,1-2.82,6.07.74.74,0,0,0,.27,1,.76.76,0,0,0,1-.27,18.46,18.46,0,0,0,3-6.42.76.76,0,0,0-1.26-.73,3.55,3.55,0,0,0-1,1.79,1.8,1.8,0,0,1-.41.58,3.92,3.92,0,0,0-.67.85c-.46.85.83,1.61,1.29.76Z"/><path class="cls-2" d="M41.62,148.71a11.86,11.86,0,0,1-1.79,1.53,4,4,0,0,0-1.3,1.85.75.75,0,0,0,.92.92,5.4,5.4,0,0,0,3.06-2.55.75.75,0,0,0-1.18-.91,24.69,24.69,0,0,0-5.12,6.65.78.78,0,0,0,.27,1,.75.75,0,0,0,1-.27,23.6,23.6,0,0,1,4.89-6.35l-1.18-.91a3.77,3.77,0,0,1-2.16,1.86l.92.92a2.94,2.94,0,0,1,1.1-1.32,9.24,9.24,0,0,0,1.61-1.39.78.78,0,0,0,0-1.06.76.76,0,0,0-1.06,0Z"/><path class="cls-2" d="M40.81,150.21c-1,1.33-2,2.65-3,4a14.75,14.75,0,0,0-2.2,4c-.3.92,1.15,1.31,1.45.4a13.76,13.76,0,0,1,2.13-3.74c1-1.3,1.94-2.59,2.91-3.88a.76.76,0,0,0-.27-1,.78.78,0,0,0-1,.27Z"/><path class="cls-2" d="M40.83,150.84c-1.28,1.48-3.1,2.37-4.61,3.58a21.89,21.89,0,0,0-4.06,4.32.75.75,0,1,0,1.3.76,20.42,20.42,0,0,1,3.93-4.11c1.49-1.18,3.25-2,4.5-3.49.62-.73-.43-1.8-1.06-1.06Z"/><path class="cls-2" d="M38.58,156.17a13,13,0,0,1,1.76-3l2.33-3.24a.75.75,0,0,0-.26-1,.77.77,0,0,0-1,.27L39,152.49a13.74,13.74,0,0,0-1.84,3.28.75.75,0,1,0,1.44.4Z"/><path class="cls-2" d="M41.26,148.68a30,30,0,0,0-7.18,5.49,15.23,15.23,0,0,0-4.31,7.39c-.2.94,1.24,1.34,1.45.4a14,14,0,0,1,4.08-6.89A28.81,28.81,0,0,1,42,150c.85-.44.09-1.74-.76-1.29Z"/><path class="cls-2" d="M39.84,149.71l-.09.16a.75.75,0,0,0,.27,1,.77.77,0,0,0,1-.26.81.81,0,0,0,0-.74.79.79,0,0,0-.75-.48.86.86,0,0,0-.56.24c-.26.24.25-.19.53-.09l.34.2,0,0-.15,1.17.89-.53a.75.75,0,0,0-.58-1.37,4.38,4.38,0,0,0-1.07.51c-.31.2-.63.4-.92.63A3.24,3.24,0,0,0,37.54,152a.77.77,0,0,0,.53.92.76.76,0,0,0,.92-.52.83.83,0,0,1,.06-.21.32.32,0,0,1,0-.09c0,.18,0,.1,0,0s.15-.23.22-.35c-.09.15-.06.07,0,0l.08-.09.15-.16.16-.14.1-.08c.1-.09-.1.07,0,0,.25-.18.51-.35.77-.51s.27-.17.41-.24l.22-.11s-.14.05,0,0l.14,0-.58-1.37-.89.53a.76.76,0,0,0-.15,1.18.8.8,0,0,0,.81.21.91.91,0,0,0,.37-.21.1.1,0,0,0,0-.05l-.07.06-.38.1-.15,0-.33-.19h0l-.19-.33.07-.51.45-.35h0l.58.07h0l.27,1,.08-.15a.75.75,0,1,0-1.29-.76Z"/><path class="cls-2" d="M23.63,166.53a8.37,8.37,0,0,0,1.84-2.25,8.8,8.8,0,0,1,2.3-1.95,10.7,10.7,0,0,0,2.46-2,4.85,4.85,0,0,1,2.33-1.8c.94-.22.54-1.67-.4-1.45a5.25,5.25,0,0,0-2.56,1.71c-.38.41-.74.85-1.15,1.25a7.6,7.6,0,0,1-1.3.95,11.07,11.07,0,0,0-2.46,2,9.2,9.2,0,0,0-1,1.27,3.14,3.14,0,0,1-.85,1.06c-.81.52-.06,1.82.75,1.3Z"/><path class="cls-2" d="M24.7,165.24c1.5-3,4.68-4.33,7.56-5.59a.74.74,0,0,0,.27-1,.76.76,0,0,0-1-.27c-3.13,1.36-6.48,2.94-8.11,6.13-.44.85.86,1.61,1.3.75Z"/><path class="cls-2" d="M23.67,165.32a.75.75,0,0,0,0-1.5.75.75,0,0,0,0,1.5Z"/></svg>
