<svg id="Layer_1" data-name="Layer 1" xmlns="http://www.w3.org/2000/svg" width="130mm" height="180mm" viewBox="0 0 368.5 510.24"><defs><style>.cls-1{fill:#f6c8df;}.cls-2{fill:#d99cbd;}.cls-18,.cls-3{fill:#70c2b1;}.cls-10,.cls-4{fill:#419e86;}.cls-4{stroke:#419e86;stroke-width:0.5px;}.cls-15,.cls-18,.cls-4,.cls-9{stroke-miterlimit:10;}.cls-5{fill:#fce0a8;}.cls-6{fill:#f3d091;}.cls-7{fill:#91ccb7;}.cls-8,.cls-9{fill:#fff;}.cls-9{stroke:#c6c6c6;}.cls-11{fill:#5caf9c;}.cls-12{fill:#897c6d;}.cls-13{fill:#5a5757;}.cls-14{fill:#ed72a5;}.cls-15{fill:#fce0a7;stroke:#d3bfa0;}.cls-16{fill:#d3bfa0;}.cls-17{fill:#5baf9c;}.cls-18{stroke:#5caf9c;}</style></defs><path class="cls-1" d="M271.1,114.57a96.4,96.4,0,0,0-5.45-10.3,43.28,43.28,0,0,1-14.48-15.88c-3.38-6.43-4.7-13.59-6.23-20.66-.1-.06-.2-.1-.3-.15-12.06-6.95-24.6-11.71-32.18-23.37a30.62,30.62,0,0,1-5.14-2.12c-9.5-2-18.91-3.72-28.64-3.82l-.79-.05a8.7,8.7,0,0,1-7.12,8c-10.27,2.3-20.48,5-31,5.47h-.25c-1.85,9.42-10.3,13.9-18.41,17.38-1.22.52-2.45,1-3.68,1.49a9.23,9.23,0,0,1-1.1,7.8,34.88,34.88,0,0,1-8.48,8.53c-.52.38-.94.69-1.3,1-.38,2.43-.66,4.88-.81,7.34-.46,8.21,1.89,16.9-.3,24.86a9.54,9.54,0,0,1-12.59,6.9l-8.3,92.52c0,2.77,10.46,1.57,13.11,1.57H269.33c2.65,0,11.71.34,11.71-2.43l-6.89-88.71C269.13,126.9,268.12,119.39,271.1,114.57Z"/><path class="cls-2" d="M267,213.46q-.74-30.21-3.7-60.29c-.16-1.59-2.66-1.61-2.5,0q3,30.06,3.7,60.29a1.25,1.25,0,0,0,2.5,0Z"/><path class="cls-2" d="M252.9,213a284.7,284.7,0,0,0-1.62-39.6c-.18-1.58-2.68-1.6-2.5,0A284.7,284.7,0,0,1,250.4,213c-.05,1.61,2.45,1.61,2.5,0Z"/><path class="cls-2" d="M238.71,213l.64-21.8c.05-1.61-2.45-1.6-2.5,0l-.64,21.8c-.05,1.6,2.45,1.6,2.5,0Z"/><path class="cls-2" d="M128.85,210.78c-.48-3.72-1.08-7.45-1.29-11.2a20.59,20.59,0,0,1,1.63-10.41c.72-1.43-1.44-2.7-2.16-1.26-3.52,7.09-1.64,15.4-.68,22.87.2,1.58,2.7,1.6,2.5,0Z"/><path class="cls-2" d="M114.35,213.86c2.56-14.23-3-29.06,1.59-43,.5-1.53-1.92-2.18-2.42-.66-4.59,14,1,28.76-1.58,43-.28,1.57,2.13,2.24,2.41.66Z"/><path class="cls-2" d="M101.81,213.2c.38-10.34.76-20.69.75-31q0-7.68-.35-15.34a78.35,78.35,0,0,1,.34-15.39c.24-1.58-2.17-2.25-2.41-.67a77.76,77.76,0,0,0-.46,15.33c.22,5.19.36,10.38.38,15.57,0,10.52-.36,21-.75,31.54-.06,1.61,2.44,1.61,2.5,0Z"/><path class="cls-3" d="M232.8,354.94c2.92.81,7.29,1.51,9.61-1,2.63-2.81,0-6.64-2.17-8.79l-2.43,4.18c1.43.45,2.28,3.24,1.8,4.52l.65-1.1a2.58,2.58,0,0,1,.35-.09,2.57,2.57,0,0,0-.68,0c-.7-.05-1.4-.11-2.08-.2a22.3,22.3,0,0,1-3.72-.85c-2.51-.77-4.95-1.64-7.52-2.2a51.21,51.21,0,0,0-16.05-.94,2.57,2.57,0,0,0-2.5,2.5,2.53,2.53,0,0,0,2.5,2.5,46.49,46.49,0,0,1,12,.24c4.07.65,7.82,2.15,11.8,3.15,3.25.82,10.07,2.26,10.36-2.88.22-3.92-1.59-8.21-5.54-9.45-2.4-.75-4.19,2.47-2.44,4.18a9.17,9.17,0,0,1,1.41,1.7s.45.85.44.85.2-.87.34-.76-.88.13-.83.12a10.75,10.75,0,0,1-1.39,0,12.26,12.26,0,0,1-2.54-.49c-3.1-.86-4.43,4-1.33,4.83Z"/><rect class="cls-4" x="162.44" y="440.62" width="24.12" height="11.68" rx="4.25" transform="translate(-101.16 54.3) rotate(-13.76)"/><ellipse class="cls-3" cx="191.47" cy="467.29" rx="35.8" ry="26.88" transform="translate(-312.5 499.49) rotate(-71.37)"/><rect class="cls-5" x="65.23" y="237.25" width="23.27" height="145.05" rx="9.08" transform="translate(158.28 1.17) rotate(28.72)"/><ellipse class="cls-5" cx="31.42" cy="370.67" rx="26.64" ry="14.97"/><rect class="cls-5" x="259.75" y="214.74" width="23.27" height="77.67" rx="11.63" transform="translate(621.38 129.31) rotate(117.4)"/><rect class="cls-5" x="299.93" y="203.45" width="23.27" height="77.67" rx="11.63" transform="translate(432.56 617.96) rotate(-145.72)"/><ellipse class="cls-5" cx="325.29" cy="196.01" rx="17.47" ry="26.31" transform="translate(-52.03 152.9) rotate(-24.55)"/><path class="cls-3" d="M230.42,255.72c-1.47-5.07-5.63-8.88-9.89-12s-8.91-5.91-12.16-10.07-4.78-10.24-2-14.75c2.08-3.4,6.07-5.15,10-6a36.05,36.05,0,0,1,22.42,2.2c8,3.54,14.73,10,23.31,11.52a62.09,62.09,0,0,1-30.44,29.12"/><rect class="cls-3" x="142.32" y="217.84" width="66.87" height="83.88" rx="12"/><ellipse class="cls-3" cx="183.49" cy="329.01" rx="56.12" ry="53.31"/><path class="cls-6" d="M208.73,363l-1,1c-4.68,4.36-11.73,10.52-7.37,15.2l32.62,29a11.67,11.67,0,0,0,16.44.58l1-1a11.67,11.67,0,0,0,.58-16.44l-25.83-27.74A11.67,11.67,0,0,0,208.73,363Z"/><rect class="cls-6" x="213.29" y="382.32" width="23.27" height="77.67" rx="11.63" transform="translate(130.8 889.24) rotate(-140.53)"/><ellipse class="cls-6" cx="196.91" cy="463.2" rx="28.08" ry="18.64" transform="translate(-304.92 501.87) rotate(-71.37)"/><path class="cls-3" d="M209.53,217.85A240.61,240.61,0,0,0,138,214l16.67,3.87a14.3,14.3,0,0,1-8.8.11l45.37,2.1c-13.08-3.59-26.85-3.54-40.41-3.47a294,294,0,0,1,54.27,2.6,61.45,61.45,0,0,0-8-.49,43.64,43.64,0,0,0,18.65-.78,67.55,67.55,0,0,0-40.63-5.54"/><path class="cls-3" d="M201.76,212.13c-8.62-5.79-19.58-7.21-29.9-6s-20.18,4.77-29.93,8.32c7.75-2.93,15.63-5.9,23.88-6.64s17.1,1,23.3,6.49a51.86,51.86,0,0,0-12.24-2q15.21,1,30.34,2.83a49.43,49.43,0,0,1-9-3.61,19.79,19.79,0,0,0,8.07,2.86c-8.42-6.84-19.66-9.58-30.5-9.18s-21.39,3.72-31.4,7.91c3.51-6.42,11.81-8.18,19.1-8.85,10.28-.95,20.78-1.08,30.81,1.4s19.61,7.78,25.75,16.09"/><path class="cls-7" d="M162.44,208.61l2.67.58-1.75-3.07a6.7,6.7,0,0,0,4.34,7.6l.66-4.91-7.41-.07v5h8.18a2.5,2.5,0,0,0,0-5l-1.78,0,.66,4.91c.67-.15,1.34-.28,2-.38.31,0,.34,0,.78-.1l1-.08a29.86,29.86,0,0,1,4.23,0v-5l-3.84,0a2.53,2.53,0,0,0-2.16,3.76c1.49,2.77,5.53,1,5.44-1.78A3,3,0,0,0,173,207.2a4.58,4.58,0,0,0-3.89,1.36l1.76-.73c-4.42-.11-5.71,6.81-1.49,8.23a4.07,4.07,0,0,0,4.83-2.1,4.17,4.17,0,0,0-1.26-5.51,2.5,2.5,0,0,0-3.42.9,2.58,2.58,0,0,0,.89,3.42,1.41,1.41,0,0,1-.49-.48c-.14-.4-.18-.46-.1-.21l-.05-.39c0,.27,0,.2.05-.23-.09.56-.09,0,.06,0a1.74,1.74,0,0,1-.15.26c.25-.3.29-.35.11-.16s.4-.22.51-.26c-.35.11.47,0,.63.05-.26-.08-.2-.05.2.09a1.33,1.33,0,0,1,.51.54c-.22-.38.15.58,0,.11s.07.64,0,.12-.18.58,0,0q.09-.27-.12.27a1.49,1.49,0,0,1,.14-.24c-.25.3-.31.38-.18.25s0-.08-.25.18c.48-.33-.9.38-.56.15a2.35,2.35,0,0,0,.74-.09,2.5,2.5,0,0,0,1.1-.64c-.16.11-.17.11,0,0s.14-.09-.06,0c-1.84-.76-2.48-1.71-1.9-2.85.73-.57.91-.77.55-.6l1.26-.34.49.07,1.11.64.26.34-2.16,3.76,3.84,0a2.53,2.53,0,0,0,2.5-2.5,2.56,2.56,0,0,0-2.5-2.5,31.42,31.42,0,0,0-9.37.7,2.5,2.5,0,0,0,.67,4.91l1.78,0v-5H161a2.5,2.5,0,0,0,0,5l7.41.07a2.5,2.5,0,0,0,2.46-2.17A2.54,2.54,0,0,0,169,208.9c.53.2,0,0-.13-.1-.39-.21.11.17-.06,0a3,3,0,0,0-.35-.36c.35.35,0,0-.08-.16s-.23-.57-.13-.25,0-.21-.06-.28c-.16-.53,0,.43,0-.13,0-.15.09-.74,0-.14a2.55,2.55,0,0,0-1.74-3.08l-2.67-.58a2.5,2.5,0,0,0-1.33,4.82Z"/><path class="cls-3" d="M196.41,495.54a34,34,0,0,0-12.14,11.1,3.9,3.9,0,0,1-1.31,1.42c-1.05.54-2.31,0-3.31-.67a25.5,25.5,0,0,1-10.8-26.77"/><path class="cls-3" d="M171.49,492.28l7.38,4.64a11.58,11.58,0,0,1,2,1.51,11.28,11.28,0,0,1,2,3.18,23.62,23.62,0,0,1-10.1-5.34,59.69,59.69,0,0,1,9.32,7.12,22,22,0,0,0-5.26-2.64,2.73,2.73,0,0,0,1.85,1.39,2.83,2.83,0,0,1,1.15-2.92"/><path class="cls-7" d="M168.11,484.56c3.22,0,3.22-5,0-5s-3.22,5,0,5Z"/><path class="cls-7" d="M168.22,484.56c3.22,0,3.22-5,0-5s-3.22,5,0,5Z"/><path class="cls-3" d="M175.68,502.56,172.56,499a10.71,10.71,0,0,1-1.14-1.47,9.8,9.8,0,0,1-.91-2.34,4.83,4.83,0,0,0,1.34,2.78,8.75,8.75,0,0,1-1.57-3.23,5,5,0,0,0,.77,3.11,20.93,20.93,0,0,1-3-10.28"/><path class="cls-3" d="M170.89,496l1,.7a18.91,18.91,0,0,1-2.49-3.66,11.4,11.4,0,0,0,2.56,5.58c-1.59-.83-2.41-2.62-3.07-4.3A53.7,53.7,0,0,1,165.38,482a34.92,34.92,0,0,1,4.54-22.39"/><path class="cls-3" d="M182.15,506.36a1.52,1.52,0,0,0,1.81.41,5.69,5.69,0,0,0,1.61-1.2c3.94-3.62,9.56-4.86,13.68-8.27a32.69,32.69,0,0,0,4.55-5l3.76-4.74a5.12,5.12,0,0,1-1.18,2.15c-4.8,6-11.63,10.07-18.3,13.95a18.73,18.73,0,0,0-4.83,3.55"/><path class="cls-3" d="M183.38,508.07A86.74,86.74,0,0,0,200.05,497c3.46-2.93,6.8-6.31,8.19-10.62"/><path class="cls-3" d="M149,220.25a6.37,6.37,0,0,0,3.63-2.81,2.55,2.55,0,0,0-1.49-3.68c-.5-.17-.54-.68-.51-1.12l-2.5,2.5a5.26,5.26,0,0,1,3.56,1,2.5,2.5,0,0,0,3.53-3.53c-3.28-4-9.53-3.15-12.42.73-1.06,1.43.35,4,2.16,3.76,3.7-.49,7.35,1.38,11,1.9a37.77,37.77,0,0,0,11.91-.17,2.48,2.48,0,0,0,1.79-2.74,2.52,2.52,0,0,0-2.46-2.17,28.38,28.38,0,0,0-4.79,0c-3.15.3-3.27,4.88,0,5l24.11.84,12.17.43c1,0,2.72-.26,3.56.4.6.47.93,1.35,1.53,1.87a4.49,4.49,0,0,0,2.88,1.12,3.54,3.54,0,0,0,3.52-2.87,4.83,4.83,0,0,0-2.33-4.84c-2.72-1.78-6.53-1.37-9.62-1.36-7.69,0-15.38.41-23.07.14a84.6,84.6,0,0,1-12.61-1.28c-4.24-.81-8.43-2.31-12.77-1.3-3.13.74-1.81,5.56,1.33,4.82s6.53.6,9.64,1.21a86.2,86.2,0,0,0,10.12,1.32c6.86.5,13.75.3,20.62.17,3.53-.07,7-.13,10.58-.05a7.94,7.94,0,0,1,2.73.34c-.09,0,.76.34.48.29,0,0,0-.08,0-.08l1.4-1.51c.22-.05.37,0,.43.15a6.69,6.69,0,0,0-.53-.67,6.11,6.11,0,0,0-4-2.63,43.06,43.06,0,0,0-5.33-.29l-10.43-.37-24.36-.85v5a28.38,28.38,0,0,1,4.79,0l-.66-4.91a30.8,30.8,0,0,1-10.62,0c-3.62-.67-7.19-2.35-10.94-1.86l2.16,3.77c1-1.39,3.46-1.06,4.57.27l3.53-3.53a10.44,10.44,0,0,0-7.09-2.44,2.55,2.55,0,0,0-2.5,2.5,6,6,0,0,0,4.18,6l-1.5-3.68a1,1,0,0,1-.64.52c-3.06.95-1.75,5.78,1.33,4.82Z"/><path class="cls-3" d="M210.58,212.84c-9.93-1.33-19.94-.53-29.9-.19q-7.4.25-14.79.23c-2.46,0-4.93,0-7.39-.11-1.32,0-2.63-.07-3.94-.12l-2-.07-1,0c-.69-.1-.66,0,.1.25l.64,1.1a11.7,11.7,0,0,1,.35-2.31,2.56,2.56,0,0,0-1.74-3.07,6.1,6.1,0,0,0-3.49,0c-3.11.82-1.79,5.65,1.33,4.82.39-.11.37-.1.83,0l-1.75-3.08c-.32,2.06-1.23,4.65.51,6.3,1.53,1.46,4.48,1,6.42,1.11q6.78.24,13.56.22c9,0,18-.61,27.06-.77a101.1,101.1,0,0,1,15.16.73c1.34.18,2.5-1.28,2.5-2.5a2.56,2.56,0,0,0-2.5-2.5Z"/><path class="cls-3" d="M143.18,214.39a2.67,2.67,0,0,0,.49,0,5,5,0,0,0,2.17-.56,2.7,2.7,0,0,0,.44-.24,1.87,1.87,0,0,0,.7-.64,1.83,1.83,0,0,0,.44-.85,1.89,1.89,0,0,0,.05-1,1.86,1.86,0,0,0-.3-.93l-.39-.5a2.52,2.52,0,0,0-1.1-.65l-.67-.09a2.54,2.54,0,0,0-1.26.35,3.37,3.37,0,0,1-.46.25l.59-.26a3,3,0,0,1-.71.2l.66-.09a2.83,2.83,0,0,1-.65,0,1.8,1.8,0,0,0-1,.21,1.82,1.82,0,0,0-.8.52,1.85,1.85,0,0,0-.52.8,1.89,1.89,0,0,0-.21,1l.09.66a2.5,2.5,0,0,0,.64,1.1l.51.39a2.54,2.54,0,0,0,1.26.35Z"/><path class="cls-3" d="M173.63,484c-.32-1-.4-2.07-.63-3.11a23.46,23.46,0,0,0-.9-3.07,2.65,2.65,0,0,0-1.15-1.5,2.51,2.51,0,0,0-3.42.9,2.47,2.47,0,0,0-.25,1.93,23.46,23.46,0,0,1,.9,3.07c.23,1,.3,2.11.63,3.11a2.5,2.5,0,0,0,3.08,1.75,2.53,2.53,0,0,0,1.49-1.15,2.5,2.5,0,0,0,.25-1.93Z"/><path class="cls-3" d="M189.93,502.66a5.6,5.6,0,0,0,0-2.27l-1.75,3.07-.17,0v-4.82a6.7,6.7,0,0,0-2.27,1.2,12.64,12.64,0,0,1-1.12,1,19.75,19.75,0,0,0-2,1,8,8,0,0,0-1.84,1.88c-1.3,1.78.86,4.31,2.83,3.68l1.5-.49a2.5,2.5,0,0,0,1.79-2.74,2.47,2.47,0,0,0-2.45-2.17,4.49,4.49,0,0,0-2.89,1.36l-.17.16q-.28.27-.09.09c-.17-.61,2,.56,1.56-.23-.23-.39-.93-.79-1.27-1.11-1.77-1.64-3.39-3.44-5-5.19a10.1,10.1,0,0,1-2-2.35,13.37,13.37,0,0,1-.92-3,21,21,0,0,1-.34-6.8,2.52,2.52,0,0,0-2.5-2.5,2.55,2.55,0,0,0-2.5,2.5,25.33,25.33,0,0,0,.56,8.32,16.67,16.67,0,0,0,1.46,4.17,16.43,16.43,0,0,0,2.69,3.2c1.87,2,3.68,4,5.74,5.81,1.19,1,2.49,2.18,4.18,1.79a3.91,3.91,0,0,0,1.66-.87,5.43,5.43,0,0,0,.51-.46l.17-.16a1.09,1.09,0,0,1-.82.27l-.67-4.91-1.5.49,2.82,3.67c.36-.49,1.29-.66,2-1.06s1.42-1.45,2.21-1.71a2.57,2.57,0,0,0,1.84-2.41,2.51,2.51,0,0,0-1.84-2.41,7.18,7.18,0,0,0-2.49,0c-1.44.21-1.92,1.88-1.74,3.08l0-.38c-.74,3.12,4.08,4.46,4.82,1.32Z"/><path class="cls-3" d="M178.42,499.39a8,8,0,0,1-.61-.7l.4.5a17.29,17.29,0,0,1-2.05-3.75l.25.59a4,4,0,0,1-.26-.83l.09.67v-.1a2.83,2.83,0,0,0-.74-1.77,2.5,2.5,0,0,0-3.53,0,2.39,2.39,0,0,0-.73,1.77,5.37,5.37,0,0,0,.27,1.37c.16.42.34.84.53,1.25s.45,1,.7,1.48a14.18,14.18,0,0,0,2.15,3.06,2.5,2.5,0,0,0,3.54-3.54Z"/><path class="cls-3" d="M164.52,483c1,3.12,3.1,5.65,4.19,8.69s1.84,6.3,3.66,9.13a19.36,19.36,0,0,0,6.66,6.59,5.07,5.07,0,0,0,5,.14,4,4,0,0,0,1.87-4.64,2.55,2.55,0,0,0-3.07-1.74,2.52,2.52,0,0,0-1.75,3.07c-.13-.38.59-1.14.61-1.1-.1-.2-.82-.49-1-.65a15.37,15.37,0,0,1-2.27-2.07,16.06,16.06,0,0,1-3.24-5.22c-.88-2.38-1.43-4.86-2.54-7.16-1-2.14-2.51-4.08-3.22-6.37-1-3.06-5.77-1.75-4.82,1.33Z"/><path class="cls-3" d="M141.24,360c-6.63,3.92-14.54,5.14-20.89,9.59-2.6,1.83-7.28,5.31-5.79,9,1.39,3.45,5.83,3.26,8.73,2.22,3.2-1.16,5.94-3.29,9.14-4.41a9.85,9.85,0,0,1,8,.71c2.78,1.39,5.27,3.26,8,4.78a19.74,19.74,0,0,0,10.13,2.9c8.95-.14,18.19-3.67,25.62-8.47,2.69-1.75.19-6.08-2.52-4.32a49.77,49.77,0,0,1-19.9,7.52,15.29,15.29,0,0,1-9.11-1.05c-2.54-1.22-4.85-2.88-7.26-4.33a21.1,21.1,0,0,0-8.37-3.24,15.66,15.66,0,0,0-8.87,2c-2.56,1.27-5.07,3.14-7.94,3.63-.4.07-.68-.09-1.06-.05,0,0-.07-.12-.09,0,0,0,.4,1.09.15,1,.07,0,1.2-1.44,1.33-1.56a17.72,17.72,0,0,1,1.89-1.68c6.33-4.8,14.6-5.94,21.37-9.94,2.77-1.64.26-6-2.52-4.32Z"/><path class="cls-3" d="M156.09,376.4l1.11.87a1.77,1.77,0,0,0,.8.52,2.23,2.23,0,0,0,1.93,0,1.77,1.77,0,0,0,.8-.52l.39-.5a2.43,2.43,0,0,0,.34-1.26l-.09-.67a2.41,2.41,0,0,0-.64-1.1l-1.1-.88a2.75,2.75,0,0,0-1.77-.73,2,2,0,0,0-1,.21,2,2,0,0,0-.81.52l-.39.51a2.53,2.53,0,0,0-.34,1.26l.09.66a2.53,2.53,0,0,0,.64,1.11Z"/><path class="cls-3" d="M157.49,377.21l2.38,1.17,1.26-4.66a7.69,7.69,0,0,1-3.7-.59,2.57,2.57,0,0,0-3.42.9,2.52,2.52,0,0,0,.89,3.42,19.58,19.58,0,0,0,8.65,2.12l-.66-4.91c-4.44,1.44-8.91-.56-12.82-2.6-1.32-.68-3.34-1.43-4.2-2.74-.37-.57-.2-1.12-.24-1.79a4,4,0,0,0-1.19-2.93c-2-1.84-5.32-.18-7.54.46s-4.41,1.31-6.59,2a81.11,81.11,0,0,0-13.64,5.8,2.54,2.54,0,0,0-.9,3.42c1.55,2.53,4.46,2.18,6.78,1a30.44,30.44,0,0,1,7-2.62c5.14-1.16,10.46-1.4,15.49-3a2.52,2.52,0,0,0,1.75-3.07c-1.11-3.28-6.22-2-5.29,1.38a3,3,0,0,0,3.06,2.16,2.93,2.93,0,0,0,1.26-.34c1-.54-.55.12-.54-.07,0,.2,1.18,1,1.2,1,1.82,1.11,4.73.86,5.56-1.39,1-2.69-1.83-5-4.36-4.91-3.2.15-3.24,5,0,5a3.93,3.93,0,0,0,3-1.28,2.58,2.58,0,0,0,0-3.53,4,4,0,0,0-2.86-1.34l.67,4.91,3.9-.89c3.14-.72,1.81-5.54-1.33-4.82l-3.9.89a2.48,2.48,0,0,0-1.79,2.74,2.56,2.56,0,0,0,2.45,2.17l-.68-.13v-3.53l.54-.19v5c.43,0,.43,0,0-.08-.25-.32-.27-.3-.05.06l-.35-1.26,0,.23.34-1.26a8.7,8.7,0,0,1,1.42-.69c0-.15.32.45,0-.06a4.54,4.54,0,0,0-1.5-1.13c-1.48-.8-2.78-.4-4.22.24l1.27-.34h-.29l1.27.34-.25-.11.89.89-.11-.22v2.52l.07-.16-1.49,1.15.17-.07h-1.33l.17,0-1.74-1.75,0,.15,1.74-3.08c-4.37,1.41-8.94,1.78-13.44,2.6a33.83,33.83,0,0,0-6.4,1.73,26.15,26.15,0,0,0-3.22,1.49,6.69,6.69,0,0,1-.93.46c-.87.33-.1-.15.39.64l-.9,3.42a72.36,72.36,0,0,1,11.36-4.93c2-.67,3.93-1.28,5.91-1.88l3.09-.9a10,10,0,0,1,2.89-.74l-1.27-.34a5.29,5.29,0,0,1-.54-.89s0,.68,0,.76a7.53,7.53,0,0,0,.16,1.77,6.92,6.92,0,0,0,1.67,2.94c1.62,1.76,4,2.85,6.09,3.9,4.83,2.41,10.3,4.32,15.67,2.59a2.52,2.52,0,0,0-.67-4.92,13.83,13.83,0,0,1-6.12-1.44l-2.53,4.32a13.13,13.13,0,0,0,6.23,1.27c2.29-.13,3.64-3.49,1.26-4.66L160,372.9a2.56,2.56,0,0,0-3.42.89,2.52,2.52,0,0,0,.89,3.42Z"/><path class="cls-3" d="M140.48,361.32a17.46,17.46,0,0,0-7.7,1.75c-2.56,1.08-5.08,2.25-7.61,3.39-4.08,1.83-8.37,3.9-9.84,8.49l4.83,1.33c1.06-4.74,5.84-6.79,10.12-7.84a31.65,31.65,0,0,1,15.94-.08c3.11.85,4.44-4,1.33-4.82a37.07,37.07,0,0,0-19.44.3c-5.67,1.53-11.4,5-12.78,11.11a2.51,2.51,0,0,0,4.83,1.33c1-3.16,5.28-4.49,8-5.7,2.11-.95,4.21-1.92,6.33-2.84a13.54,13.54,0,0,1,6-1.42c3.22.15,3.21-4.85,0-5Z"/><path class="cls-3" d="M130,369.43c2.13-1.19,4.57-1.18,7-1.3a11.27,11.27,0,0,0,4.09-.59,3.32,3.32,0,0,0,2-4.07c-1-3.33-6.12-2.62-8.68-2.05a22.67,22.67,0,0,0-7.9,3.64,50.92,50.92,0,0,0-4,3.15c-1.47,1.24-3.12,2.31-3.31,4.37a2.51,2.51,0,0,0,2.5,2.5,2.55,2.55,0,0,0,2.5-2.5l0-.25-.34,1.26q-.16.26.21-.15l.52-.45,1-.91c.61-.53,1.23-1,1.86-1.55a27.28,27.28,0,0,1,4-2.69,15.92,15.92,0,0,1,4.39-1.64,10.59,10.59,0,0,1,2-.21,8.54,8.54,0,0,0,1.33.05l.12,0c-.53-.42-.66-.48-.39-.17l-.65-1.1c-.08-1,.21-1.65.89-1.84.13,0,.13,0,0,0s-.15,0,.11,0l-.32,0c-.53.05-1.06.07-1.59.1-1.07.05-2.14.09-3.21.18a16,16,0,0,0-6.65,1.82c-2.81,1.57-.29,5.89,2.52,4.31Z"/><path class="cls-3" d="M119.11,370.86l-.22.22a1.93,1.93,0,0,0-.51.81,2.58,2.58,0,0,0,.51,2.73l.51.39a2.43,2.43,0,0,0,1.26.34l.67-.09a2.5,2.5,0,0,0,1.1-.64l.22-.22a2,2,0,0,0,.52-.81,1.83,1.83,0,0,0,.21-1,1.88,1.88,0,0,0-.21-1,2,2,0,0,0-.52-.81l-.51-.39a2.53,2.53,0,0,0-1.26-.34l-.66.09a2.53,2.53,0,0,0-1.11.64Z"/><path class="cls-3" d="M116.15,374.68l0,.14,1.75-1.75-.16.07,1.92.25-.15-.07,1.15,1.49,0-.25v1.33a4.87,4.87,0,0,1,.69-1.16L117,372.21l-1.54,2.8,4.65,1.26a2.56,2.56,0,0,1,.89-1.56l-3.92-3-2.07,3.2,4.66,1.26c.15-2.07,2.08-4,3.57-5.29a17.69,17.69,0,0,1,5.51-3.12c5.11-1.83,10.59-1.83,15.95-1.84,3.22,0,3.22-5,0-5-6.4,0-13,.14-19,2.69-5.11,2.18-10.65,6.61-11.08,12.56-.19,2.62,3.41,3.2,4.66,1.26l2.06-3.2c1.58-2.44-1.91-4.95-3.92-3a7.78,7.78,0,0,0-2.36,5.1c-.23,2.52,3.52,3.34,4.66,1.27l1.55-2.81c1.57-2.85-2.52-5.16-4.32-2.52-1,1.45-2,3.54-.5,5s4.17.83,4.51-1.24a2.56,2.56,0,0,0-1.74-3.07,2.52,2.52,0,0,0-3.08,1.74Z"/><path class="cls-3" d="M128.07,364.71v.66a1.88,1.88,0,0,0,.22,1,1.83,1.83,0,0,0,.51.8,1.85,1.85,0,0,0,.81.52,1.88,1.88,0,0,0,1,.22l.67-.09a2.52,2.52,0,0,0,1.1-.65l.39-.5a2.43,2.43,0,0,0,.34-1.26v-.66a2,2,0,0,0-.21-1,2,2,0,0,0-.52-.8,1.85,1.85,0,0,0-.81-.52,1.76,1.76,0,0,0-1-.21l-.66.08a2.5,2.5,0,0,0-1.11.65l-.39.5a2.54,2.54,0,0,0-.34,1.27Z"/><path class="cls-3" d="M131,368.29c2.68-1,5.37-2.06,8-3.12,2.15-.86,4.61-2.15,5-4.7a2.66,2.66,0,0,0-.65-2.44,2.44,2.44,0,0,0-2.43-.64,87.32,87.32,0,0,0-13.79,7.12L130.8,366l-.07-.27v1.33c-.07.42-.53.5.24.19.51-.21,1-.4,1.55-.58,1-.35,2-.66,2.95-.95a51.1,51.1,0,0,1,6.25-1.34c2.4-.35,2.38-4.43,0-4.82-8.28-1.33-15.3,3.4-20.63,9.28l4.27,1.77c0-.77.74-1.37,1.28-1.87a17.46,17.46,0,0,1,2.52-1.92,18.27,18.27,0,0,1,5.92-2.38c4.2-.89,8.6-.87,11.87-4.07,2.3-2.25-1.23-5.79-3.54-3.53-1.43,1.4-3.43,1.76-5.35,2.08a39.62,39.62,0,0,0-6.75,1.38,23.07,23.07,0,0,0-6.57,3.54c-2.18,1.68-4.42,3.8-4.38,6.77,0,2.07,2.77,3.42,4.26,1.77,3.94-4.35,9.44-9,15.78-8v-4.82a48.59,48.59,0,0,0-8.43,2c-2.72.91-6.82,2.05-6,5.75a2.53,2.53,0,0,0,3.68,1.5,79.51,79.51,0,0,1,12.59-6.62l-3.08-3.07c-.09.29-.08.36,0,.2-.15.26-.18.31-.08.16a2.27,2.27,0,0,1-.67.48,19.6,19.6,0,0,1-2.38,1l-6.43,2.5a2.57,2.57,0,0,0-1.75,3.07,2.53,2.53,0,0,0,3.08,1.75Z"/><path class="cls-8" d="M199,359.12a3.71,3.71,0,0,1,1.27.36c.8-1.23,1.6-2.46,2.44-3.65.31-.42.62-.84.92-1.27-1.08.14-2.16.28-3.24.45l-.72.13a2.93,2.93,0,0,1,.05,1.72A19.87,19.87,0,0,1,199,359.12Z"/><path class="cls-9" d="M211.61,353.76c-1.79,2.45-3.58,4.89-5.31,7.38-2.76,4-5.06,8-8.63,11.31-3,2.86-6.37,5.68-10.42,7s-8.58,1.41-12.88,2.16a58.26,58.26,0,0,0,9.12.73c21.73,0,40.56-11.74,49.88-28.91A202.45,202.45,0,0,0,211.61,353.76Z"/><rect class="cls-10" x="288.23" y="431.2" width="24.12" height="11.68" rx="4.25" transform="translate(-189.29 640.74) rotate(-78.1)"/><ellipse class="cls-3" cx="326.48" cy="428.95" rx="27.24" ry="35.42" transform="translate(-211.76 458.63) rotate(-55.88)"/><path class="cls-5" d="M199.61,362.68l-.49,3.61a11.67,11.67,0,0,0,10,13.09L263,386.7a11.66,11.66,0,0,0,13.09-10l.49-3.61a11.67,11.67,0,0,0-10-13.09l-52.37-13.86C207.91,345.32,200.48,356.34,199.61,362.68Z"/><path class="cls-5" d="M258.73,365.7h0c-4.08,4.93-5.48,16.52-.55,20.6l44,30.49a11.68,11.68,0,0,0,16.38-1.54h0A11.67,11.67,0,0,0,317,398.87L275.1,364.16A11.66,11.66,0,0,0,258.73,365.7Z"/><path class="cls-3" d="M354.52,426.34l8.68,20.42a4.32,4.32,0,0,1,.48,1.8c-.06,2.05-2.61,2.86-4.61,3.25-5.06,1-10,2.68-15.1,3.18s-10.71-.4-14.44-3.95"/><path class="cls-3" d="M356.19,428.21c0-.07-.13,0-.11,0s.1.09.18.11a1.52,1.52,0,0,1,.93.91c.17.41.24.87.37,1.3a15.55,15.55,0,0,0,1.5,2.89c1.42,2.63,1.75,5.69,2.59,8.56.35,1.22.8,2.41,1.07,3.64a7.44,7.44,0,0,1,0,3.75"/><path class="cls-3" d="M358.85,447a66.67,66.67,0,0,1-24.76,5.87c-3.2.13-3.22,5.13,0,5a73.13,73.13,0,0,0,27.28-6.55,2.52,2.52,0,0,0,.9-3.42,2.57,2.57,0,0,0-3.42-.9Z"/><path class="cls-3" d="M353.68,428.56c-.75-.9-1-1-.79-.33a4.32,4.32,0,0,0,.17.71,10.23,10.23,0,0,0,.52,1.29c.32.72.72,1.4,1,2.15a19.49,19.49,0,0,1,1,4.6c.38,3.81.24,7.63.8,11.42a2.5,2.5,0,0,0,3.07,1.75,2.57,2.57,0,0,0,1.75-3.07c-.62-4.21-.26-8.48-1-12.68a20.82,20.82,0,0,0-1.86-5.7,21.84,21.84,0,0,1-.86-2.51,3.85,3.85,0,0,0-2.52-2.45,2.51,2.51,0,0,0-3.07,1.74,2.56,2.56,0,0,0,1.75,3.08Z"/><path class="cls-3" d="M350.63,449.55c-.13.12-.26.24-.4.35.15-.11.1-.08-.15.1l-.68.44a5.68,5.68,0,0,1-1.38.61c-.35.11-.7.19-1,.27s.13,0-.43.06-1.36.06-2,.06a64.5,64.5,0,0,1-8.57-.16,2.51,2.51,0,0,0-2.5,2.5,2.57,2.57,0,0,0,2.5,2.5,64.89,64.89,0,0,0,9.46.15,13.11,13.11,0,0,0,8.78-3.35,2.51,2.51,0,0,0,0-3.53,2.55,2.55,0,0,0-3.54,0Z"/><ellipse class="cls-5" cx="324.63" cy="421.28" rx="17.47" ry="26.31" transform="translate(-206.23 453.73) rotate(-55.88)"/><path class="cls-3" d="M227.93,344.54s1.5-.56,1.21-.54.3,0,.31,0-.48-.1-.6-.13l-1.32-.29c-.84-.19-1.69-.37-2.54-.52a16.21,16.21,0,0,0-5.72-.33,3.83,3.83,0,0,0-2.53,1.79,3.43,3.43,0,0,0,4.18,4.87,8.63,8.63,0,0,0,.94-.41l.26-.12c.26-.14-.16.08-.16.07s.53-.11.54-.14-.5,0-.2,0l.37,0a10,10,0,0,1,1.34.07c.3,0-.19,0-.19,0s.35.06.38.06l.7.11,3,.48a2.75,2.75,0,0,0,1.93-.25,2.58,2.58,0,0,0,1.15-1.5,2.53,2.53,0,0,0-1.75-3.07,50.12,50.12,0,0,0-6.07-.87,7.56,7.56,0,0,0-3.47.71l-.34.16c-.26.13-.23.11.07,0a1.57,1.57,0,0,1,1.44.42,1.6,1.6,0,0,1,.24,1.93,1.45,1.45,0,0,1-.53.54c.17-.09.15-.08-.06,0s-.23.1,0,0,.19,0-.24,0a3.05,3.05,0,0,0,.52,0q.72,0,1.44.09c.24,0,.49,0,.72.07-.63-.11.13,0,.26,0,.47.07,1,.16,1.42.26.95.19,1.89.4,2.84.61,1.48.33,2.82.51,4-.63a2.53,2.53,0,0,0,0-3.54,2.55,2.55,0,0,0-3.53,0Z"/><path class="cls-3" d="M230,344.45c-4.57-.7-9.45-.93-13.61,1.39s-8.06,4.72-12.09,7.08c-2.77,1.62-.26,5.95,2.53,4.31l11-6.46a10.59,10.59,0,0,1,4.79-1.73,27.64,27.64,0,0,1,6,.23,2.59,2.59,0,0,0,3.08-1.75,2.52,2.52,0,0,0-1.75-3.07Z"/><path class="cls-3" d="M242.74,348.15c-3-5.15-6.05-10.52-5.88-16.52a2.5,2.5,0,0,0-5,0c-.2,7,3.12,13.22,6.56,19a2.5,2.5,0,0,0,4.32-2.52Z"/><path class="cls-3" d="M188.06,375.67a3.15,3.15,0,0,0,.87.71,2.44,2.44,0,0,0,.28.14c.26.14.24.12-.07,0l-.65-1.11,0,.17v-1.32c.77-.83.85-1.06.26-.7l-.64.33-1,.5a9.31,9.31,0,0,1-2,.86A43.92,43.92,0,0,1,180,376q-2.79.31-5.6.48c-1.88.1-4.18-.15-5.66,1.25a2.5,2.5,0,0,0-.65,2.43,2.94,2.94,0,0,0,2.24,2.06,7.26,7.26,0,0,0,3.07-.24c1.55-.28,3.18,0,4.73-.42,2.06-.6,2.59-2.34,2.36-4.27a56.56,56.56,0,0,0-.93-5.61,2.51,2.51,0,0,0-3.07-1.74,2.55,2.55,0,0,0-1.75,3.07c.22,1,.42,2,.58,3,.06.42.12.83.17,1.25l.09.77c0,.44.06.32.16-.38l.89-.89c.28-.17,0,0-.19,0s-.4,0-.6,0c-.56,0-1.11,0-1.66.05a14.63,14.63,0,0,0-1.75.19,3.21,3.21,0,0,0-.89.2c-.33.18-.32-.23.27.18l1.14,1.49,0-.13-.65,2.44.13-.13-1.1.65a9.74,9.74,0,0,1,3.1-.31c1.21-.07,2.41-.16,3.61-.28,2.54-.24,5.08-.56,7.6-1a18.12,18.12,0,0,0,6.1-2.57,3.15,3.15,0,0,0,1.59-3.49,3.06,3.06,0,0,0-1.28-1.71,3.7,3.7,0,0,0-.33-.21l-.27-.14.13.07a2.51,2.51,0,0,0-3.53,0,2.56,2.56,0,0,0,0,3.54Z"/><circle class="cls-9" cx="203.68" cy="367.44" r="5.3"/><circle class="cls-9" cx="195.44" cy="373.56" r="5.3"/><circle class="cls-9" cx="228.07" cy="347.64" r="5.3"/><circle class="cls-9" cx="210.9" cy="359.48" r="5.3"/><circle class="cls-9" cx="218.12" cy="351.78" r="5.3"/><path class="cls-3" d="M193.28,371.45l0,.06c.14.18.28.38.44.55l0,.05c.18.15.37.29.56.43l.05,0a6.65,6.65,0,0,0,.66.28l.13,0a2,2,0,0,0,1,.05,2,2,0,0,0,.93-.3,2.87,2.87,0,0,0,1.15-1.5l.09-.66a2.54,2.54,0,0,0-.35-1.26l-.39-.51a2.5,2.5,0,0,0-1.1-.64l-.13,0,.59.25-.13-.07.51.39-.11-.11.39.5,0-.07a2.8,2.8,0,0,0-1.49-1.15,2,2,0,0,0-1,0,1.86,1.86,0,0,0-.93.3l-.5.39a2.41,2.41,0,0,0-.64,1.1l-.09.67a2.43,2.43,0,0,0,.34,1.26Z"/><path class="cls-3" d="M195.3,373h0l.34.05.35.05h.11a5.93,5.93,0,0,0,.72-.1,2.8,2.8,0,0,0,1.49-1.15,1.71,1.71,0,0,0,.3-.93,1.85,1.85,0,0,0,0-1l-.26-.6a2.56,2.56,0,0,0-.89-.9l-.6-.25a2.5,2.5,0,0,0-1.33,0h0l.67-.09H196l.66.09h0a1.89,1.89,0,0,0-1-.05A2.26,2.26,0,0,0,194,369a2,2,0,0,0-.45.85l-.08.67a2.43,2.43,0,0,0,.34,1.26l.39.51a2.5,2.5,0,0,0,1.1.64Z"/><path class="cls-3" d="M198.3,372.66l.58-.54a5.3,5.3,0,0,0,.53-.53,4.52,4.52,0,0,0,.55-.75,4.28,4.28,0,0,0,.2-.44c.06-.15.13-.29.18-.45a5.1,5.1,0,0,0,.15-.7,1.85,1.85,0,0,0,0-1,1.77,1.77,0,0,0-.3-.93,1.8,1.8,0,0,0-.64-.7,1.89,1.89,0,0,0-.85-.45l-.66-.09a2.54,2.54,0,0,0-1.27.34l-.5.39a2.5,2.5,0,0,0-.65,1.11,3.54,3.54,0,0,1-.2.84l.25-.59a2,2,0,0,1-.22.37l.39-.51a4.34,4.34,0,0,1-.52.53l-.6.55a1.93,1.93,0,0,0-.51.81,1.88,1.88,0,0,0-.22,1,1.86,1.86,0,0,0,.22,1,1.93,1.93,0,0,0,.51.81l.51.39a2.43,2.43,0,0,0,1.26.34l.67-.09a2.5,2.5,0,0,0,1.1-.64Z"/><path class="cls-3" d="M200,370.9a180.78,180.78,0,0,1,23.22-24c1.33-1.14.72-3.91-1.1-4.18-3.29-.48-6.14-.27-8.87,1.8-2.26,1.72-4.51,3.48-6.67,5.33a42.64,42.64,0,0,0-10.65,12.66,2.5,2.5,0,0,0,4.32,2.53,160.15,160.15,0,0,1,13.2-17.89c2.06-2.42-1.23-5.84-3.54-3.53a23.1,23.1,0,0,1-11.53,6.24c-3.15.69-1.82,5.51,1.33,4.83a27.91,27.91,0,0,0,13.74-7.54l-3.54-3.53a171.93,171.93,0,0,0-14,18.89l4.32,2.53a37.47,37.47,0,0,1,9-10.88c1.78-1.56,3.63-3,5.5-4.5a12.19,12.19,0,0,1,2.86-2,6.45,6.45,0,0,1,3.21-.14l-1.11-4.18a181.41,181.41,0,0,0-23.22,24,2.59,2.59,0,0,0,0,3.54,2.53,2.53,0,0,0,3.54,0Z"/><path class="cls-3" d="M176.64,381.39c2.58.39,5.37-.22,7.91-.71,1.14-.21,2.2-.68,3.34-.9a9.93,9.93,0,0,0,3.35-1.43c2-1.27,4.51-3.07,4.86-5.64s-2.17-5-4.29-6.18a2.5,2.5,0,0,0-2.53,4.32,5.76,5.76,0,0,1,1.64,1.34c.06.06.45.41.17.15.21.19,0,.23.07,0a3.77,3.77,0,0,0,0-.44c0-.07-.12.17-.2.28s-.1.15,0,0l-.17.2-.47.46-.4.34c-.13.11-.13.11,0,0l-.22.16c-.71.46-1.41.92-2.15,1.32-.36.2.26-.06-.13.07a4.8,4.8,0,0,1-.63.15,9.44,9.44,0,0,0-1.17.27,18,18,0,0,1-2.73.73c-.76.14-1.8.31-2.42.39l-1.55.17-.55,0s-.79,0-.42,0a2.57,2.57,0,0,0-3.08,1.74c-.27,1.19.36,2.87,1.75,3.08Z"/><path class="cls-3" d="M197.84,372.74a3.86,3.86,0,0,0,1.4-.81,1.29,1.29,0,0,0,.16-.17,4.51,4.51,0,0,0,.49-.66,5,5,0,0,0,.56-2.27c0-.88.05-1.76.07-2.64a2.61,2.61,0,0,0-.73-1.77,2.57,2.57,0,0,0-1.77-.73,2.53,2.53,0,0,0-1.77.73,2.61,2.61,0,0,0-.73,1.77l0,1.55c0,.5,0,1-.06,1.51l.09-.66a2.18,2.18,0,0,1-.14.48l.26-.6-.15.26.39-.51a1.39,1.39,0,0,1-.21.21l.51-.39a.84.84,0,0,1-.21.11l.6-.25-.05,0a2.7,2.7,0,0,0-1.5,1.15,2.6,2.6,0,0,0-.25,1.93,2.53,2.53,0,0,0,1.15,1.49,2.46,2.46,0,0,0,1.93.25Z"/><path class="cls-3" d="M191.34,373.35a5.51,5.51,0,0,0,.72-.73,8.72,8.72,0,0,0,.95-1.33,2.51,2.51,0,0,0-2.15-3.77h-.45a1.89,1.89,0,0,0-1,.21,1.85,1.85,0,0,0-.8.52,1.82,1.82,0,0,0-.52.8,1.8,1.8,0,0,0-.21,1l.08.66a2.46,2.46,0,0,0,.65,1.1l.5.4a2.54,2.54,0,0,0,1.27.34h.45l-2.16-3.76a5.64,5.64,0,0,1-.46.7l.39-.5a6.67,6.67,0,0,1-.82.86,1.85,1.85,0,0,0-.52.8,2.32,2.32,0,0,0,0,1.93,1.92,1.92,0,0,0,.52.8l.51.39a2.43,2.43,0,0,0,1.26.34l.66-.09a2.45,2.45,0,0,0,1.1-.64Z"/><path class="cls-3" d="M233.06,340.87l0,.15-.09-.66a21.71,21.71,0,0,1-.06,4.34,14.2,14.2,0,0,0,.35,4.82,2.5,2.5,0,1,0,4.82-1.33,10.4,10.4,0,0,1-.23-1.08l.09.66a18.45,18.45,0,0,1,0-3.86,19.36,19.36,0,0,0-.11-4.37,2.54,2.54,0,0,0-1.15-1.5,2.6,2.6,0,0,0-1.93-.25,2.53,2.53,0,0,0-1.49,1.15,2.91,2.91,0,0,0-.26,1.93Z"/><path class="cls-3" d="M196.21,370.44c6.49-3.15,11.43-8.52,16.45-13.56,4.74-4.77,10-9.5,16.74-11,2.71-.6,2.17-5.16-.66-4.91a44.87,44.87,0,0,0-32.22,18.14l4.32,2.53a30.14,30.14,0,0,1,6-8.47c2.64-2.48,6.2-3.48,8.82-5.95a2.55,2.55,0,0,0,.39-3c-2.14-4.4-8.77.14-11.08,2.1a19.1,19.1,0,0,0-6.15,10c-.57,2.35,2.41,4.31,4.18,2.44l7.49-8-3.92-3-4.29,5.79a2.49,2.49,0,0,0,.64,3.23,2.54,2.54,0,0,0,3.28-.2l3.3-2.86L206,350.16A52.27,52.27,0,0,0,197.49,361l4.57,1.93c1.77-4.69,5.63-8.29,9.9-10.74a40.39,40.39,0,0,1,7.6-3.31c1.35-.45,2.72-.88,4.1-1.21a4.67,4.67,0,0,1,1.18-.17s.68,0,.46,0c.17,0,.36.41,0-.13l1.49-3.68a43.86,43.86,0,0,0-21.25,12.19c-3,3.12-5.22,6.8-7.83,10.23a23.35,23.35,0,0,1-9.46,7.61,2.58,2.58,0,0,0-1.74,3.07,2.51,2.51,0,0,0,3.07,1.75,28,28,0,0,0,10.71-7.7c2.76-3.28,4.87-7,7.71-10.25a39,39,0,0,1,20.12-12.07,2.52,2.52,0,0,0,1.5-3.68c-2.22-3-5.65-2.5-8.85-1.58a53.63,53.63,0,0,0-10.16,4c-6,3.14-10.94,8-13.34,14.36-1,2.7,3.16,4.31,4.56,1.93a47.6,47.6,0,0,1,7.71-9.82c2.32-2.27-1.13-5.62-3.54-3.53L202.68,353l3.93,3,4.28-5.79c1.7-2.3-2-5.07-3.92-3l-7.5,8,4.18,2.43a14.3,14.3,0,0,1,3.66-6.63,14,14,0,0,1,2.93-2.33,15,15,0,0,1,1.78-.92c.25-.1.53-.15.77-.27.58-.28-.41-.2.13,0l-1.1-.65-.08-.09.39-3a23,23,0,0,1-4.55,2.74,23.61,23.61,0,0,0-4.55,3.47,35.2,35.2,0,0,0-6.51,9.21,2.5,2.5,0,0,0,4.32,2.53A39.38,39.38,0,0,1,228.74,346l-.67-4.91c-7.16,1.56-13,6.36-18.08,11.39s-9.8,10.49-16.3,13.65a2.52,2.52,0,0,0-.9,3.42,2.56,2.56,0,0,0,3.42.9Z"/><path class="cls-3" d="M240,347.9a13.06,13.06,0,0,1-.77-1.3c-.14-.25-.26-.5-.38-.76s-.25-.6-.09-.19a16.74,16.74,0,0,1-.86-3c0-.24-.09-.48-.13-.73.09.61,0-.16,0-.28,0-.5-.06-1-.06-1.49s0-1,.09-1.5l0-.32c0,.31,0,.32,0,0s.1-.57.16-.85h-4.82c.06.23.11.45.16.68s.07.31.1.46.05.31,0,.13,0,.39,0,.48a5.49,5.49,0,0,1,0,.81l4.65-1.26c.22.45,0-.14-.06-.23s0-.67-.05-.2c0-.21,0-.44,0-.66,0-.53-.09.37,0-.21h-4.82a48.92,48.92,0,0,0,5.06,13.21,2.52,2.52,0,0,0,3.42.89,2.54,2.54,0,0,0,.89-3.42c-.56-1-1.08-2-1.57-3.06l-.28-.63c0-.08-.41-.93-.21-.45-.21-.49-.4-1-.59-1.49a45.82,45.82,0,0,1-1.9-6.38,2.5,2.5,0,0,0-4.82,0,7.94,7.94,0,0,0,.6,5.15,2.5,2.5,0,0,0,2.82,1.15,2.64,2.64,0,0,0,1.84-2.41,11.15,11.15,0,0,0-.44-3.89c-.59-2.32-4.3-2.44-4.82,0a18.84,18.84,0,0,0,2.51,14.21A2.5,2.5,0,0,0,240,347.9Z"/><path class="cls-3" d="M227.56,348.19c.75,0,1.5,0,2.25.07l1.12.1.6.07c.52.05-.53-.08,0,0a36.19,36.19,0,0,1,4.4.93,2.5,2.5,0,0,0,1.93-4.57c-2.66-1.2-5.27-2.49-7.85-3.86l-.6,4.57c.23-.09.47-.17.71-.24a4.52,4.52,0,0,0,.73-.16c-.1,0-.53,0-.18,0l.34,0a5.61,5.61,0,0,1,.82,0,2.51,2.51,0,0,0,2.5-2.5,2.55,2.55,0,0,0-2.5-2.5,8.91,8.91,0,0,0-3.75.57,2.55,2.55,0,0,0-1.79,2.08,2.48,2.48,0,0,0,1.19,2.49q3.87,2,7.85,3.86l1.93-4.57a36.25,36.25,0,0,0-9.72-1.35,2.52,2.52,0,0,0-2.5,2.5,2.55,2.55,0,0,0,2.5,2.5Z"/><path class="cls-3" d="M227.81,348.26a9.63,9.63,0,0,1,1.42-.05c.23,0,.45,0,.67,0s.55.13-.08,0l.33,0a9.08,9.08,0,0,1,1.36.36c.07,0,.43.17.09,0s0,0,.07,0c.22.11.44.23.65.36l.27.18c.3.2-.08,0-.11-.09.05.15.39.36.5.47a14.81,14.81,0,0,0,1.48,1.27,7.91,7.91,0,0,0,3.17,1.39,2.5,2.5,0,1,0,1.33-4.82,6.87,6.87,0,0,1-.75-.19l-.33-.11c-.3-.11.41.21.13,0s-.46-.24-.68-.38a1.07,1.07,0,0,0-.28-.19c.25.2.31.24.17.12l-.13-.12a14.09,14.09,0,0,0-2.67-2.14,11.88,11.88,0,0,0-6.61-1.23,2.5,2.5,0,1,0,0,5Z"/><path class="cls-3" d="M229.19,347.83l.23-.14-.59.25a1.56,1.56,0,0,1,.37-.1l-.67.09a1.28,1.28,0,0,1,.34,0l-.67-.09a1.16,1.16,0,0,1,.32.08l-.59-.25a1.56,1.56,0,0,1,.28.16l-.5-.39.08.08,1.11-4.18-.12,0,.66-.09a1.86,1.86,0,0,1-.47,0l.67.09c-.48-.07-.93-.17-1.41-.22a3.54,3.54,0,0,0-1.91.44,1.87,1.87,0,0,0-.7.64,1.94,1.94,0,0,0-.45.85,2.46,2.46,0,0,0,.26,1.93,4.76,4.76,0,0,0,.49.62,2.91,2.91,0,0,0,1.19.69,3.7,3.7,0,0,0,1,.15c.38,0,.76,0,1.13-.07l2.38-.18a2.69,2.69,0,0,0,1.77-.73,2.52,2.52,0,0,0,.73-1.77,2.49,2.49,0,0,0-2.5-2.5l-1.87.14-.94.07a4.39,4.39,0,0,1-.81,0l.67.09-.21-.05.6.25-.09-.05.51.39a.27.27,0,0,1-.08-.07l.39.51,0,0-.89,3.42.05,0-.6.25a.79.79,0,0,1,.22-.06l-.66.09a1.77,1.77,0,0,1,.46,0l-.67-.09,1,.17a4.21,4.21,0,0,0,1.58-.06,2.52,2.52,0,0,0,1.11-4.18,3.45,3.45,0,0,0-.88-.63,4.17,4.17,0,0,0-1.67-.43h-.25a4.85,4.85,0,0,0-.85.13,4.41,4.41,0,0,0-.78.32,1.49,1.49,0,0,0-.24.14,1.87,1.87,0,0,0-.7.64,1.94,1.94,0,0,0-.45.85,2.52,2.52,0,0,0,1.75,3.08,2.42,2.42,0,0,0,1.93-.26Z"/><path class="cls-3" d="M241.54,350.6a3,3,0,0,0,.5-.63l0-.06.25-.6,0-.1a4.42,4.42,0,0,0,.1-.73.41.41,0,0,0,0-.11,1.7,1.7,0,0,0,0-.22,8.08,8.08,0,0,0-.17-1.08c0-.07-.05-.15-.08-.23a5.88,5.88,0,0,0-.33-.78,3.51,3.51,0,0,0-1.61-1.46l-1.13-.52a2,2,0,0,0-.93-.3,1.9,1.9,0,0,0-1,.05,1.88,1.88,0,0,0-.85.44,1.91,1.91,0,0,0-.64.71,2.49,2.49,0,0,0-.25,1.92l.25.6a2.59,2.59,0,0,0,.9.9l.84.39a3.3,3.3,0,0,1,.75.38l-.51-.39a1,1,0,0,1,.14.15l-.39-.51a1.39,1.39,0,0,1,.18.31l-.25-.6a3.66,3.66,0,0,1,.17.65l-.09-.66a1.45,1.45,0,0,1,0,.36l.09-.67a.85.85,0,0,1,0,.17l.25-.6a.75.75,0,0,1-.07.12l.39-.51a.23.23,0,0,1-.07.07,2,2,0,0,0-.52.81,2,2,0,0,0-.21,1,2.75,2.75,0,0,0,.73,1.77,2.51,2.51,0,0,0,1.77.73l.66-.09a2.53,2.53,0,0,0,1.11-.64Z"/><path class="cls-3" d="M242.89,348.88c.11-1.8-1-3.13-2.17-4.34-.08-.08-.66-.81-.37-.39a6.39,6.39,0,0,1-.46-.76c-.07-.13-.13-.26-.19-.4.1.26.1.25,0,0s-.17-.5-.24-.75a29.12,29.12,0,0,1-.68-3.59c-.11-.72-.22-1.43-.32-2.15l-.15-1.08c0-.18-.05-.36-.07-.54,0,.22,0,.17,0-.14a2.57,2.57,0,0,0-2.5-2.5c-1.21,0-2.68,1.11-2.5,2.5a79.06,79.06,0,0,0,1.3,8.39,11,11,0,0,0,1.51,3.57,13.43,13.43,0,0,0,1.52,1.76l.35.37c-.14-.19-.13-.17,0,.06s.14.26,0,0,0-.31,0,0a2.51,2.51,0,0,0,2.5,2.5,2.57,2.57,0,0,0,2.5-2.5Z"/><path class="cls-11" d="M136.39,356.36h0a.65.65,0,0,0-.6.46c-.11.38.18.76.37,1.05a8.24,8.24,0,0,0,1,1.3c.39.38.85.64,1.25,1a6.66,6.66,0,0,0,1.79,1,12.52,12.52,0,0,0,2.46.91,42.81,42.81,0,0,0,4.81.48c.79.1.78-1.16,0-1.25-1.35-.17-2.73-.07-4.07-.34a9.57,9.57,0,0,1-2.27-.74,10.31,10.31,0,0,1-1.63-.81c-.39-.28-.73-.63-1.13-.9a4.46,4.46,0,0,1-.92-1c-.13-.18-.25-.35-.36-.53a1.59,1.59,0,0,0-.13-.22c-.08-.07.06.07,0,.3l-.61.46h0c.8,0,.8-1.21,0-1.25Z"/><path class="cls-11" d="M235.48,347.22c-.37-.86-2-1.31-2.77-1.61a29.08,29.08,0,0,0-6.48-1.65,24.33,24.33,0,0,0-8.21.12,19.24,19.24,0,0,0-5.08,2.14,37.65,37.65,0,0,0-9.39,6.84c-3.19,3.21-5.36,7.32-7.16,11.45-1.23,2.82-2.08,5.81-4.68,7.69-.65.47,0,1.56.63,1.08a12.25,12.25,0,0,0,4.09-5.67,58.31,58.31,0,0,1,5.72-11.07,27.46,27.46,0,0,1,8.22-7.44c1.69-1,3.42-2,5.2-2.81a15.18,15.18,0,0,1,6.42-1.37,28.25,28.25,0,0,1,8.47,1.24,21.08,21.08,0,0,1,2.84,1c.28.13,1,.44,1.1.64.31.74,1.39.1,1.08-.63Z"/><path class="cls-11" d="M124.19,380.41a18.16,18.16,0,0,1,11.28-8.69c5.53-1.45,10.87.43,16.05,2.27.76.27,1.09-.94.34-1.21-5.54-2-11.21-3.84-17.09-2.17a19.4,19.4,0,0,0-11.66,9.17c-.39.7.69,1.33,1.08.63Z"/><path class="cls-11" d="M172.62,245c-1.81,4.49-7.21,6.77-11.75,7.08a9.93,9.93,0,0,1-6.53-1.63,15.89,15.89,0,0,1-5.19-7c-.33-.74-1.41-.1-1.08.63a16.84,16.84,0,0,0,5.77,7.5,11.17,11.17,0,0,0,7.3,1.69c5.08-.44,10.68-3,12.68-8,.3-.75-.91-1.07-1.2-.34Z"/><path class="cls-11" d="M180,245.37c2,5,7.6,7.53,12.68,8a11.17,11.17,0,0,0,7.3-1.69,16.84,16.84,0,0,0,5.77-7.5c.33-.73-.75-1.37-1.07-.63a16.25,16.25,0,0,1-5.06,6.87,9.94,9.94,0,0,1-6.67,1.72c-4.54-.32-9.94-2.58-11.75-7.08-.29-.73-1.5-.41-1.2.34Z"/><path class="cls-8" d="M181,217c-8,1.3-15.31,5.45-23.24,7.15a8,8,0,0,1,.6-2.54c.9-2.42,2-4.75,3.09-7.08a7.32,7.32,0,0,1,.77-1.37.48.48,0,0,1,.21-.19.54.54,0,0,1,.28,0c4.15,1,8.39,1.48,12.61,2.14a23.7,23.7,0,0,1,7,1.9"/><path class="cls-8" d="M180.79,216.44c-8,1.36-15.3,5.4-23.24,7.15l.79.6c.16-2.56,1.67-5.17,2.74-7.46.36-.79.91-2.89,1.87-3a7.72,7.72,0,0,1,1.86.39c.69.14,1.39.26,2.09.38,2.57.44,5.16.79,7.73,1.19A25.67,25.67,0,0,1,182,217.6c.72.35,1.35-.73.63-1.08a28.16,28.16,0,0,0-8.14-2.11c-3.2-.48-6.41-.91-9.58-1.54-.9-.18-2.28-.85-3.08-.21s-1.37,2.44-1.83,3.44c-1.16,2.5-2.73,5.31-2.91,8.09a.63.63,0,0,0,.79.6c7.94-1.75,15.19-5.79,23.24-7.15.79-.13.45-1.34-.33-1.2Z"/><path class="cls-8" d="M173.47,217.12c7.94,1.6,15.1,6,23,8a7.58,7.58,0,0,0-.51-2.56c-.8-2.45-1.81-4.82-2.82-7.19a8,8,0,0,0-.72-1.4.41.41,0,0,0-.2-.19.53.53,0,0,0-.28,0c-4.19.81-8.44,1.17-12.68,1.66a23.76,23.76,0,0,0-7.11,1.65"/><path class="cls-8" d="M173.3,217.73c8,1.65,15.09,6,23,8a.63.63,0,0,0,.79-.61c-.08-2.82-1.56-5.69-2.64-8.24a11.34,11.34,0,0,0-1.58-3.35c-.76-.81-2.27-.13-3.19,0-3.22.51-6.47.82-9.71,1.19a27.88,27.88,0,0,0-8.13,1.81c-.74.32-.1,1.39.63,1.08a26,26,0,0,1,7.5-1.64c2.62-.3,5.24-.56,7.85-.92a33.88,33.88,0,0,1,3.59-.56c.74,0,.83.37,1.11,1s.61,1.42.9,2.13c1,2.31,2.35,5,2.42,7.49l.79-.6c-7.87-2-15-6.35-23-8-.79-.16-1.12,1-.34,1.21Z"/><circle class="cls-5" cx="183.49" cy="127.93" r="90.66"/><path class="cls-12" d="M195.24,152a13.26,13.26,0,0,1-10,7.09c-4.95.55-8.88-3.64-10.28-8-.49-1.53-2.9-.88-2.42.66,1.66,5.22,6.37,10.31,12.24,9.92a15.7,15.7,0,0,0,12.66-8.37c.74-1.42-1.42-2.69-2.16-1.26Z"/><path class="cls-13" d="M132.65,175.3a92.23,92.23,0,0,0,9.16,9,45.21,45.21,0,0,0,10.48,6.36,77.66,77.66,0,0,0,22.44,6.09c15.08,1.79,30.77-.68,43.73-8.86a36.72,36.72,0,0,0,9.46-8,35.66,35.66,0,0,0,5.25-8.47l-2.41-.67-.1.26,2.41.66.28-.68c.62-1.49-1.8-2.14-2.41-.67l-.28.69c-.61,1.48,1.8,2.13,2.41.66l.1-.25c.62-1.49-1.8-2.14-2.41-.67-2.36,5.74-6.9,10.53-12,13.95a57,57,0,0,1-19.2,8.38,74.6,74.6,0,0,1-43.85-3.66,45.39,45.39,0,0,1-11.28-6.19,84,84,0,0,1-10-9.66c-1.1-1.18-2.86.59-1.77,1.77Z"/><path class="cls-13" d="M241,181.71a19.28,19.28,0,0,0-6.67-12c-3.93-3.42-8.81-5.45-13.75-6.92a1.25,1.25,0,0,0-.66,2.41c8,2.39,17.37,7.2,18.58,16.47a1.29,1.29,0,0,0,1.25,1.25,1.26,1.26,0,0,0,1.25-1.25Z"/><path class="cls-14" d="M174.5,194.4q-.87-2.53-1.75-5.07a8.21,8.21,0,0,0-1.4-3.09c-2-1.93-4.6-.22-6.09,1.42a30.69,30.69,0,0,1-3.6,4h3.53c-.28-.28,0,0-.14-.2-.19-.38.1.28-.06-.12s-.33-.88-.48-1.33c-.33-.92-.61-1.85-.92-2.78a6.73,6.73,0,0,0-1.45-2.63,3.41,3.41,0,0,0-3.57-.58,9.24,9.24,0,0,0-3.54,2.62c-1.15,1.23-2.61,2.64-2.23,4.47a2.51,2.51,0,0,0,2.41,1.84,3.63,3.63,0,0,0,2.81-1.77c.74-1.62-.11-3.83-2.16-3.76a3.33,3.33,0,0,0-3,2.2,3.9,3.9,0,0,0-.25,1.21,3.5,3.5,0,0,0,.69,2c.38.64.74,1.21,1.17,1.82.05.07.21.41.3.46-.35-.19-.3-1.52-.21-1.8,0,.07-.09.6-.09.68,0,.94.41,1.27.87,2l-.22-.29.36.47c.24.32.49.64.75.95a8.81,8.81,0,0,0,4.43,2.93,14.43,14.43,0,0,0,5.44.14,16.29,16.29,0,0,0,5.25-1.89c.39-.19.8-.35,1.17-.56a2.84,2.84,0,0,0,1.37-2.6,3.94,3.94,0,0,0-1-2.94,4.06,4.06,0,0,0-2.84-1.09c-1.95-.13-3.82.49-5.6.51a6.28,6.28,0,0,1-2.68-.4,1.42,1.42,0,0,1-.72-.54c.2.24,0-.07-.07-.12.06.21,0,.18,0-.1-1.64,1.66-2,2.38-1.14,2.14a2.5,2.5,0,1,0-1.33-4.82,3.28,3.28,0,0,0-2.37,2.22,4.15,4.15,0,0,0,.7,3.3,7.66,7.66,0,0,0,5.62,3.17,13.48,13.48,0,0,0,3.11.09c.58-.07,1.16-.15,1.73-.26l.48-.1c.46-.11-.31,0,0,0s.76-.07,1.14-.08a5.58,5.58,0,0,0,1.35,0c-.45.28-1.64-1-1.39-1.37,0,0,0,.31,0,.38,0,.5.06-.36.05-.27l1.15-1.49-2.6,1.27a4.51,4.51,0,0,1-.9.36,5.08,5.08,0,0,1-.52.15c-.18.05-.57.12-.17.06a16.89,16.89,0,0,1-2.35.17H163c-.09,0-.62,0-.31,0a5.45,5.45,0,0,1-1.25-.31c-.29-.1.13.13-.19-.09-.12-.09-.25-.16-.37-.24.36.25,0,0-.12-.12s-.27-.25-.41-.39-.44-.47-.64-.71-.62-.76-.2-.23c-.21-.27-.41-.56-.63-.82s.24.31.24.33l.35,1.26c-.13.64-.16.85-.09.64l.09-.68a2.08,2.08,0,0,0-.1-.7,3.34,3.34,0,0,0-.46-.95,22.34,22.34,0,0,1-1.64-2.57l.34,1.26c0,.49,0,.11.07-.09L157,192a2,2,0,0,1-1.18.37l-2.16-3.76c.05-.11.51-.6.16-.26s.45-.3.13-.12l1.26-.34h0l2.41,1.83V191c-.26.81-.19.47,0,.17s-.26.29.09-.11.89-1,1.37-1.5c.27-.27.56-.51.82-.78l-.16.13.36-.22c.25-.13.26-.14,0,0,.46-.09.3-.11-.48,0l-1.1-.64c-.17-.31-.17-.32,0,0s.16.31.09.12a6.65,6.65,0,0,1,.26.75c.23.7.45,1.4.69,2.09a10.15,10.15,0,0,0,2.08,4.16,2.56,2.56,0,0,0,3.53,0,15.72,15.72,0,0,0,2.57-2.71c.39-.49.78-1,1.22-1.43a7.53,7.53,0,0,1,.57-.56c.22-.21.26-.25.13-.11a1.51,1.51,0,0,1-.87,0l-1.1-.65c-.06,0-.54-1.22-.35-.62,0,.14.1.29.15.43.18.48.35,1,.52,1.46q.83,2.37,1.65,4.77a2.56,2.56,0,0,0,3.08,1.74,2.52,2.52,0,0,0,1.74-3.07Z"/><ellipse class="cls-8" cx="208.55" cy="114.75" rx="24.28" ry="33.19"/><path class="cls-15" d="M225.14,95.83c-7.36-1.74-8.74-2.72-16-3-5.59-.22-4.54.06-10,.58-.41,0-10.06,1.53-10.46,1.57,4.42-8.14,11.75-13.87,19.73-13.87,8.92,0,15.77,5.53,20,15.33A18.75,18.75,0,0,1,225.14,95.83Z"/><path d="M195.61,114.75a4.8,4.8,0,0,0-4.79,4.79v5.22c.18.09.54.27,1,.52,2,1.09,3.71,2.32,3.74,2.27s0-.07,0-.07.06,0,0,.07-.07,0-.07,0h.07l-.08,0v0c0-.07-3,1.35-3.61,1.64a5.25,5.25,0,0,0-.63.3l-.42.23v5.5a4.79,4.79,0,1,0,9.58,0V119.54A4.8,4.8,0,0,0,195.61,114.75Z"/><path class="cls-16" d="M256.62,146.26a29.55,29.55,0,0,0-33.57,4.24c-1.19,1.08.58,2.85,1.77,1.77a27,27,0,0,1,30.54-3.85c1.42.75,2.69-1.41,1.26-2.16Z"/><path class="cls-16" d="M144,151.1A29.56,29.56,0,0,0,110.59,146c-1.44.72-.18,2.87,1.26,2.16a27,27,0,0,1,30.41,4.74c1.17,1.11,2.94-.66,1.77-1.77Z"/><path class="cls-1" d="M103.82,100.55c45.78.68,81.3-32.63,103.14-60.91A82.84,82.84,0,0,0,148.51,43l-7.68,3.85C120.16,58,104.94,77.37,97,100.56,100,100.88,101.24,100.51,103.82,100.55Z"/><path class="cls-1" d="M273,113a90.77,90.77,0,0,0-66.51-73.58C216.1,78.23,249.34,101.2,273,113Z"/><path class="cls-13" d="M214.72,92.3a37.62,37.62,0,0,0,4.06-3.5,11.49,11.49,0,0,0,2.43-4.09c1.16-3.37,0-6.75-1.67-9.7a1.25,1.25,0,0,0-2.16,1.26c1.43,2.49,2.43,5.22,1.33,8s-3.56,4.4-5.76,6.21a1.26,1.26,0,0,0,0,1.77,1.29,1.29,0,0,0,1.77,0Z"/><path class="cls-13" d="M204.11,92.38a34.75,34.75,0,0,0,3-4.78,11.37,11.37,0,0,0,1.06-5.06c-.14-3.29-2-5.93-4.34-8.12-1.16-1.11-2.94.66-1.77,1.77,1.88,1.78,3.58,3.89,3.61,6.6,0,3.27-2,5.75-3.76,8.32-.9,1.34,1.26,2.59,2.16,1.27Z"/><path class="cls-13" d="M224.91,95.29a39.23,39.23,0,0,0,4.65-2.61,11.54,11.54,0,0,0,3.26-3.59c1.76-3.08,1.37-6.55.28-9.78-.51-1.51-2.93-.86-2.41.67.91,2.68,1.4,5.52-.16,8.07s-4.33,3.71-6.89,5.08c-1.41.76-.15,2.92,1.27,2.16Z"/><path class="cls-2" d="M183.63,48c-16.36,14.57-34,28.41-54.66,36.32a102.27,102.27,0,0,1-17.58,5c-1.58.3-.91,2.71.67,2.41C133.92,87.61,153.37,76,170.6,62.29c5.06-4,10-8.23,14.8-12.53,1.2-1.07-.57-2.84-1.77-1.77Z"/><path class="cls-2" d="M161.63,49.08c-16.79,2.26-30.95,13.16-42.07,25.34-1.08,1.19.68,3,1.77,1.77,10.87-11.91,24.55-22.49,41-24.7,1.59-.21.91-2.62-.67-2.41Z"/><path class="cls-2" d="M254.42,90.07c-2.19-13.59-14.15-22-24.78-29.13-1.34-.9-2.59,1.26-1.26,2.16C238.5,69.87,249.92,77.79,252,90.74c.26,1.58,2.67.91,2.41-.67Z"/><path class="cls-3" d="M132.12,257.4c-.53-6,2.34-11.81,5.6-16.89s7.07-10,8.82-15.77.89-12.9-3.9-16.58c-3.62-2.78-8.61-3-13.12-2.34a41.33,41.33,0,0,0-23,11.6c-7,7.06-11.59,16.76-20.12,21.92a71.05,71.05,0,0,0,44.5,18.53"/><path class="cls-17" d="M120.44,35.37c-.15,1.48-.33,3-.56,4.43a9.72,9.72,0,0,1-1.08,3.45.63.63,0,0,0,1.08.63,10.5,10.5,0,0,0,1.2-3.75c.26-1.58.45-3.17.61-4.76a.62.62,0,0,0-.62-.62.64.64,0,0,0-.63.62Z"/><path class="cls-3" d="M135.8,38.89a119,119,0,0,0-14-11.07c-4.76-3.19-10.08-7-16.1-6.56-5.35.37-10.9,3.89-12.18,9.39-1.54,6.6,5,10.1,10.25,11.91,5.63,1.94,11.68,2.69,17.56,3.45,3.15.4,6.33.89,9.5,1,1.35,0,3,.2,4.24-.55a3,3,0,0,0,1-4.26c-.77-1.18-2.31-1.77-3.49-2.44l-4.3-2.44-8.38-4.74c-2.74-1.55-5.45-3.17-8.23-4.63-2.56-1.34-5.44-2.54-8.39-2.31-3.35.27-7,2.62-5.74,6.49,1,3,4.39,4.61,7,5.86,5.81,2.77,12.12,4,18.4,5.17,1.73.32,3.76-1.12,3.08-3.08-.9-2.6-3.74-3.18-6-4.11l-7.51-3.05c-1.06-.43-2.13-.84-3.16-1.34-.53-.26-1-.53-1.55-.83-.18-.11-.94-.82-1.13-.82,0,0-.4,1.82-.46,1.77s.28-.1.38-.07a11.9,11.9,0,0,0,2,0,9.5,9.5,0,0,1,3.18.81,2.59,2.59,0,0,0,3.42-.9,2.54,2.54,0,0,0-.9-3.42l-2.82-1.7-2.52,4.32,16.34,8c2.69,1.31,5.38,2.6,8.06,3.93.14.06.27.13.4.2.28.19.28.08,0-.32.06.87-.44-1.51-.1-.8-.08-.16.32,0,.11-.13a4.75,4.75,0,0,1-.71-.08c-1.48-.27-2.78-.85-4.33-.73a2.56,2.56,0,0,0-2.5,2.5,2.53,2.53,0,0,0,2.5,2.5c1.71-.13,3.31.83,5,.81a4.89,4.89,0,0,0,4.21-2.34,4,4,0,0,0-.68-5c-1.32-1.21-3.41-1.87-5-2.64L111.35,26.44c-2.86-1.4-5.31,2.64-2.52,4.32l2.82,1.7,2.52-4.32c-2.85-1.27-6.29-2.07-9.39-1.24a3.88,3.88,0,0,0-3,3.28,4.71,4.71,0,0,0,2.29,4.17c2.54,1.88,5.69,2.88,8.6,4.06l4.77,1.94,2.28.92a10,10,0,0,0,1.36.56c.6.13.4.63,0-.4l3.07-3.07c-7.15-1.32-15-2.58-21.1-6.87-.26-.18-.47-.41-.72-.61-.6-.46.14-.08-.22,0a7,7,0,0,1,1.26-.26,9.94,9.94,0,0,1,5.24,1.43c3.74,1.9,7.35,4.11,11,6.18l6.44,3.64,3,1.71,1.72,1,.65.36.43.25c.44.29.34.1-.31-.58V43.29l-.08.21.64-1.1L133,42c-.25,0-.49,0-.74,0h-1c-.75,0-1.49-.07-2.24-.13-1.55-.14-3.1-.34-4.64-.53-2.9-.35-5.79-.71-8.67-1.19-5.19-.85-10.81-1.77-15.3-4.68a5.18,5.18,0,0,1-2.06-2,3.52,3.52,0,0,1,.4-2.89,8.2,8.2,0,0,1,4.35-3.83c5.28-2,10.14,1.43,14.4,4.18a109.06,109.06,0,0,1,14.74,11.41c2.36,2.17,5.91-1.36,3.53-3.54Z"/><path class="cls-3" d="M120.29,44.84c-3.54,4.87-6,11-5.52,17.1.24,3.3,1.22,7.19,5.2,7.41,3.2.17,6-2.34,8.17-4.42a53.88,53.88,0,0,0,6.11-7.12c1.75-2.42,3.77-5.2,4.58-8.11.87-3.16-.49-6.74-3.9-7.57s-6.18,1.37-8.34,3.59a38.8,38.8,0,0,0-5.93,8.33c-1.75,3.14-3.45,6.4-3.59,10.08a2.52,2.52,0,0,0,3.77,2.15c3.49-2.27,6.29-5.74,9.1-8.78,1.44-1.55,2.86-3.13,4.27-4.71s2.95-3.06,3.44-5.12a2.55,2.55,0,0,0-2.41-3.17c-2.93-.38-5.64,1.38-7.59,3.39a30.5,30.5,0,0,0-5,7c-1.51,2.84,2.8,5.37,4.32,2.53a27.24,27.24,0,0,1,3.71-5.44c1.21-1.35,2.6-2.69,4.54-2.44l-2.41-3.16c-.34,1.42-1.92,2.65-2.86,3.7-1.28,1.43-2.56,2.84-3.86,4.24s-2.6,2.78-3.93,4.16A23.12,23.12,0,0,1,118.31,62l3.76,2.16a14.88,14.88,0,0,1,2.2-6.26,51.72,51.72,0,0,1,3.65-6,15.86,15.86,0,0,1,4.43-4.51c.51-.29,1.13-.54,1.53-.33a.65.65,0,0,1,.22.44,3.34,3.34,0,0,1-.09.91,11,11,0,0,1-1.38,2.77q-1,1.65-2,3.21a46.54,46.54,0,0,1-4.38,5.42c-1.49,1.58-3.18,3.55-5.23,4.4a6.9,6.9,0,0,1-.67.2s0,.1-.16-.17a8.41,8.41,0,0,1-.41-2.8c-.22-5.13,1.9-10,4.86-14a2.51,2.51,0,0,0-.89-3.42,2.55,2.55,0,0,0-3.42.9Z"/><path class="cls-3" d="M136,39.91c3.22,0,3.22-5,0-5s-3.22,5,0,5Z"/><path class="cls-3" d="M137.46,36.07a62.54,62.54,0,0,1-.29-14.79,58.71,58.71,0,0,1,1.18-7.2c.39-1.72.73-4,2.16-5.17a8,8,0,0,1,4.9-1.42c1.47,0,2.51.16,2.5,1.84,0,2.25-1.3,4.57-2.28,6.53-1.13,2.23-2.39,4.39-3.67,6.53q-4.35,7.35-9.11,14.43l4.57,1.93c2-8.26,8.55-14.1,11.34-22,1.16-3.26,2.67-10.64-2.58-11.06-4.41-.35-7,3.88-8.06,7.55a131.76,131.76,0,0,0-3.22,14.85l4.91.66A19.11,19.11,0,0,1,141,20.13c.47-1.42,1-2.83,1.46-4.26a14.92,14.92,0,0,0,1-4.31,3.27,3.27,0,0,0-3-3.42,3.22,3.22,0,0,0-3.25,2.53,3.43,3.43,0,0,0,2.11,3.95,4,4,0,0,0,2.15.25,5.07,5.07,0,0,0,1.14-.31c.18-.07.92-.27.66-.29l-1.77-.74.19.16-.64-1.11c-.1-.24.23-.75,0-.22-.16.36-.27.77-.4,1.15-.24.69-.49,1.37-.74,2.06-.5,1.37-1,2.74-1.53,4.1q-1.53,4-3.21,8a2.59,2.59,0,0,0,.9,3.42,2.51,2.51,0,0,0,3.42-.9q2.7-6.33,5.08-12.79c.67-1.83,2-4.12,1.31-6.1a3,3,0,0,0-2.87-2,3.83,3.83,0,0,0-1.33.33c-1.73.68,0-.14.35,1.25v1.33l-.56.62-1.26.34.26,0-1.27-.34.22.14-.9-.9c-.35-.54.06-.66-.13-.32a4.79,4.79,0,0,0-.27,1.1c-.2.72-.42,1.44-.65,2.15-.5,1.5-1,3-1.53,4.48a21.49,21.49,0,0,0-1.2,9.33A2.53,2.53,0,0,0,137,31.24a2.48,2.48,0,0,0,2.74-1.79c.8-4.73,1.77-9.43,3-14.06.4-1.5.85-3.6,2.32-4.45-.08.05.85-.45.76-.25a1.08,1.08,0,0,1-1-.75c0,.22,0,.45,0,.67a12.18,12.18,0,0,1-.39,3.12c-1.07,4.29-3.84,7.86-6.21,11.51a39.43,39.43,0,0,0-5.65,12.18,2.51,2.51,0,0,0,4.57,1.93q5-7.49,9.59-15.25a81.87,81.87,0,0,0,4.09-7.61c1.23-2.73,2.42-5.63,1.92-8.68-1-5.91-8.11-6.12-12.6-4.37-5.65,2.21-6.65,8.33-7.47,13.69a68.51,68.51,0,0,0-.06,20.27,2.52,2.52,0,0,0,3.08,1.75,2.58,2.58,0,0,0,1.74-3.08Z"/><path class="cls-3" d="M139.17,47.38c5.33.42,10.54,2.43,15.68-.08,2.3-1.13,4.83-3.55,4-6.36-.69-2.4-3.13-3.84-5.4-4.44a34.69,34.69,0,0,0-7.74-.9,24.76,24.76,0,0,0-8.16,1c-2.53.81-6.08,2.72-4.58,6,.67,1.45,1.93,1.9,3.4,2.1l4.5.62a60.71,60.71,0,0,0,8.68,1.07,7.23,7.23,0,0,0,3.76-.92,3.23,3.23,0,0,0,1.25-4.3,4.64,4.64,0,0,0-3.27-1.9,38,38,0,0,0-4.48-.73,26.82,26.82,0,0,0-8.53.19c-3.11.7-3.95,3.95-2.44,6.51,1.36,2.3,4,3.64,6.47,4.45a21.09,21.09,0,0,0,15.77-1.19c2.73-1.35,5.11-3.89,4.64-7.15s-3.42-4.52-6.23-5.11a30.44,30.44,0,0,0-18.47,2,2.52,2.52,0,0,0-.9,3.42,2.57,2.57,0,0,0,3.42.9,24.72,24.72,0,0,1,10.77-2,21.82,21.82,0,0,1,5.2.79c.94.27,1.69.56.92,1.53-.91,1.16-2.84,1.74-4.2,2.13a16.3,16.3,0,0,1-5.33.63,15.45,15.45,0,0,1-5-1.08,8.25,8.25,0,0,1-1.77-1c-.14-.1-1.11-1.25-1.1-1.25l-.39.63c-.53.53-.6.72-.2.58l.8-.1c.53,0,1.06-.09,1.59-.11,1.14,0,2.28,0,3.41,0a26.35,26.35,0,0,1,2.95.33c.6.1,1.2.22,1.79.36a5.28,5.28,0,0,0,.66.16c.46,0,.12.08,0,0L150,43.1l.07.24V42l.68-.8-.4.12c-.17,0-.39.06-.58.07a10.75,10.75,0,0,1-1.79-.1c-1.3-.15-2.59-.35-3.88-.53l-3.79-.52-2.12-.3a4.85,4.85,0,0,1-1.49-.23l.9.9q-1.11,2-.24,1.44a4.06,4.06,0,0,1,.51-.26c.32-.14.68-.25,1-.36a18,18,0,0,1,2.3-.57,22.21,22.21,0,0,1,4.75-.26,39.42,39.42,0,0,1,4.48.38,14.36,14.36,0,0,1,2.05.43c.47.14.81.42,1.25.58,0,0,.21.28.27.26s.17-.55,0-.54-1.06.9-1.26,1a7.74,7.74,0,0,1-3.37.87c-3.44.17-6.83-1-10.25-1.23a2.5,2.5,0,0,0,0,5Z"/><path class="cls-3" d="M123.49,45.85l-1.57,3.64a21.41,21.41,0,0,0-.89,2.22,7.46,7.46,0,0,0-.24,1.4,6.14,6.14,0,0,0,.1,1.54,2.48,2.48,0,0,0,1.15,1.5,2.51,2.51,0,0,0,3.42-.9l.25-.6a2.5,2.5,0,0,0,0-1.33l0-.12.09.66a3.77,3.77,0,0,1,0-.75l-.09.67a6.87,6.87,0,0,1,.51-1.71l-.26.6c.61-1.43,1.24-2.86,1.86-4.29a2.69,2.69,0,0,0,.25-1.93A2.5,2.5,0,0,0,125,44.71a2.41,2.41,0,0,0-1.5,1.14Z"/><path class="cls-3" d="M120.39,60.58a4.36,4.36,0,0,1-.34-3.17A32.11,32.11,0,0,1,121.3,53a18.11,18.11,0,0,1,4.27-7.16A2.5,2.5,0,1,0,122,42.31,23.3,23.3,0,0,0,116.39,52c-1.2,3.51-2.43,7.73-.32,11.15a2.5,2.5,0,0,0,4.32-2.52Z"/><path class="cls-3" d="M121,43.68c-4.15-.34-8.08-2-11.86-3.68a44.44,44.44,0,0,1-9.46-5,13.73,13.73,0,0,1-3.35-3.49c-.72-1.12-1.21-2.24,0-3.09a16,16,0,0,1,10.79-2.47,16.47,16.47,0,0,1,10.24,5.66,2.5,2.5,0,0,0,3.54-3.53,21.22,21.22,0,0,0-26.38-4.41c-2.17,1.26-4,3.05-4,5.71a10.3,10.3,0,0,0,2.87,6.55c2.89,3.45,7,5.64,11,7.47,5.3,2.39,10.67,4.81,16.53,5.3a2.52,2.52,0,0,0,2.5-2.5,2.56,2.56,0,0,0-2.5-2.5Z"/><path class="cls-3" d="M143.94,37.64c3.09-4.85,6.68-9.7,8.4-15.26a19.13,19.13,0,0,0,.73-8.13c-.4-3-1.47-6.28-4.83-6.7a2.51,2.51,0,0,0-2.5,2.5,2.56,2.56,0,0,0,2.5,2.5l.33,0-1.26-.34c.43.21.65,1.67.75,2.17a11,11,0,0,1,.18,2.69,16.86,16.86,0,0,1-1.48,6c-1.84,4.25-4.66,8.12-7.14,12-1.73,2.72,2.6,5.23,4.32,2.52Z"/><path class="cls-3" d="M152,14.89a8.35,8.35,0,0,0-.75-6.43l-3.93,3a5.32,5.32,0,0,1,.45.38c.17.16.37.42.11.08a4.85,4.85,0,0,1,.59,1c-.25-.55,0,0,0,.14s.09.39.15.58c.15.55,0-.41,0,.12q0,.34,0,.69c0,.45,0,.89-.06,1.34,0,.23,0,.46-.06.68s0,.16,0-.08c0,.11,0,.23-.05.34a13.6,13.6,0,0,1-.77,2.74l4.82,1.33a20,20,0,0,0,1-3.79,20,20,0,0,0,.34-4.16,9.09,9.09,0,0,0-3.7-7,2.5,2.5,0,0,0-3,3.93c.76.75,1.46,1.56,2.22,2.3a2.54,2.54,0,0,0,3,.4,2.67,2.67,0,0,0,1.15-2.83c-.44-2.87-3.55-5.22-6.35-5.34-3.18-.13-5.75,2.39-6.75,5.2a2.5,2.5,0,0,0,1.74,3.07,2.56,2.56,0,0,0,3.08-1.74c.17-.48-.22.39.08-.19.11-.19.24-.37.35-.56-.26.46,0,0,.09-.08s.27-.26.41-.39c-.46.43.14-.06.26-.14.41-.28-.42.1.09-.05l.54-.15c-.35,0-.4,0-.14,0a1,1,0,0,1,.25,0c.19,0,.11,0-.25,0l.34.09c.47.09-.4-.24.07,0l.48.28c.42.24-.3-.3.17.12.11.1.44.33.46.47l-.16-.22.2.3a3.07,3.07,0,0,1,.17.31l-.11-.29c.08,0,.14.56.15.64L153,8.54c-.76-.75-1.46-1.56-2.22-2.31l-3,3.93c-.5-.36.14.14.23.24s.4.56.1.08c.14.22.29.43.41.66s.28.67.07.11a12.39,12.39,0,0,1,.38,1.32c.12.5,0-.45,0,.22,0,.23,0,.46,0,.69,0,.53,0,1.07-.09,1.6,0,0-.11.8,0,.28-.05.32-.1.64-.16.95a19.72,19.72,0,0,1-.89,3.2,2.5,2.5,0,0,0,1.75,3.07,2.57,2.57,0,0,0,3.07-1.74,16.37,16.37,0,0,0,1.11-6.75A8.32,8.32,0,0,0,150.86,8a2.55,2.55,0,0,0-3.29-.19,2.5,2.5,0,0,0-.64,3.22l.21.39c-.22-.39,0,0,0,.13a3,3,0,0,1,.12.43c0,.13.06.6,0,.1a8.81,8.81,0,0,1,0,.89c0,.47.07-.15,0,.11s-.09.36-.14.53A2.5,2.5,0,1,0,152,14.89Z"/><path class="cls-3" d="M162.21,40.89c.46-6.42-6.67-8.35-11.76-7.94A26.42,26.42,0,0,0,136,38.35a2.52,2.52,0,0,0,0,3.54,2.56,2.56,0,0,0,3.53,0,20.51,20.51,0,0,1,9.95-3.84c2.28-.31,8-.71,7.7,2.84a2.5,2.5,0,1,0,5,0Z"/><path class="cls-3" d="M160,44.24a4.07,4.07,0,0,0,1.34-5.48,2.53,2.53,0,0,0-3.42-.89,2.56,2.56,0,0,0-.89,3.42l.5,1.18a2.48,2.48,0,0,0,2.5,1.2,2.53,2.53,0,0,0,2.07-1.79,4.59,4.59,0,0,0,0-3.06l-4.57,1.92a2.6,2.6,0,0,1,.53,1.27l4.82-1.33c-.91-4.6-5.18-7.71-9.65-8.33-5.23-.73-10.05,1.33-14.7,3.44a2.52,2.52,0,0,0-.9,3.42,2.57,2.57,0,0,0,3.42.9c3.44-1.57,7.06-3.18,10.93-2.9,3,.21,5.53,2,6.08,4.8a2.53,2.53,0,0,0,3.08,1.75,2.56,2.56,0,0,0,1.74-3.08,5.72,5.72,0,0,0-1-2.46,2.53,2.53,0,0,0-3.12-1,2.46,2.46,0,0,0-1.44,2.95c.17.47.19-.08,0,.4l4.57-.6-.51-1.19-4.31,2.53a1.06,1.06,0,0,1,.44-1.37,2.58,2.58,0,0,0-.89,3.43,2.52,2.52,0,0,0,3.42.89Z"/><path class="cls-3" d="M148.7,35.71c.85-2.51,1.69-5,2.54-7.51a32.53,32.53,0,0,0,1.8-7.48,10.66,10.66,0,0,0-1.5-6.94c-1.62-2.25-5-3.07-7.06-.84a2.54,2.54,0,0,0,0,3.53,2.51,2.51,0,0,0,3.53,0c-.09.11-.36.07-.45.15s-.1-.35-.08.06a4.85,4.85,0,0,0,.29.67A6.62,6.62,0,0,1,148,18.5a12.7,12.7,0,0,1-.54,4.9c-1,3.71-2.39,7.34-3.62,11a2.5,2.5,0,0,0,4.82,1.33Z"/><path class="cls-3" d="M131.76,35.48c-4.44-4.89-9.11-9.86-15.3-12.51a25.91,25.91,0,0,0-10.72-2.47c-3.06.12-7.94,1.54-8.49,5.14A2.58,2.58,0,0,0,99,28.71,2.52,2.52,0,0,0,102.08,27c.11-.74,1.71-1.15,2.38-1.31a9.52,9.52,0,0,1,3.57,0,25.44,25.44,0,0,1,8.26,2.78C121,31,124.65,35.08,128.22,39c2.17,2.39,5.7-1.16,3.54-3.54Z"/><rect class="cls-18" x="129.52" y="35" width="11.34" height="14.17" rx="5.67" transform="translate(-4.17 67.09) rotate(-27.46)"/><path class="cls-3" d="M108.57,25.12l-.38.06a1.89,1.89,0,0,0-.85.45,1.83,1.83,0,0,0-.65.7,1.79,1.79,0,0,0-.29.93,1.85,1.85,0,0,0,0,1l.25.6a2.5,2.5,0,0,0,.9.9l.6.25a2.5,2.5,0,0,0,1.33,0l.38-.05a1.89,1.89,0,0,0,.85-.45,2,2,0,0,0,.65-.7,1.85,1.85,0,0,0,.29-.93,1.89,1.89,0,0,0,0-1l-.25-.6a2.64,2.64,0,0,0-.9-.89l-.6-.26a2.5,2.5,0,0,0-1.33,0Z"/><path class="cls-17" d="M128.62,39.36c-2.45-1.1-5.08-2.14-7.77-1.26-.76.25-.43,1.46.34,1.21,2.35-.78,4.66.17,6.8,1.13a.64.64,0,0,0,.86-.23.63.63,0,0,0-.23-.85Z"/><path class="cls-17" d="M128.16,41.51a8.1,8.1,0,0,1-5,.26.62.62,0,0,0-.34,1.2,9.27,9.27,0,0,0,5.68-.26.62.62,0,1,0-.33-1.2Z"/><path class="cls-17" d="M135.34,35.16a38.53,38.53,0,0,0,5.11-17.28,41.92,41.92,0,0,0-.91-8.43c-.19-1.07-.16-2-1.14-2.62-.69-.43-1.32.65-.63,1.08s.58,2,.73,2.78a33.23,33.23,0,0,1,.67,8.08,37.75,37.75,0,0,1-4.91,15.76c-.39.71.69,1.34,1.08.63Z"/><path class="cls-17" d="M148.82,32.16c0,.12-.08.23-.13.35a1.34,1.34,0,0,1-.07.18c0,.08,0,0,0,0a.42.42,0,0,1,0,.1,5.08,5.08,0,0,1-.33.66.64.64,0,0,1-.08.14l-.06.08s-.06.09,0,0,0,0,0,0l-.07.08-.12.11c-.08.07.08-.06,0,0l-.06,0-.15.09-.29.15a.63.63,0,0,0,.63,1.08,3.59,3.59,0,0,0,.7-.44,2.39,2.39,0,0,0,.55-.68,8.48,8.48,0,0,0,.71-1.6.63.63,0,1,0-1.21-.33Z"/><ellipse class="cls-5" cx="57.64" cy="376.56" rx="6.08" ry="9.8" transform="translate(-200.18 96.12) rotate(-33.89)"/><ellipse class="cls-5" cx="315.79" cy="210.31" rx="6.08" ry="17.86" transform="translate(-15.97 394.41) rotate(-62.69)"/><path class="cls-13" d="M159.29,124.46a7,7,0,0,0-2.9-1.87,8.62,8.62,0,0,0-3.53-.45,1.28,1.28,0,0,0-1.25,1.25,1.27,1.27,0,0,0,1.25,1.25,8.69,8.69,0,0,1,1.53,0c.24,0-.18,0,0,0l.18,0,.35.07a7.08,7.08,0,0,1,.75.22,3,3,0,0,1,.32.12c.16.06-.21-.1-.06,0l.19.09a5.24,5.24,0,0,1,.61.34l.26.18c.16.11,0,0,0,0a.58.58,0,0,0,.12.1,5.44,5.44,0,0,1,.48.48,1.25,1.25,0,0,0,1.76,0,1.28,1.28,0,0,0,0-1.77Z"/><path class="cls-13" d="M176.49,120.63a99.15,99.15,0,0,1-36.67-.1c-1.57-.3-2.24,2.11-.66,2.41a102.65,102.65,0,0,0,38,.11c1.58-.3.91-2.71-.67-2.42Z"/><path class="cls-13" d="M170.64,118c-.17.27-.35.54-.54.8L170,119l.05-.07a.44.44,0,0,1-.12.15q-.13.18-.3.36a10.37,10.37,0,0,1-1.35,1.3c-.06,0-.2.2,0,0a1.92,1.92,0,0,1-.17.13l-.37.25q-.36.24-.75.45l-.38.19-.19.09c-.22.1.17-.07,0,0s-.55.2-.83.28a1.25,1.25,0,1,0,.66,2.41,11.67,11.67,0,0,0,6.51-5.18,1.26,1.26,0,0,0-.44-1.71,1.28,1.28,0,0,0-1.71.45Z"/><path class="cls-13" d="M161,118.23a12.92,12.92,0,0,1-1.46,1.59l-.38.34-.22.18s-.2.16-.09.08l-.14.1-.18.13-.46.3a8.76,8.76,0,0,1-.85.47l-.43.2c-.17.09.27-.1,0,0l-.19.07a7.89,7.89,0,0,1-.94.3l-.45.1-.2,0c-.05,0-.4.06-.08,0a1.28,1.28,0,0,0-1.25,1.25c0,.6.56,1.34,1.25,1.25a12,12,0,0,0,7.88-4.67,1.27,1.27,0,0,0,0-1.76,1.26,1.26,0,0,0-1.77,0Z"/><path class="cls-13" d="M151.78,118.48l-.15.23s-.15.2-.07.1-.09.11-.11.13l-.15.17a6.73,6.73,0,0,1-.77.74s-.23.19-.05.05l-.18.14-.43.28a7.85,7.85,0,0,1-1,.51c-.09,0-.13.06,0,0l-.27.11-.49.16a8.56,8.56,0,0,1-1,.24s-.33,0-.17,0-.19,0-.18,0a4.41,4.41,0,0,1-.52,0,7.81,7.81,0,0,1-1.08,0,1.24,1.24,0,0,0-1.25,1.25,1.28,1.28,0,0,0,1.25,1.25,9.41,9.41,0,0,0,8.74-4.13,1.25,1.25,0,0,0-.45-1.71,1.28,1.28,0,0,0-1.71.45Z"/><path class="cls-13" d="M171.93,124.12a8.77,8.77,0,0,0-4.91-2.3,1.33,1.33,0,0,0-1,.13,1.29,1.29,0,0,0-.58.74,1.27,1.27,0,0,0,.13,1,1.18,1.18,0,0,0,.74.57,9.92,9.92,0,0,1,1.23.25l.59.19.27.1s.2.08,0,0,0,0,0,0a7.82,7.82,0,0,1,1,.54l.25.17s.1.06.1.08-.23-.19-.09-.08l.43.38a1.24,1.24,0,1,0,1.76-1.76Z"/><path class="cls-13" d="M165.62,124.49a10.66,10.66,0,0,0-6-2.4,1.25,1.25,0,0,0-1.25,1.25,1.28,1.28,0,0,0,1.25,1.25l.34,0h-.07l.17,0c.23,0,.45.08.68.13a9.22,9.22,0,0,1,1.26.4c.3.12-.18-.09.06,0l.3.14c.2.1.4.2.6.32l.56.35c.06,0,.24.13.27.2-.15-.11-.17-.13-.06,0l.13.11a1.36,1.36,0,0,0,.88.36,1.25,1.25,0,0,0,.88-2.13Z"/><path class="cls-13" d="M153.48,124.4a10.73,10.73,0,0,0-5.33-2.62,1.25,1.25,0,0,0-1.54.87,1.27,1.27,0,0,0,.88,1.54,11.91,11.91,0,0,1,1.31.32l.61.22.15.06c.15.06-.23-.1-.08,0l.33.15a8.88,8.88,0,0,1,1.08.62l.26.17.15.11c.13.09-.2-.16-.07-.06s.32.27.48.42a1.25,1.25,0,0,0,1.77-1.77Z"/><path class="cls-13" d="M147.24,124.37a6,6,0,0,0-5.46-3.47,1.25,1.25,0,0,0,0,2.5,5.32,5.32,0,0,1,.69,0l-.33,0a5.16,5.16,0,0,1,1.09.29c-.39-.14-.08,0,0,0l.25.13c.17.1.34.22.5.33s-.21-.18-.1-.08l.12.1.21.2c.14.13.26.28.39.42s-.16-.22-.08-.1a1.47,1.47,0,0,0,.1.13l.15.25a4.63,4.63,0,0,1,.29.54,1.26,1.26,0,0,0,.74.58,1.32,1.32,0,0,0,1-.13,1.27,1.27,0,0,0,.57-.75,1.45,1.45,0,0,0-.12-1Z"/></svg>
