<svg id="Layer_1" data-name="Layer 1" xmlns="http://www.w3.org/2000/svg" width="130mm" height="180mm" viewBox="0 0 368.5 510.24"><defs><style>.cls-1{fill:#f6c8df;}.cls-2{fill:#d99cbd;}.cls-18,.cls-3{fill:#70c2b1;}.cls-10,.cls-4{fill:#419e86;}.cls-4{stroke:#419e86;stroke-width:0.5px;}.cls-15,.cls-18,.cls-4,.cls-9{stroke-miterlimit:10;}.cls-5{fill:#fce0a8;}.cls-6{fill:#f3d091;}.cls-7{fill:#91ccb7;}.cls-8,.cls-9{fill:#fff;}.cls-9{stroke:#c6c6c6;}.cls-11{fill:#5caf9c;}.cls-12{fill:#897c6d;}.cls-13{fill:#5a5757;}.cls-14{fill:#ed72a5;}.cls-15{fill:#fce0a7;stroke:#d3bfa0;}.cls-16{fill:#d3bfa0;}.cls-17{fill:#5baf9c;}.cls-18{stroke:#5caf9c;}</style></defs><path class="cls-1" d="M274.83,113.82a96.4,96.4,0,0,0-5.45-10.3,43.25,43.25,0,0,1-14.47-15.88c-3.39-6.43-4.71-13.59-6.24-20.66-.1-.06-.2-.1-.3-.15-12.06-6.95-24.6-11.71-32.18-23.37a30.62,30.62,0,0,1-5.14-2.12c-9.5-2-18.91-3.72-28.64-3.82l-.79-.05a8.7,8.7,0,0,1-7.12,8c-10.27,2.3-20.48,5-31,5.47h-.25c-1.85,9.42-10.3,13.9-18.41,17.38-1.22.52-2.45,1-3.68,1.49a9.23,9.23,0,0,1-1.1,7.8,34.88,34.88,0,0,1-8.48,8.53c-.51.38-.94.69-1.3,1-.38,2.43-.66,4.88-.8,7.34-.47,8.21,1.88,16.9-.3,24.86-1.78,6.46-7.68,8.58-12.6,6.9l-8.3,92.52c0,2.77,10.46,1.57,13.11,1.57h171.7c2.64,0,11.7.34,11.7-2.43l-6.89-88.71C272.86,126.15,271.85,118.64,274.83,113.82Z"/><path class="cls-2" d="M270.7,212.71Q270,182.5,267,152.42c-.16-1.59-2.66-1.61-2.5,0q3,30.06,3.7,60.29a1.25,1.25,0,0,0,2.5,0Z"/><path class="cls-2" d="M256.63,212.25a283.17,283.17,0,0,0-1.62-39.6c-.18-1.58-2.68-1.6-2.5,0a283.17,283.17,0,0,1,1.62,39.6c0,1.61,2.45,1.61,2.5,0Z"/><path class="cls-2" d="M242.44,212.25l.64-21.8c0-1.61-2.45-1.6-2.5,0l-.64,21.8c-.05,1.6,2.45,1.6,2.5,0Z"/><path class="cls-2" d="M132.58,210c-.48-3.72-1.08-7.45-1.29-11.2-.19-3.55,0-7.18,1.63-10.41.72-1.43-1.44-2.7-2.16-1.26-3.52,7.09-1.64,15.4-.68,22.87.2,1.58,2.7,1.6,2.5,0Z"/><path class="cls-2" d="M118.08,213.11c2.56-14.23-3-29.06,1.59-43,.5-1.53-1.92-2.18-2.41-.66-4.6,14,1,28.76-1.59,43-.28,1.57,2.13,2.24,2.41.66Z"/><path class="cls-2" d="M105.54,212.45c.38-10.34.76-20.69.75-31q0-7.68-.35-15.34a79.13,79.13,0,0,1,.34-15.39c.24-1.58-2.17-2.25-2.41-.67a78.54,78.54,0,0,0-.46,15.33c.22,5.19.36,10.38.38,15.57,0,10.52-.36,21-.75,31.54-.06,1.61,2.44,1.61,2.5,0Z"/><path class="cls-3" d="M236.53,354.19c2.92.81,7.29,1.51,9.61-1,2.63-2.81,0-6.64-2.17-8.79l-2.43,4.18c1.43.45,2.29,3.24,1.8,4.52L244,352a2.58,2.58,0,0,1,.35-.09,2.57,2.57,0,0,0-.68,0c-.7-.05-1.39-.11-2.08-.2a22.3,22.3,0,0,1-3.72-.85c-2.5-.77-5-1.64-7.52-2.2a51.21,51.21,0,0,0-16.05-.94,2.57,2.57,0,0,0-2.5,2.5,2.53,2.53,0,0,0,2.5,2.5,46.49,46.49,0,0,1,12,.24c4.07.65,7.82,2.15,11.8,3.15,3.25.82,10.07,2.26,10.36-2.88.22-3.92-1.59-8.21-5.54-9.45-2.4-.75-4.19,2.47-2.43,4.18a9.12,9.12,0,0,1,1.4,1.7s.45.85.44.85.2-.87.34-.76-.88.13-.83.12a10.75,10.75,0,0,1-1.39,0,12.26,12.26,0,0,1-2.54-.49c-3.1-.86-4.43,4-1.33,4.83Z"/><rect class="cls-4" x="166.17" y="439.87" width="24.12" height="11.68" rx="4.25" transform="translate(-100.87 55.16) rotate(-13.76)"/><ellipse class="cls-3" cx="195.2" cy="466.54" rx="35.8" ry="26.88" transform="translate(-309.25 502.51) rotate(-71.37)"/><rect class="cls-5" x="68.96" y="236.5" width="23.27" height="145.05" rx="9.08" transform="translate(158.38 -0.72) rotate(28.72)"/><ellipse class="cls-5" cx="35.15" cy="369.92" rx="26.64" ry="14.97"/><rect class="cls-5" x="263.48" y="213.99" width="23.27" height="77.67" rx="11.63" transform="translate(626.17 124.9) rotate(117.4)"/><rect class="cls-5" x="303.66" y="202.7" width="23.27" height="77.67" rx="11.63" transform="translate(439.8 618.69) rotate(-145.72)"/><ellipse class="cls-5" cx="330.71" cy="192.63" rx="17.47" ry="26.31" transform="translate(-45.35 121.51) rotate(-19.51)"/><path class="cls-3" d="M234.15,255c-1.47-5.07-5.63-8.88-9.89-12s-8.91-5.91-12.15-10.07-4.79-10.24-2.05-14.75c2.08-3.4,6.07-5.15,10-6a36.05,36.05,0,0,1,22.42,2.2c8,3.54,14.73,10,23.31,11.52A62.09,62.09,0,0,1,235.31,255"/><rect class="cls-3" x="146.05" y="217.09" width="66.87" height="83.88" rx="12"/><ellipse class="cls-3" cx="187.22" cy="328.26" rx="56.12" ry="53.31"/><path class="cls-6" d="M212.46,362.25l-1.05,1c-4.68,4.36-11.73,10.52-7.37,15.2l32.62,29a11.67,11.67,0,0,0,16.44.58l1.05-1a11.67,11.67,0,0,0,.58-16.44L228.9,362.84A11.67,11.67,0,0,0,212.46,362.25Z"/><rect class="cls-6" x="217.02" y="381.57" width="23.27" height="77.67" rx="11.63" transform="translate(137.89 890.28) rotate(-140.53)"/><ellipse class="cls-6" cx="200.64" cy="462.45" rx="28.08" ry="18.64" transform="translate(-301.67 504.89) rotate(-71.37)"/><path class="cls-3" d="M213.26,217.1a240.61,240.61,0,0,0-71.49-3.85l16.68,3.87a14.33,14.33,0,0,1-8.81.11l45.37,2.1c-13.08-3.59-26.85-3.54-40.41-3.47a294,294,0,0,1,54.27,2.6,61.45,61.45,0,0,0-8-.49,43.64,43.64,0,0,0,18.65-.78,67.55,67.55,0,0,0-40.63-5.54"/><path class="cls-3" d="M205.49,211.38c-8.62-5.79-19.58-7.21-29.9-6s-20.18,4.77-29.93,8.32c7.75-2.93,15.63-5.9,23.88-6.64s17.1,1,23.3,6.49a51.86,51.86,0,0,0-12.24-2q15.21,1,30.34,2.83a49.43,49.43,0,0,1-9-3.61,19.79,19.79,0,0,0,8.07,2.86c-8.42-6.84-19.66-9.58-30.5-9.18s-21.39,3.72-31.4,7.91c3.51-6.42,11.81-8.18,19.1-8.85,10.28-.95,20.78-1.08,30.81,1.4s19.61,7.78,25.75,16.09"/><path class="cls-7" d="M166.17,207.86l2.67.58-1.75-3.07a6.71,6.71,0,0,0,4.34,7.6l.66-4.91-7.41-.07v5h8.18a2.5,2.5,0,0,0,0-5l-1.78,0,.66,4.91c.67-.15,1.34-.28,2-.38.31,0,.34,0,.78-.1l1-.08a29.86,29.86,0,0,1,4.23,0v-5l-3.84,0a2.53,2.53,0,0,0-2.16,3.76c1.49,2.77,5.53,1,5.44-1.78a3,3,0,0,0-2.45-2.89,4.58,4.58,0,0,0-3.89,1.36l1.76-.73c-4.42-.11-5.71,6.81-1.49,8.23a4.07,4.07,0,0,0,4.83-2.1,4.17,4.17,0,0,0-1.26-5.51,2.5,2.5,0,0,0-3.42.9,2.57,2.57,0,0,0,.9,3.42,1.36,1.36,0,0,1-.5-.48c-.14-.4-.18-.46-.1-.21l0-.39c0,.27,0,.2,0-.23-.09.56-.09,0,.06,0a1.74,1.74,0,0,1-.15.26c.25-.3.29-.35.11-.16s.4-.22.51-.26c-.35.11.47,0,.63.05-.26-.08-.2-.05.2.09a1.33,1.33,0,0,1,.51.54c-.22-.38.15.58,0,.11s.07.64,0,.12-.18.58,0,0q.09-.27-.12.27a1.49,1.49,0,0,1,.14-.24c-.25.3-.31.38-.18.25s.05-.08-.25.18c.48-.33-.9.38-.56.15a2.31,2.31,0,0,0,.74-.09,2.5,2.5,0,0,0,1.1-.64c-.16.11-.17.11,0,0s.14-.09-.06,0c-1.84-.76-2.48-1.71-1.9-2.85.73-.57.92-.77.55-.6l1.26-.34.5.07,1.1.64.26.34-2.16,3.76,3.84,0a2.53,2.53,0,0,0,2.5-2.5,2.56,2.56,0,0,0-2.5-2.5,31.42,31.42,0,0,0-9.37.7,2.5,2.5,0,0,0,.67,4.91l1.78,0v-5h-8.18a2.53,2.53,0,0,0-2.5,2.5,2.56,2.56,0,0,0,2.5,2.5l7.41.07a2.5,2.5,0,0,0,2.46-2.17,2.54,2.54,0,0,0-1.79-2.74c.53.2,0,0-.13-.1-.39-.21.11.17-.06,0a3,3,0,0,0-.35-.36c.36.35,0,0-.08-.16s-.23-.57-.13-.25,0-.21-.06-.28c-.16-.53,0,.43,0-.13,0-.15.09-.74,0-.14a2.55,2.55,0,0,0-1.74-3.08L167.5,203a2.5,2.5,0,0,0-1.33,4.82Z"/><path class="cls-3" d="M200.14,494.79A34,34,0,0,0,188,505.89a3.9,3.9,0,0,1-1.31,1.42c-1.05.54-2.31,0-3.31-.67a25.5,25.5,0,0,1-10.8-26.77"/><path class="cls-3" d="M175.22,491.53l7.38,4.64a11.58,11.58,0,0,1,2,1.51,11.28,11.28,0,0,1,2,3.18,23.67,23.67,0,0,1-10.1-5.34,59.69,59.69,0,0,1,9.32,7.12,22,22,0,0,0-5.26-2.64,2.73,2.73,0,0,0,1.85,1.39,2.83,2.83,0,0,1,1.15-2.92"/><path class="cls-7" d="M171.84,483.81c3.22,0,3.22-5,0-5s-3.22,5,0,5Z"/><path class="cls-7" d="M172,483.81c3.22,0,3.23-5,0-5s-3.22,5,0,5Z"/><path class="cls-3" d="M179.41,501.81l-3.12-3.56a10.71,10.71,0,0,1-1.14-1.47,9.8,9.8,0,0,1-.91-2.34,4.83,4.83,0,0,0,1.34,2.78A8.75,8.75,0,0,1,174,494a5,5,0,0,0,.77,3.11,20.93,20.93,0,0,1-3-10.28"/><path class="cls-3" d="M174.62,495.26l1,.7a18.91,18.91,0,0,1-2.49-3.66,11.4,11.4,0,0,0,2.56,5.58c-1.59-.83-2.41-2.62-3.07-4.3a53.7,53.7,0,0,1-3.54-12.38,35,35,0,0,1,4.54-22.39"/><path class="cls-3" d="M185.88,505.61a1.52,1.52,0,0,0,1.81.41,5.69,5.69,0,0,0,1.61-1.2c3.94-3.62,9.56-4.86,13.68-8.27a32.69,32.69,0,0,0,4.55-5l3.76-4.74a5.12,5.12,0,0,1-1.18,2.15c-4.8,6-11.63,10.07-18.3,13.95a18.73,18.73,0,0,0-4.83,3.55"/><path class="cls-3" d="M186.61,504.76a2.91,2.91,0,0,1,.09,1.21"/><path class="cls-3" d="M187.11,507.32a86.74,86.74,0,0,0,16.67-11.08c3.46-2.93,6.8-6.31,8.19-10.62"/><path class="cls-3" d="M152.69,219.5a6.37,6.37,0,0,0,3.63-2.81,2.54,2.54,0,0,0-1.49-3.68c-.5-.17-.54-.68-.51-1.12l-2.5,2.5a5.26,5.26,0,0,1,3.56,1,2.5,2.5,0,0,0,3.53-3.53c-3.27-4-9.53-3.15-12.42.73-1.06,1.43.35,4,2.16,3.76,3.7-.49,7.35,1.38,11,1.9a37.77,37.77,0,0,0,11.91-.17,2.48,2.48,0,0,0,1.79-2.74,2.52,2.52,0,0,0-2.46-2.17,28.38,28.38,0,0,0-4.79,0c-3.15.3-3.27,4.88,0,5l24.11.84,12.17.43c1,0,2.73-.26,3.56.4.6.47.93,1.35,1.53,1.87a4.49,4.49,0,0,0,2.88,1.12,3.54,3.54,0,0,0,3.52-2.87,4.83,4.83,0,0,0-2.33-4.84c-2.72-1.78-6.53-1.37-9.62-1.36-7.69,0-15.38.41-23.07.14a84.6,84.6,0,0,1-12.61-1.28c-4.24-.81-8.43-2.31-12.77-1.3-3.13.74-1.81,5.56,1.33,4.82s6.53.6,9.64,1.21a86.2,86.2,0,0,0,10.12,1.32c6.86.5,13.75.3,20.62.17,3.53-.07,7.05-.13,10.58-.05a7.94,7.94,0,0,1,2.73.34c-.09,0,.77.34.48.29,0,0,0-.08,0-.08l1.4-1.51c.23-.05.37,0,.43.15a5.5,5.5,0,0,0-.53-.67,6.11,6.11,0,0,0-4-2.63,43.06,43.06,0,0,0-5.33-.29L190.44,214l-24.36-.85v5a28.38,28.38,0,0,1,4.79,0l-.66-4.91a30.8,30.8,0,0,1-10.62,0c-3.62-.67-7.19-2.35-10.94-1.86l2.16,3.77c1-1.39,3.46-1.06,4.57.27l3.53-3.53a10.43,10.43,0,0,0-7.09-2.44,2.55,2.55,0,0,0-2.5,2.5,6,6,0,0,0,4.18,6l-1.5-3.68a1,1,0,0,1-.64.52c-3.06.95-1.75,5.78,1.33,4.82Z"/><path class="cls-3" d="M214.31,212.09c-9.93-1.33-19.94-.53-29.9-.19q-7.4.25-14.79.23c-2.46,0-4.93,0-7.39-.11-1.31,0-2.63-.07-3.94-.12l-2-.07-1,0c-.69-.1-.66,0,.1.25l.64,1.1a11.09,11.09,0,0,1,.36-2.31,2.57,2.57,0,0,0-1.75-3.07,6.1,6.1,0,0,0-3.49,0c-3.11.82-1.79,5.65,1.33,4.82.39-.11.37-.1.83,0l-1.75-3.08c-.32,2.06-1.23,4.65.51,6.3,1.53,1.46,4.48,1,6.42,1.11q6.78.24,13.56.22c9,0,18-.61,27.06-.77a101.1,101.1,0,0,1,15.16.73c1.34.18,2.5-1.28,2.5-2.5a2.56,2.56,0,0,0-2.5-2.5Z"/><path class="cls-3" d="M146.91,213.64a2.78,2.78,0,0,0,.5,0,5,5,0,0,0,2.16-.56,2.7,2.7,0,0,0,.44-.24,1.87,1.87,0,0,0,.7-.64,1.94,1.94,0,0,0,.45-.85,2,2,0,0,0,0-1,1.86,1.86,0,0,0-.3-.93l-.39-.5a2.52,2.52,0,0,0-1.1-.65l-.67-.09a2.54,2.54,0,0,0-1.26.35,3.37,3.37,0,0,1-.46.25l.59-.26a3,3,0,0,1-.71.2l.66-.09a2.83,2.83,0,0,1-.65,0,1.8,1.8,0,0,0-1,.21,1.82,1.82,0,0,0-.8.52,1.85,1.85,0,0,0-.52.8,2,2,0,0,0-.21,1l.09.66a2.5,2.5,0,0,0,.64,1.1l.51.39a2.54,2.54,0,0,0,1.26.35Z"/><path class="cls-3" d="M177.36,483.24c-.32-1-.4-2.07-.63-3.11a23.46,23.46,0,0,0-.9-3.07,2.68,2.68,0,0,0-1.14-1.5,2.6,2.6,0,0,0-1.93-.25,2.55,2.55,0,0,0-1.5,1.15,2.51,2.51,0,0,0-.25,1.93,23.46,23.46,0,0,1,.9,3.07c.23,1,.31,2.11.63,3.11a2.5,2.5,0,0,0,3.08,1.75,2.53,2.53,0,0,0,1.49-1.15,2.5,2.5,0,0,0,.25-1.93Z"/><path class="cls-3" d="M193.66,501.91a5.6,5.6,0,0,0,0-2.27L192,502.71l-.17,0v-4.82a6.79,6.79,0,0,0-2.27,1.2,12.64,12.64,0,0,1-1.12,1,19.75,19.75,0,0,0-2,1,8,8,0,0,0-1.84,1.88c-1.3,1.78.86,4.31,2.83,3.68l1.5-.49a2.5,2.5,0,0,0,1.79-2.74,2.47,2.47,0,0,0-2.45-2.17,4.51,4.51,0,0,0-2.89,1.36l-.17.16q-.28.27-.09.09c-.17-.61,2,.56,1.56-.23a7.22,7.22,0,0,0-1.27-1.11c-1.77-1.64-3.39-3.44-5.05-5.19a10.1,10.1,0,0,1-2-2.35,13.37,13.37,0,0,1-.92-3,21,21,0,0,1-.34-6.8,2.52,2.52,0,0,0-2.5-2.5,2.55,2.55,0,0,0-2.5,2.5,25.33,25.33,0,0,0,.56,8.32,16.67,16.67,0,0,0,1.46,4.17,16.43,16.43,0,0,0,2.69,3.2c1.87,2,3.68,4,5.74,5.81,1.19,1,2.49,2.18,4.18,1.79a3.91,3.91,0,0,0,1.66-.87,5.43,5.43,0,0,0,.51-.46l.17-.16a1.09,1.09,0,0,1-.82.27l-.67-4.91-1.5.49,2.82,3.67c.36-.49,1.29-.66,2-1.06s1.42-1.45,2.21-1.71a2.57,2.57,0,0,0,1.84-2.41,2.51,2.51,0,0,0-1.84-2.41,7.18,7.18,0,0,0-2.49,0c-1.44.21-1.92,1.88-1.74,3.08l0-.38c-.74,3.12,4.08,4.46,4.82,1.32Z"/><path class="cls-3" d="M182.15,498.64a8,8,0,0,1-.61-.7l.4.5a17.29,17.29,0,0,1-2.05-3.75l.25.59a4,4,0,0,1-.26-.83l.09.67V495a2.83,2.83,0,0,0-.74-1.77,2.5,2.5,0,0,0-3.53,0A2.39,2.39,0,0,0,175,495a5.83,5.83,0,0,0,.27,1.37c.16.42.34.84.53,1.25s.45,1,.7,1.48a14.18,14.18,0,0,0,2.15,3.06,2.5,2.5,0,0,0,3.54-3.54Z"/><path class="cls-3" d="M168.25,482.28c1,3.12,3.1,5.65,4.19,8.69s1.84,6.3,3.66,9.13a19.36,19.36,0,0,0,6.66,6.59,5.07,5.07,0,0,0,5,.14,4,4,0,0,0,1.87-4.64,2.55,2.55,0,0,0-3.07-1.74,2.52,2.52,0,0,0-1.75,3.07c-.13-.38.59-1.14.61-1.1-.1-.2-.82-.49-1-.65a15.37,15.37,0,0,1-2.27-2.07,16.06,16.06,0,0,1-3.24-5.22c-.88-2.38-1.43-4.86-2.54-7.16-1-2.14-2.51-4.08-3.22-6.37-.95-3.06-5.77-1.75-4.82,1.33Z"/><path class="cls-3" d="M145,359.23c-6.63,3.92-14.54,5.14-20.89,9.59-2.6,1.83-7.28,5.31-5.79,9,1.39,3.45,5.83,3.26,8.73,2.22,3.2-1.16,5.94-3.29,9.14-4.41a9.85,9.85,0,0,1,8,.71c2.78,1.39,5.27,3.26,8,4.78a19.74,19.74,0,0,0,10.13,2.9c8.95-.14,18.19-3.67,25.62-8.47,2.69-1.75.19-6.08-2.52-4.32a49.71,49.71,0,0,1-19.9,7.52,15.29,15.29,0,0,1-9.11-1.05c-2.54-1.22-4.85-2.88-7.26-4.33a21.1,21.1,0,0,0-8.37-3.24,15.66,15.66,0,0,0-8.87,2c-2.56,1.27-5.06,3.14-7.94,3.63-.4.07-.68-.09-1.06-.05,0,0-.07-.12-.09,0,0,0,.4,1.09.15,1,.07,0,1.2-1.44,1.33-1.56a17.72,17.72,0,0,1,1.89-1.68c6.33-4.8,14.6-5.94,21.37-9.94,2.77-1.64.26-6-2.52-4.32Z"/><path class="cls-3" d="M159.82,375.65l1.11.87a1.77,1.77,0,0,0,.8.52,2.23,2.23,0,0,0,1.93,0,1.77,1.77,0,0,0,.8-.52l.39-.5a2.43,2.43,0,0,0,.34-1.26l-.08-.67a2.52,2.52,0,0,0-.65-1.1l-1.1-.88a2.75,2.75,0,0,0-1.77-.73,2,2,0,0,0-1,.21,2,2,0,0,0-.81.52l-.39.51a2.53,2.53,0,0,0-.34,1.26l.09.66a2.53,2.53,0,0,0,.64,1.11Z"/><path class="cls-3" d="M161.22,376.46l2.38,1.17,1.26-4.66a7.69,7.69,0,0,1-3.7-.59,2.57,2.57,0,0,0-3.42.9,2.52,2.52,0,0,0,.89,3.42,19.58,19.58,0,0,0,8.65,2.12l-.66-4.91c-4.44,1.44-8.91-.56-12.82-2.6-1.32-.68-3.33-1.43-4.2-2.74-.37-.57-.2-1.12-.24-1.79a4,4,0,0,0-1.19-2.93c-2-1.84-5.32-.18-7.54.46s-4.41,1.31-6.59,2a81.47,81.47,0,0,0-13.64,5.8,2.54,2.54,0,0,0-.9,3.42c1.55,2.53,4.46,2.18,6.78,1a30.44,30.44,0,0,1,7-2.62c5.14-1.16,10.46-1.4,15.49-3a2.52,2.52,0,0,0,1.75-3.07c-1.11-3.28-6.22-2-5.29,1.38a3,3,0,0,0,3.06,2.16,2.93,2.93,0,0,0,1.26-.34c1-.54-.55.12-.54-.07,0,.2,1.18,1,1.2,1,1.82,1.11,4.73.86,5.56-1.39,1-2.69-1.83-5-4.36-4.91-3.2.15-3.24,5,0,5a3.93,3.93,0,0,0,3-1.28,2.58,2.58,0,0,0,0-3.53,4,4,0,0,0-2.86-1.34l.67,4.91,3.9-.89c3.14-.72,1.81-5.54-1.33-4.82l-3.9.89a2.48,2.48,0,0,0-1.79,2.74,2.56,2.56,0,0,0,2.45,2.17l-.68-.13v-3.53l.54-.19v5c.43,0,.43,0,0-.08-.25-.32-.27-.3,0,.06l-.35-1.26,0,.23.35-1.26a8.26,8.26,0,0,1,1.41-.69c.05-.15.32.45,0-.06a4.54,4.54,0,0,0-1.5-1.13c-1.48-.8-2.78-.4-4.21.24l1.26-.34H148l1.27.34-.25-.11.89.89-.11-.22v2.52l.07-.16-1.49,1.15.17-.07H147.2l.17,0-1.74-1.75.05.15,1.74-3.08c-4.36,1.41-8.94,1.78-13.44,2.6a33.83,33.83,0,0,0-6.4,1.73,26.15,26.15,0,0,0-3.22,1.49,6.69,6.69,0,0,1-.93.46c-.87.33-.1-.15.39.64l-.9,3.42a72.36,72.36,0,0,1,11.36-4.93c2-.67,3.93-1.28,5.91-1.88l3.09-.9a10.09,10.09,0,0,1,2.89-.74l-1.27-.34a5.29,5.29,0,0,1-.54-.89s0,.68,0,.76a7.53,7.53,0,0,0,.16,1.77,6.92,6.92,0,0,0,1.67,2.94c1.62,1.76,4,2.85,6.09,3.9,4.83,2.41,10.3,4.32,15.67,2.59a2.52,2.52,0,0,0-.67-4.92,13.83,13.83,0,0,1-6.12-1.44l-2.53,4.32a13.13,13.13,0,0,0,6.23,1.27c2.29-.13,3.64-3.49,1.26-4.66l-2.37-1.16a2.56,2.56,0,0,0-3.42.89,2.52,2.52,0,0,0,.89,3.42Z"/><path class="cls-3" d="M144.21,360.57a17.46,17.46,0,0,0-7.7,1.75c-2.56,1.08-5.07,2.25-7.61,3.39-4.08,1.83-8.37,3.9-9.84,8.49l4.83,1.33c1.06-4.74,5.84-6.79,10.12-7.84a31.69,31.69,0,0,1,16-.08c3.1.85,4.43-4,1.32-4.82a37.07,37.07,0,0,0-19.44.3c-5.67,1.53-11.4,5-12.78,11.11a2.51,2.51,0,0,0,4.83,1.33c1-3.16,5.28-4.49,8-5.7,2.11-.95,4.21-1.92,6.33-2.84a13.58,13.58,0,0,1,6-1.42c3.22.15,3.21-4.85,0-5Z"/><path class="cls-3" d="M133.76,368.68c2.13-1.19,4.57-1.18,7-1.3a11.27,11.27,0,0,0,4.09-.59,3.34,3.34,0,0,0,2-4.07c-1-3.33-6.13-2.62-8.69-2.05a22.67,22.67,0,0,0-7.9,3.64,50.92,50.92,0,0,0-4,3.15c-1.47,1.24-3.12,2.31-3.31,4.37a2.51,2.51,0,0,0,2.5,2.5,2.55,2.55,0,0,0,2.5-2.5l0-.25-.34,1.26q-.16.26.21-.15l.52-.45,1-.91c.61-.53,1.23-1,1.86-1.55a27.28,27.28,0,0,1,4-2.69,15.92,15.92,0,0,1,4.39-1.64,10.59,10.59,0,0,1,2-.21,8.59,8.59,0,0,0,1.33.05l.12,0c-.53-.42-.66-.48-.39-.17l-.65-1.1c-.08-1,.21-1.65.89-1.84.13,0,.13,0,0,0s-.15,0,.11,0l-.32,0c-.53.05-1.06.07-1.59.1-1.07.05-2.14.09-3.21.18a16.08,16.08,0,0,0-6.65,1.82c-2.81,1.57-.29,5.89,2.52,4.31Z"/><path class="cls-3" d="M122.85,370.11l-.22.22a1.85,1.85,0,0,0-.52.81,2.23,2.23,0,0,0,0,1.93,1.82,1.82,0,0,0,.52.8l.5.39a2.43,2.43,0,0,0,1.26.34l.67-.09a2.5,2.5,0,0,0,1.1-.64l.22-.22a2,2,0,0,0,.52-.81,1.83,1.83,0,0,0,.21-1,1.88,1.88,0,0,0-.21-1,2,2,0,0,0-.52-.81l-.51-.39a2.53,2.53,0,0,0-1.26-.34l-.66.09a2.45,2.45,0,0,0-1.1.64Z"/><path class="cls-3" d="M119.88,373.93l0,.14,1.75-1.75-.16.07,1.92.25-.15-.07,1.15,1.49-.05-.25v1.33A4.87,4.87,0,0,1,125,374l-4.32-2.52-1.54,2.8,4.66,1.26a2.5,2.5,0,0,1,.88-1.56l-3.92-3-2.07,3.2,4.66,1.26c.15-2.07,2.08-4,3.57-5.29a17.69,17.69,0,0,1,5.51-3.12c5.11-1.83,10.59-1.83,15.95-1.84,3.22,0,3.22-5,0-5-6.4,0-13,.14-18.95,2.69-5.1,2.18-10.65,6.61-11.08,12.56-.19,2.62,3.41,3.2,4.66,1.26l2.06-3.2c1.58-2.44-1.91-4.95-3.92-3a7.72,7.72,0,0,0-2.35,5.1c-.24,2.52,3.51,3.34,4.65,1.27L125,374c1.57-2.85-2.52-5.16-4.32-2.52-1,1.45-2,3.54-.5,5s4.17.83,4.51-1.24a2.56,2.56,0,0,0-1.74-3.07,2.52,2.52,0,0,0-3.08,1.74Z"/><path class="cls-3" d="M131.8,364v.66a1.88,1.88,0,0,0,.22,1,1.83,1.83,0,0,0,.51.8,1.85,1.85,0,0,0,.81.52,1.88,1.88,0,0,0,1,.22L135,367a2.52,2.52,0,0,0,1.1-.65l.39-.5a2.43,2.43,0,0,0,.34-1.26V364a2,2,0,0,0-.21-1,2.28,2.28,0,0,0-1.33-1.32,1.74,1.74,0,0,0-1-.21l-.66.08a2.55,2.55,0,0,0-1.11.65l-.39.5a2.54,2.54,0,0,0-.34,1.27Z"/><path class="cls-3" d="M134.69,367.54c2.68-1,5.37-2.06,8-3.12,2.15-.86,4.61-2.15,5-4.7a2.66,2.66,0,0,0-.65-2.44,2.44,2.44,0,0,0-2.43-.64,87.32,87.32,0,0,0-13.79,7.12l3.68,1.49-.06-.27v1.33c-.08.42-.54.5.23.19.51-.21,1-.4,1.55-.58,1-.35,2-.66,2.95-.95a50.86,50.86,0,0,1,6.26-1.34c2.39-.35,2.37-4.43,0-4.82-8.29-1.33-15.31,3.4-20.64,9.28l4.27,1.77c0-.77.74-1.37,1.28-1.87a17.46,17.46,0,0,1,2.52-1.92,18.36,18.36,0,0,1,5.92-2.38c4.2-.89,8.6-.87,11.87-4.07,2.3-2.25-1.23-5.79-3.54-3.53-1.43,1.4-3.43,1.76-5.35,2.08a39.62,39.62,0,0,0-6.75,1.38,23.07,23.07,0,0,0-6.57,3.54c-2.18,1.68-4.42,3.8-4.38,6.77,0,2.07,2.77,3.42,4.27,1.77,3.93-4.35,9.43-9,15.77-8v-4.82a48.81,48.81,0,0,0-8.43,2c-2.72.91-6.82,2.05-6,5.75a2.53,2.53,0,0,0,3.68,1.5A79.51,79.51,0,0,1,146,361.46l-3.07-3.07c-.1.29-.09.36,0,.2-.15.26-.18.31-.08.16a2.27,2.27,0,0,1-.67.48,19.6,19.6,0,0,1-2.38,1l-6.43,2.5a2.57,2.57,0,0,0-1.75,3.07,2.53,2.53,0,0,0,3.08,1.75Z"/><path class="cls-8" d="M202.75,358.37a3.71,3.71,0,0,1,1.27.36c.8-1.23,1.6-2.46,2.44-3.65.31-.42.62-.84.92-1.27-1.08.14-2.16.28-3.24.45l-.72.13a2.93,2.93,0,0,1,.05,1.72A19.87,19.87,0,0,1,202.75,358.37Z"/><path class="cls-9" d="M215.34,353c-1.79,2.45-3.58,4.89-5.31,7.38-2.76,4-5.06,8-8.63,11.31-3.05,2.86-6.37,5.68-10.42,7s-8.58,1.41-12.88,2.16a58.26,58.26,0,0,0,9.12.73c21.73,0,40.56-11.74,49.88-28.91A202.45,202.45,0,0,0,215.34,353Z"/><rect class="cls-10" x="283.83" y="434.33" width="24.12" height="11.68" rx="4.25" transform="translate(-215.86 579.51) rotate(-71.32)"/><ellipse class="cls-3" cx="322.86" cy="435.23" rx="27.24" ry="35.42" transform="translate(-217.5 394.34) rotate(-49.1)"/><path class="cls-5" d="M203.35,361.93l-.5,3.61a11.67,11.67,0,0,0,10,13.09L266.73,386a11.66,11.66,0,0,0,13.09-10l.49-3.61a11.67,11.67,0,0,0-10-13.09L218,345.43C211.64,344.57,204.21,355.59,203.35,361.93Z"/><path class="cls-5" d="M263,364.43h0c-4.64,4.41-7.38,15.75-3,20.38l40.08,35.47a11.68,11.68,0,0,0,16.45.4h0a11.66,11.66,0,0,0,.4-16.44l-37.52-39.41A11.66,11.66,0,0,0,263,364.43Z"/><path class="cls-3" d="M351,435.94l6.21,21.31a4.31,4.31,0,0,1,.26,1.84c-.3,2-2.93,2.53-5,2.68-5.14.37-10.23,1.49-15.37,1.38s-10.59-1.66-13.87-5.63"/><path class="cls-3" d="M352.44,438c0-.06-.12-.06-.11,0s.09.11.16.14a1.5,1.5,0,0,1,.82,1,11.9,11.9,0,0,1,.22,1.33,15.61,15.61,0,0,0,1.14,3.05c1.11,2.78,1.07,5.86,1.57,8.81.2,1.25.51,2.48.63,3.74a7.5,7.5,0,0,1-.44,3.73"/><path class="cls-3" d="M353.2,456.84a68,68,0,0,1-25.9,3,2.51,2.51,0,0,0-2.5,2.5,2.55,2.55,0,0,0,2.5,2.5,72,72,0,0,0,27.23-3.18c3.05-1,1.75-5.8-1.33-4.82Z"/><path class="cls-3" d="M349.59,437.89c-.38-.75-.53-1-.46-.64s0,.47.08.7a8.58,8.58,0,0,0,.28,1.41c.23.73.53,1.43.73,2.17a17.94,17.94,0,0,1,.57,5.11c0,3.69-.67,7.36-.57,11.06.09,3.21,5.09,3.22,5,0-.12-4.24.74-8.44.54-12.68a20.57,20.57,0,0,0-1.14-6.12c-.68-1.88-.42-4.3-2.51-5.33a2.57,2.57,0,0,0-3.42.9,2.53,2.53,0,0,0,.9,3.42Z"/><path class="cls-3" d="M344.69,458.34c-2.14,1.5-3.94,1.66-6.59,1.36a60.61,60.61,0,0,1-8.12-1.11,2.5,2.5,0,1,0-1.33,4.82,72.4,72.4,0,0,0,9.74,1.33,12.82,12.82,0,0,0,8.83-2.08,2.58,2.58,0,0,0,.9-3.43,2.53,2.53,0,0,0-3.43-.89Z"/><ellipse class="cls-5" cx="321.93" cy="427.39" rx="17.47" ry="26.31" transform="translate(-211.9 390.92) rotate(-49.1)"/><path class="cls-3" d="M231.66,343.79s1.5-.56,1.21-.54.3,0,.31,0-.48-.1-.6-.13l-1.32-.29c-.84-.19-1.69-.37-2.54-.52A16.21,16.21,0,0,0,223,342a3.85,3.85,0,0,0-2.53,1.79,3.43,3.43,0,0,0,4.18,4.87,8.63,8.63,0,0,0,.94-.41l.26-.12c.26-.14-.16.08-.16.07s.53-.11.54-.14-.5,0-.2,0l.37,0a10,10,0,0,1,1.34.07c.3,0-.19,0-.19,0s.35.06.38.06l.7.11,3,.48a2.75,2.75,0,0,0,1.93-.25,2.58,2.58,0,0,0,1.15-1.5A2.53,2.53,0,0,0,233,344a50.12,50.12,0,0,0-6.07-.87,7.56,7.56,0,0,0-3.47.71l-.34.16c-.26.13-.23.11.07,0a1.59,1.59,0,0,1,1.45.42,1.62,1.62,0,0,1,.23,1.93,1.45,1.45,0,0,1-.53.54c.17-.09.15-.08-.06,0s-.23.1,0,0,.19,0-.24,0a3.05,3.05,0,0,0,.52,0q.72,0,1.44.09c.24,0,.49,0,.72.07-.63-.11.13,0,.26,0,.47.07,1,.16,1.42.26.95.19,1.89.4,2.84.61,1.48.33,2.82.51,4-.63a2.52,2.52,0,0,0,0-3.54,2.55,2.55,0,0,0-3.53,0Z"/><path class="cls-3" d="M233.77,343.7c-4.57-.7-9.45-.93-13.61,1.39s-8.06,4.72-12.09,7.08c-2.77,1.62-.26,5.95,2.53,4.31l11-6.46a10.59,10.59,0,0,1,4.79-1.73,27.64,27.64,0,0,1,6,.23,2.59,2.59,0,0,0,3.08-1.75,2.51,2.51,0,0,0-1.75-3.07Z"/><path class="cls-3" d="M246.47,347.4c-3-5.15-6.05-10.52-5.88-16.52a2.5,2.5,0,0,0-5,0c-.2,7,3.12,13.22,6.56,19a2.5,2.5,0,0,0,4.32-2.52Z"/><path class="cls-3" d="M191.79,374.92a3.15,3.15,0,0,0,.87.71,2.44,2.44,0,0,0,.28.14c.26.14.24.12-.07,0l-.65-1.11.05.17v-1.32c.77-.83.85-1.06.26-.7l-.64.33-1,.5a9.31,9.31,0,0,1-2,.86,43.92,43.92,0,0,1-5.12.78q-2.79.31-5.6.48c-1.88.1-4.18-.15-5.66,1.25a2.47,2.47,0,0,0-.64,2.43,2.91,2.91,0,0,0,2.23,2.06,7.26,7.26,0,0,0,3.07-.24c1.55-.28,3.18,0,4.73-.42,2.06-.6,2.59-2.34,2.36-4.27s-.52-3.75-.92-5.61a2.5,2.5,0,0,0-4.83,1.33c.22,1,.42,2,.58,3,.06.42.12.83.17,1.25l.09.77c0,.44.06.32.16-.38l.89-.89c.28-.17,0,0-.19,0s-.4,0-.6,0c-.55,0-1.11,0-1.66.05a14.63,14.63,0,0,0-1.75.19,3.29,3.29,0,0,0-.89.2c-.33.18-.32-.23.27.18l1.15,1.49,0-.13L176,380.5l.13-.13-1.1.65a9.74,9.74,0,0,1,3.1-.31c1.21-.07,2.41-.16,3.61-.28,2.54-.24,5.08-.56,7.6-1a18.12,18.12,0,0,0,6.1-2.57,3.15,3.15,0,0,0,1.59-3.49,3.06,3.06,0,0,0-1.28-1.71,3.7,3.7,0,0,0-.33-.21l-.27-.14.14.07a2.53,2.53,0,0,0-3.54,0,2.56,2.56,0,0,0,0,3.54Z"/><circle class="cls-9" cx="207.41" cy="366.69" r="5.3"/><circle class="cls-9" cx="199.17" cy="372.81" r="5.3"/><circle class="cls-9" cx="231.8" cy="346.89" r="5.3"/><circle class="cls-9" cx="214.64" cy="358.73" r="5.3"/><circle class="cls-9" cx="221.85" cy="351.03" r="5.3"/><path class="cls-3" d="M197,370.7l0,.06a5.46,5.46,0,0,0,.43.55l0,.05c.18.15.37.29.56.43l0,0a6.65,6.65,0,0,0,.66.28l.13,0a2,2,0,0,0,1,.05,2,2,0,0,0,.93-.3,2.87,2.87,0,0,0,1.15-1.5l.09-.66a2.54,2.54,0,0,0-.35-1.26l-.39-.51a2.5,2.5,0,0,0-1.1-.64l-.13,0,.6.25a.61.61,0,0,1-.14-.07l.51.39-.11-.11.39.5a.16.16,0,0,1,0-.07,2,2,0,0,0-.65-.7,1.89,1.89,0,0,0-.85-.45,2,2,0,0,0-1,0,1.86,1.86,0,0,0-.93.3l-.5.39a2.41,2.41,0,0,0-.64,1.1l-.09.67a2.43,2.43,0,0,0,.34,1.26Z"/><path class="cls-3" d="M199,372.2h0l.34.05.35.05h.11a5.93,5.93,0,0,0,.72-.1,2.8,2.8,0,0,0,1.49-1.15,1.71,1.71,0,0,0,.3-.93,1.85,1.85,0,0,0,0-1l-.26-.6a2.56,2.56,0,0,0-.89-.9l-.6-.25a2.5,2.5,0,0,0-1.33,0h0l.67-.09h-.15l.66.09h0a1.89,1.89,0,0,0-1-.05,2.26,2.26,0,0,0-1.63.94,1.88,1.88,0,0,0-.44.85l-.09.67a2.43,2.43,0,0,0,.34,1.26l.39.51a2.5,2.5,0,0,0,1.1.64Z"/><path class="cls-3" d="M202,371.91l.58-.54a5.3,5.3,0,0,0,.53-.53,4.52,4.52,0,0,0,.55-.75,4.28,4.28,0,0,0,.2-.44c.06-.15.13-.29.18-.45a5.1,5.1,0,0,0,.15-.7,1.85,1.85,0,0,0,0-1,1.77,1.77,0,0,0-.3-.93,1.8,1.8,0,0,0-.64-.7,1.89,1.89,0,0,0-.85-.45l-.66-.09a2.54,2.54,0,0,0-1.27.34l-.5.39a2.39,2.39,0,0,0-.64,1.11,4.13,4.13,0,0,1-.21.84l.25-.59a2,2,0,0,1-.22.37l.39-.51a4.34,4.34,0,0,1-.52.53l-.6.55a1.93,1.93,0,0,0-.51.81,1.88,1.88,0,0,0-.22,1,1.86,1.86,0,0,0,.22,1,1.93,1.93,0,0,0,.51.81l.51.39a2.43,2.43,0,0,0,1.26.34l.67-.09a2.5,2.5,0,0,0,1.1-.64Z"/><path class="cls-3" d="M203.69,370.15a180.78,180.78,0,0,1,23.22-24c1.33-1.14.73-3.91-1.1-4.18-3.29-.48-6.14-.27-8.87,1.8-2.26,1.72-4.51,3.48-6.67,5.33a42.64,42.64,0,0,0-10.65,12.66,2.5,2.5,0,0,0,4.32,2.53,160.15,160.15,0,0,1,13.2-17.89c2.06-2.42-1.23-5.84-3.54-3.53a23.06,23.06,0,0,1-11.53,6.24c-3.15.69-1.82,5.51,1.33,4.83a27.87,27.87,0,0,0,13.74-7.54l-3.54-3.53a171.93,171.93,0,0,0-14,18.89l4.32,2.53a37.47,37.47,0,0,1,9-10.88c1.78-1.56,3.63-3,5.5-4.5a12.19,12.19,0,0,1,2.86-2,6.45,6.45,0,0,1,3.21-.14l-1.11-4.18a181.41,181.41,0,0,0-23.22,24,2.59,2.59,0,0,0,0,3.54,2.53,2.53,0,0,0,3.54,0Z"/><path class="cls-3" d="M180.37,380.64c2.58.39,5.37-.22,7.91-.71,1.14-.21,2.2-.68,3.34-.9A9.93,9.93,0,0,0,195,377.6c2.05-1.27,4.51-3.07,4.86-5.64s-2.17-5-4.29-6.18A2.5,2.5,0,0,0,193,370.1a5.76,5.76,0,0,1,1.64,1.34c.06.06.45.41.17.15.21.19,0,.23.07,0a3.77,3.77,0,0,0,0-.44c0-.07-.12.17-.2.28s-.1.15,0,0l-.17.2-.47.46-.4.34c-.13.11-.13.11,0,0l-.22.16c-.71.46-1.41.92-2.15,1.32-.36.2.26-.06-.13.07a4.8,4.8,0,0,1-.63.15,9.44,9.44,0,0,0-1.17.27,18,18,0,0,1-2.73.73c-.76.14-1.8.31-2.42.39l-1.55.17-.55,0s-.79,0-.42,0a2.57,2.57,0,0,0-3.08,1.74c-.27,1.19.37,2.87,1.75,3.08Z"/><path class="cls-3" d="M201.57,372a3.86,3.86,0,0,0,1.4-.81,1.29,1.29,0,0,0,.16-.17,4.51,4.51,0,0,0,.49-.66,5,5,0,0,0,.56-2.27c0-.88,0-1.76.07-2.64a2.61,2.61,0,0,0-.73-1.77,2.57,2.57,0,0,0-1.77-.73,2.53,2.53,0,0,0-1.77.73,2.71,2.71,0,0,0-.73,1.77l0,1.55c0,.5,0,1-.06,1.51l.09-.66a2.18,2.18,0,0,1-.14.48l.26-.6-.15.26.39-.51a1.39,1.39,0,0,1-.21.21l.51-.39a.84.84,0,0,1-.21.11l.6-.25,0,0a2.7,2.7,0,0,0-1.5,1.15,2.6,2.6,0,0,0-.25,1.93,2.53,2.53,0,0,0,1.15,1.49,2.47,2.47,0,0,0,1.93.25Z"/><path class="cls-3" d="M195.08,372.6a5.44,5.44,0,0,0,.71-.73,8.72,8.72,0,0,0,1-1.33,2.51,2.51,0,0,0-2.15-3.77h-.45a1.89,1.89,0,0,0-1,.21,1.85,1.85,0,0,0-.8.52,1.82,1.82,0,0,0-.52.8,1.8,1.8,0,0,0-.21,1l.09.66a2.36,2.36,0,0,0,.64,1.1l.5.4a2.54,2.54,0,0,0,1.27.34h.45L192.43,368a5.64,5.64,0,0,1-.46.7l.39-.5a6.67,6.67,0,0,1-.82.86,1.85,1.85,0,0,0-.52.8,2.32,2.32,0,0,0,0,1.93,1.92,1.92,0,0,0,.52.8l.51.39a2.43,2.43,0,0,0,1.26.34l.66-.09a2.53,2.53,0,0,0,1.11-.64Z"/><path class="cls-3" d="M236.8,340.12l0,.15-.09-.66a21.71,21.71,0,0,1-.06,4.34,14.2,14.2,0,0,0,.35,4.82,2.5,2.5,0,1,0,4.82-1.33,10.4,10.4,0,0,1-.23-1.08l.09.66a18.45,18.45,0,0,1,0-3.86,19.36,19.36,0,0,0-.11-4.37,2.54,2.54,0,0,0-1.15-1.5,2.6,2.6,0,0,0-1.93-.25,2.53,2.53,0,0,0-1.49,1.15,2.85,2.85,0,0,0-.25,1.93Z"/><path class="cls-3" d="M199.94,369.69c6.49-3.15,11.43-8.52,16.45-13.56,4.74-4.77,10-9.5,16.74-11,2.71-.6,2.17-5.16-.66-4.91a44.88,44.88,0,0,0-32.22,18.14l4.32,2.53a30.14,30.14,0,0,1,6-8.47c2.64-2.48,6.2-3.48,8.82-5.95a2.55,2.55,0,0,0,.39-3c-2.14-4.4-8.77.14-11.08,2.1a19.1,19.1,0,0,0-6.15,10c-.57,2.35,2.41,4.31,4.18,2.44l7.49-8-3.92-3L206,352.77a2.49,2.49,0,0,0,.64,3.23,2.54,2.54,0,0,0,3.28-.2l3.3-2.86-3.54-3.53a52.27,52.27,0,0,0-8.48,10.82l4.57,1.93c1.77-4.69,5.63-8.29,9.9-10.74a40.39,40.39,0,0,1,7.6-3.31c1.35-.45,2.72-.88,4.1-1.21a4.67,4.67,0,0,1,1.18-.17s.68,0,.46,0c.17,0,.37.41,0-.13l1.49-3.68a43.86,43.86,0,0,0-21.25,12.19c-3,3.12-5.22,6.8-7.83,10.23A23.35,23.35,0,0,1,192,373a2.58,2.58,0,0,0-1.74,3.07,2.51,2.51,0,0,0,3.07,1.75,28,28,0,0,0,10.71-7.7c2.76-3.28,4.87-7,7.71-10.25a39,39,0,0,1,20.12-12.07,2.52,2.52,0,0,0,1.5-3.68c-2.21-3-5.65-2.5-8.85-1.58a53.63,53.63,0,0,0-10.16,4c-6,3.14-10.94,8-13.34,14.36-1,2.7,3.16,4.31,4.56,1.93a47.6,47.6,0,0,1,7.71-9.82c2.33-2.27-1.13-5.62-3.54-3.53l-3.29,2.86,3.93,3,4.28-5.79c1.7-2.3-2-5.07-3.92-3l-7.5,8,4.18,2.43a14.3,14.3,0,0,1,3.66-6.63A14,14,0,0,1,214,347.9a15,15,0,0,1,1.78-.92c.25-.1.53-.15.77-.27.58-.28-.41-.2.13,0l-1.1-.65-.08-.09.39-3a23,23,0,0,1-4.55,2.74,23.61,23.61,0,0,0-4.55,3.47,35.2,35.2,0,0,0-6.51,9.21,2.5,2.5,0,0,0,4.32,2.53,39.38,39.38,0,0,1,27.9-15.67l-.67-4.91c-7.16,1.56-13,6.36-18.08,11.39s-9.8,10.49-16.3,13.65a2.52,2.52,0,0,0-.9,3.42,2.56,2.56,0,0,0,3.42.9Z"/><path class="cls-3" d="M243.71,347.15a13.06,13.06,0,0,1-.77-1.3c-.14-.25-.26-.5-.38-.76s-.25-.6-.09-.19a16.74,16.74,0,0,1-.86-3c-.05-.24-.09-.48-.13-.73.09.61,0-.16,0-.28,0-.5-.06-1-.06-1.49s0-1,.09-1.5l0-.32c0,.31,0,.32,0,0s.1-.57.16-.85h-4.82c.06.23.11.45.16.68s.07.31.1.46.05.31,0,.13,0,.39,0,.48a5.49,5.49,0,0,1,0,.81l4.65-1.26c.22.45,0-.14-.06-.23s0-.67,0-.2c0-.21,0-.44,0-.66,0-.53-.09.37,0-.21h-4.82A48.92,48.92,0,0,0,241.94,350a2.52,2.52,0,0,0,3.42.89,2.54,2.54,0,0,0,.89-3.42c-.56-1-1.08-2-1.57-3.06l-.28-.63c0-.08-.41-.93-.21-.45-.21-.49-.4-1-.59-1.49a45.82,45.82,0,0,1-1.9-6.38,2.5,2.5,0,0,0-4.82,0,7.94,7.94,0,0,0,.6,5.15,2.5,2.5,0,0,0,2.82,1.15,2.64,2.64,0,0,0,1.84-2.41,11.15,11.15,0,0,0-.44-3.89c-.59-2.32-4.3-2.44-4.82,0a18.84,18.84,0,0,0,2.51,14.21,2.5,2.5,0,0,0,4.32-2.53Z"/><path class="cls-3" d="M231.29,347.44c.75,0,1.5,0,2.25.07l1.12.1.6.07c.52.05-.53-.08,0,0a36.19,36.19,0,0,1,4.4.93,2.5,2.5,0,0,0,1.93-4.57c-2.66-1.2-5.27-2.49-7.85-3.86l-.6,4.57c.23-.09.47-.17.71-.24a4.52,4.52,0,0,0,.73-.16c-.1,0-.53,0-.18,0l.34,0a5.77,5.77,0,0,1,.83,0,2.53,2.53,0,0,0,2.5-2.5,2.56,2.56,0,0,0-2.5-2.5,8.93,8.93,0,0,0-3.76.57A2.55,2.55,0,0,0,230,342a2.47,2.47,0,0,0,1.2,2.49c2.57,1.36,5.19,2.65,7.84,3.86l1.93-4.57a36.25,36.25,0,0,0-9.72-1.35,2.53,2.53,0,0,0-2.5,2.5,2.55,2.55,0,0,0,2.5,2.5Z"/><path class="cls-3" d="M231.54,347.51a9.63,9.63,0,0,1,1.42-.05c.23,0,.45,0,.67,0s.55.13-.08,0l.33,0a9.08,9.08,0,0,1,1.36.36c.07,0,.43.17.09,0s0,0,.07,0c.22.11.44.23.65.36l.27.18c.3.2-.08,0-.11-.09,0,.15.39.36.51.47a13.66,13.66,0,0,0,1.47,1.27,7.91,7.91,0,0,0,3.17,1.39,2.5,2.5,0,1,0,1.33-4.82,6.87,6.87,0,0,1-.75-.19l-.32-.11c-.31-.11.4.21.12,0s-.46-.24-.68-.38a1.07,1.07,0,0,0-.28-.19c.25.2.31.24.17.12l-.13-.12a14.09,14.09,0,0,0-2.67-2.14,11.88,11.88,0,0,0-6.61-1.23,2.5,2.5,0,1,0,0,5Z"/><path class="cls-3" d="M232.92,347.08l.23-.14-.59.25a1.56,1.56,0,0,1,.37-.1l-.67.09a1.28,1.28,0,0,1,.34,0l-.67-.09a1.16,1.16,0,0,1,.32.08l-.59-.25a1.56,1.56,0,0,1,.28.16l-.5-.39.08.08,1.11-4.18-.12,0,.67-.09a1.93,1.93,0,0,1-.48,0l.67.09c-.48-.07-.93-.17-1.41-.22a3.54,3.54,0,0,0-1.91.44,1.87,1.87,0,0,0-.7.64,1.94,1.94,0,0,0-.45.85,2.46,2.46,0,0,0,.26,1.93,4.76,4.76,0,0,0,.49.62,3,3,0,0,0,1.19.69,3.71,3.71,0,0,0,1,.15c.37,0,.75,0,1.12-.07l2.38-.18a2.69,2.69,0,0,0,1.77-.73,2.52,2.52,0,0,0,.73-1.77,2.49,2.49,0,0,0-2.5-2.5l-1.87.14-.94.07a4.39,4.39,0,0,1-.81,0l.67.09-.21-.05.6.25-.09-.05.51.39-.08-.07.39.51,0,0-.89,3.42,0,0-.6.25a.9.9,0,0,1,.22-.06l-.66.09a1.77,1.77,0,0,1,.46,0l-.67-.09,1,.17a4.21,4.21,0,0,0,1.58-.06,2.52,2.52,0,0,0,1.11-4.18,3.45,3.45,0,0,0-.88-.63,4.17,4.17,0,0,0-1.67-.43h-.25a4.85,4.85,0,0,0-.85.13,4.41,4.41,0,0,0-.78.32,1.49,1.49,0,0,0-.24.14,1.87,1.87,0,0,0-.7.64,1.94,1.94,0,0,0-.45.85,2.52,2.52,0,0,0,1.75,3.08,2.42,2.42,0,0,0,1.93-.26Z"/><path class="cls-3" d="M245.27,349.85a3,3,0,0,0,.5-.63l0-.06.25-.6,0-.1a4.42,4.42,0,0,0,.1-.73.41.41,0,0,0,0-.11.83.83,0,0,0,0-.22,8.08,8.08,0,0,0-.17-1.08c0-.07,0-.15-.08-.23a5.88,5.88,0,0,0-.33-.78,3.46,3.46,0,0,0-1.61-1.46l-1.13-.52a2,2,0,0,0-.93-.3,2.33,2.33,0,0,0-1.85.49,1.91,1.91,0,0,0-.64.71,2.49,2.49,0,0,0-.25,1.92l.25.6a2.59,2.59,0,0,0,.9.9l.84.39a3.3,3.3,0,0,1,.75.38l-.51-.39a1,1,0,0,1,.14.15l-.39-.51a1.39,1.39,0,0,1,.18.31l-.25-.6a3.66,3.66,0,0,1,.17.65l-.09-.66a1.45,1.45,0,0,1,0,.36l.09-.67a.85.85,0,0,1,0,.17l.25-.6a.75.75,0,0,1-.07.12l.39-.51-.07.07a2.05,2.05,0,0,0-.52.81,2,2,0,0,0-.21,1,1.93,1.93,0,0,0,.21,1,2.05,2.05,0,0,0,.52.81,2.51,2.51,0,0,0,1.77.73l.66-.09a2.53,2.53,0,0,0,1.11-.64Z"/><path class="cls-3" d="M246.62,348.13c.11-1.8-1-3.13-2.17-4.34-.08-.08-.66-.81-.37-.39a6.39,6.39,0,0,1-.46-.76c-.07-.13-.13-.26-.19-.4.1.26.1.25,0,0s-.17-.5-.24-.75a29.12,29.12,0,0,1-.68-3.59c-.11-.72-.22-1.43-.32-2.15l-.15-1.08c0-.18,0-.36-.07-.54,0,.22,0,.17,0-.14a2.57,2.57,0,0,0-2.5-2.5c-1.21,0-2.68,1.11-2.5,2.5a79.06,79.06,0,0,0,1.3,8.39,11,11,0,0,0,1.51,3.57,13.43,13.43,0,0,0,1.52,1.76l.35.37c-.14-.19-.13-.17,0,.06s.14.26,0,0,0-.31,0,0a2.52,2.52,0,0,0,2.5,2.5,2.57,2.57,0,0,0,2.5-2.5Z"/><path class="cls-11" d="M140.12,355.61h0a.65.65,0,0,0-.6.46c-.11.38.18.76.37,1.05a8.24,8.24,0,0,0,1,1.3c.39.38.86.64,1.25,1a6.66,6.66,0,0,0,1.79,1,12.52,12.52,0,0,0,2.46.91,42.81,42.81,0,0,0,4.81.48c.79.1.79-1.16,0-1.25-1.35-.17-2.73-.07-4.07-.34a9.57,9.57,0,0,1-2.27-.74,10.76,10.76,0,0,1-1.63-.81c-.39-.28-.73-.63-1.13-.9a4.46,4.46,0,0,1-.92-1c-.13-.18-.25-.35-.36-.53a1.59,1.59,0,0,0-.13-.22c-.08-.07.06.07,0,.3l-.61.46h0c.8,0,.8-1.21,0-1.25Z"/><path class="cls-11" d="M239.21,346.47c-.37-.86-2-1.31-2.77-1.61a29.08,29.08,0,0,0-6.48-1.65,24.33,24.33,0,0,0-8.21.12,19.24,19.24,0,0,0-5.08,2.14,37.65,37.65,0,0,0-9.39,6.84c-3.19,3.21-5.36,7.32-7.16,11.45-1.23,2.82-2.08,5.81-4.68,7.69-.65.47,0,1.56.63,1.08a12.25,12.25,0,0,0,4.09-5.67,58.31,58.31,0,0,1,5.72-11.07,27.46,27.46,0,0,1,8.22-7.44c1.69-1,3.42-2,5.2-2.81a15.18,15.18,0,0,1,6.42-1.37,28.25,28.25,0,0,1,8.47,1.24,20.59,20.59,0,0,1,2.84,1c.28.13,1,.44,1.1.64.31.74,1.39.1,1.08-.63Z"/><path class="cls-11" d="M127.92,379.66A18.16,18.16,0,0,1,139.2,371c5.53-1.45,10.87.43,16.05,2.27.76.27,1.09-.94.34-1.21-5.54-2-11.21-3.84-17.09-2.17A19.4,19.4,0,0,0,126.84,379c-.39.7.69,1.33,1.08.63Z"/><path class="cls-11" d="M176.35,244.28c-1.81,4.49-7.21,6.77-11.75,7.08a9.93,9.93,0,0,1-6.53-1.63,16,16,0,0,1-5.19-7c-.33-.74-1.41-.1-1.08.63a16.84,16.84,0,0,0,5.77,7.5,11.17,11.17,0,0,0,7.3,1.69c5.08-.44,10.68-3,12.68-8,.3-.75-.91-1.07-1.2-.34Z"/><path class="cls-11" d="M183.72,244.62c2,5,7.6,7.53,12.68,8a11.17,11.17,0,0,0,7.3-1.69,16.84,16.84,0,0,0,5.77-7.5c.33-.73-.75-1.37-1.07-.63a16.25,16.25,0,0,1-5.06,6.87,9.93,9.93,0,0,1-6.67,1.72c-4.54-.32-9.94-2.58-11.75-7.08-.29-.73-1.5-.41-1.2.34Z"/><path class="cls-8" d="M184.68,216.29c-8,1.3-15.31,5.45-23.24,7.15a8,8,0,0,1,.6-2.54c.9-2.42,2-4.75,3.09-7.08a7.32,7.32,0,0,1,.77-1.37.48.48,0,0,1,.21-.19.54.54,0,0,1,.28,0c4.15,1,8.39,1.48,12.61,2.14a23.7,23.7,0,0,1,7,1.9"/><path class="cls-8" d="M184.52,215.69c-8.05,1.36-15.3,5.4-23.24,7.15l.79.6c.16-2.56,1.67-5.17,2.74-7.46.36-.79.91-2.89,1.87-3a7.72,7.72,0,0,1,1.86.39c.69.14,1.39.26,2.09.38,2.57.44,5.16.79,7.73,1.19a25.67,25.67,0,0,1,7.37,1.91c.72.35,1.35-.73.63-1.08a28.18,28.18,0,0,0-8.13-2.11c-3.21-.48-6.42-.91-9.59-1.54-.9-.18-2.28-.85-3.08-.21s-1.37,2.44-1.83,3.44c-1.16,2.5-2.73,5.31-2.91,8.09a.63.63,0,0,0,.79.6c7.94-1.75,15.19-5.79,23.24-7.15.79-.13.45-1.34-.33-1.2Z"/><path class="cls-8" d="M177.2,216.37c7.94,1.6,15.1,6,23,8a7.58,7.58,0,0,0-.51-2.56c-.8-2.45-1.81-4.82-2.82-7.19a8,8,0,0,0-.72-1.4.41.41,0,0,0-.2-.19.53.53,0,0,0-.28,0c-4.19.81-8.44,1.17-12.68,1.66a23.76,23.76,0,0,0-7.11,1.65"/><path class="cls-8" d="M177,217c8,1.65,15.08,6,23,8a.63.63,0,0,0,.79-.61c-.07-2.82-1.56-5.69-2.64-8.24a11.34,11.34,0,0,0-1.58-3.35c-.76-.81-2.27-.13-3.19,0-3.22.51-6.47.82-9.71,1.19a27.88,27.88,0,0,0-8.13,1.81c-.74.32-.1,1.39.63,1.08a26,26,0,0,1,7.5-1.64c2.62-.3,5.24-.56,7.85-.92a34.28,34.28,0,0,1,3.59-.56c.74,0,.83.37,1.11,1s.61,1.42.9,2.13c1,2.31,2.35,5,2.42,7.49l.79-.6c-7.87-2-15-6.35-22.95-8-.79-.16-1.12,1-.33,1.21Z"/><circle class="cls-5" cx="187.22" cy="127.18" r="90.66"/><path class="cls-12" d="M199,151.23a13.26,13.26,0,0,1-10,7.09c-5,.55-8.88-3.64-10.28-8-.49-1.53-2.9-.88-2.41.66,1.65,5.22,6.36,10.31,12.23,9.92a15.7,15.7,0,0,0,12.66-8.37c.74-1.42-1.42-2.69-2.16-1.26Z"/><path class="cls-13" d="M136.38,174.55a92.23,92.23,0,0,0,9.16,9A45.21,45.21,0,0,0,156,189.87,77.66,77.66,0,0,0,178.46,196c15.08,1.79,30.77-.68,43.73-8.86a36.72,36.72,0,0,0,9.46-8,36,36,0,0,0,5.26-8.47l-2.42-.67-.1.26,2.41.66.28-.68c.62-1.49-1.8-2.14-2.41-.67l-.28.69c-.61,1.48,1.8,2.13,2.41.66l.11-.25c.61-1.49-1.81-2.14-2.42-.67-2.36,5.74-6.9,10.53-12,13.95a57,57,0,0,1-19.2,8.38,74.6,74.6,0,0,1-43.85-3.66,45.57,45.57,0,0,1-11.28-6.19,84,84,0,0,1-10-9.66c-1.1-1.18-2.86.59-1.77,1.77Z"/><path class="cls-13" d="M244.77,181a19.28,19.28,0,0,0-6.67-12c-3.93-3.42-8.81-5.45-13.74-6.92a1.25,1.25,0,0,0-.67,2.41c8,2.39,17.37,7.2,18.58,16.47a1.29,1.29,0,0,0,1.25,1.25,1.26,1.26,0,0,0,1.25-1.25Z"/><path class="cls-14" d="M178.23,193.65q-.87-2.53-1.75-5.07a8.21,8.21,0,0,0-1.4-3.09c-2-1.93-4.6-.22-6.09,1.42a30.69,30.69,0,0,1-3.6,4h3.53c-.28-.28,0,0-.14-.2-.19-.38.1.28-.06-.12s-.33-.88-.48-1.33c-.33-.92-.61-1.85-.92-2.78a6.73,6.73,0,0,0-1.45-2.63,3.41,3.41,0,0,0-3.57-.58,9.24,9.24,0,0,0-3.54,2.62c-1.14,1.23-2.61,2.64-2.23,4.47a2.51,2.51,0,0,0,2.41,1.84,3.63,3.63,0,0,0,2.81-1.77c.74-1.62-.11-3.83-2.16-3.76a3.33,3.33,0,0,0-3,2.2,4.21,4.21,0,0,0-.25,1.21,3.5,3.5,0,0,0,.69,2c.38.64.74,1.21,1.17,1.82.05.07.21.41.3.46-.35-.19-.3-1.52-.21-1.8,0,.07-.09.6-.09.68,0,.94.41,1.27.87,2l-.22-.29.36.47c.24.32.49.64.76.95a8.74,8.74,0,0,0,4.42,2.93,14.48,14.48,0,0,0,5.45.14,16.32,16.32,0,0,0,5.24-1.89c.39-.19.8-.35,1.17-.56a2.84,2.84,0,0,0,1.37-2.6,3.94,3.94,0,0,0-1-2.94,4.06,4.06,0,0,0-2.84-1.09c-2-.13-3.82.49-5.6.51a6.28,6.28,0,0,1-2.68-.4,1.42,1.42,0,0,1-.72-.54c.2.24,0-.07-.07-.12.06.21,0,.18,0-.1-1.64,1.66-2,2.38-1.14,2.14a2.5,2.5,0,1,0-1.33-4.82,3.28,3.28,0,0,0-2.37,2.22,4.15,4.15,0,0,0,.7,3.3,7.66,7.66,0,0,0,5.62,3.17,13.48,13.48,0,0,0,3.11.09c.58-.07,1.16-.15,1.73-.26l.48-.1c.46-.11-.31,0,0,0s.76-.07,1.14-.08a5.58,5.58,0,0,0,1.35,0c-.45.28-1.64-1-1.39-1.37,0,0,0,.31,0,.38,0,.5.06-.36,0-.27l1.15-1.49-2.6,1.27a4.51,4.51,0,0,1-.9.36,5.08,5.08,0,0,1-.52.15c-.18.05-.57.12-.17.06a16.78,16.78,0,0,1-2.35.17h-.55c-.09,0-.62,0-.31,0a5.45,5.45,0,0,1-1.25-.31c-.29-.1.13.13-.19-.09-.12-.09-.25-.16-.37-.24.36.25,0,0-.12-.12s-.27-.25-.41-.39-.44-.47-.64-.71-.62-.76-.2-.23c-.21-.27-.41-.56-.63-.82s.24.31.25.33l.34,1.26c-.13.64-.16.85-.09.64l.09-.68a2.08,2.08,0,0,0-.1-.7,3.34,3.34,0,0,0-.46-.95A22.34,22.34,0,0,1,161,189l.34,1.26c0,.49,0,.11.07-.09l-.64,1.1a2,2,0,0,1-1.18.37l-2.16-3.76c0-.11.51-.6.16-.26s.45-.3.13-.12l1.26-.34h0l2.41,1.83v1.31c-.26.81-.19.47,0,.17s-.26.29.1-.11.88-1,1.36-1.5c.27-.27.56-.51.82-.78l-.16.13.36-.22c.25-.13.26-.14,0,0,.46-.09.3-.11-.48,0l-1.1-.64c-.17-.31-.17-.32,0,0s.16.31.09.12a6.65,6.65,0,0,1,.26.75c.23.7.45,1.4.69,2.09a10.15,10.15,0,0,0,2.08,4.16,2.56,2.56,0,0,0,3.53,0,15.72,15.72,0,0,0,2.57-2.71c.39-.49.79-1,1.22-1.43a7.53,7.53,0,0,1,.57-.56c.22-.21.26-.25.14-.11a1.55,1.55,0,0,1-.88,0l-1.1-.65c-.06,0-.54-1.22-.35-.62,0,.14.1.29.15.43.18.48.35,1,.52,1.46q.83,2.37,1.65,4.77a2.56,2.56,0,0,0,3.08,1.74,2.52,2.52,0,0,0,1.74-3.07Z"/><ellipse class="cls-8" cx="212.28" cy="114" rx="24.28" ry="33.19"/><path class="cls-15" d="M228.87,95.08c-7.36-1.74-8.74-2.72-16-3-5.59-.22-4.54.06-10,.58-.41,0-10.06,1.53-10.46,1.57,4.42-8.14,11.75-13.87,19.73-13.87,8.92,0,15.77,5.53,20,15.33A18.75,18.75,0,0,1,228.87,95.08Z"/><path d="M199.34,114a4.8,4.8,0,0,0-4.79,4.79V124c.18.09.54.27,1,.52,2,1.09,3.71,2.32,3.74,2.27s0-.07,0-.07.06,0,0,.07-.07,0-.07,0h.07l-.08,0v0c0-.07-3,1.35-3.61,1.64a5.25,5.25,0,0,0-.63.3l-.42.23v5.5a4.79,4.79,0,0,0,9.58,0V118.79A4.8,4.8,0,0,0,199.34,114Z"/><path class="cls-16" d="M260.35,145.51a29.55,29.55,0,0,0-33.57,4.24c-1.19,1.08.58,2.85,1.77,1.77a27,27,0,0,1,30.54-3.85c1.42.75,2.69-1.41,1.26-2.16Z"/><path class="cls-16" d="M147.76,150.35a29.56,29.56,0,0,0-33.44-5.13c-1.44.72-.18,2.87,1.26,2.16A27,27,0,0,1,146,152.12c1.17,1.11,2.94-.66,1.77-1.77Z"/><path class="cls-1" d="M107.55,99.8c45.78.68,81.3-32.63,103.15-60.91a82.87,82.87,0,0,0-58.46,3.39l-7.68,3.85c-20.67,11.14-35.89,30.49-43.8,53.68C103.75,100.13,105,99.76,107.55,99.8Z"/><path class="cls-1" d="M276.77,112.25a90.77,90.77,0,0,0-66.51-73.58C219.83,77.48,253.07,100.45,276.77,112.25Z"/><path class="cls-13" d="M218.45,91.55a37.62,37.62,0,0,0,4.06-3.5A11.52,11.52,0,0,0,225,84c1.15-3.37,0-6.75-1.68-9.7a1.25,1.25,0,0,0-2.16,1.26c1.43,2.49,2.43,5.22,1.33,8s-3.56,4.4-5.76,6.21a1.26,1.26,0,0,0,0,1.77,1.29,1.29,0,0,0,1.77,0Z"/><path class="cls-13" d="M207.84,91.63a34.75,34.75,0,0,0,3-4.78,11.37,11.37,0,0,0,1.06-5.06c-.14-3.29-2-5.93-4.34-8.12-1.16-1.11-2.94.66-1.77,1.77,1.88,1.78,3.58,3.89,3.61,6.6,0,3.27-2,5.75-3.76,8.32-.9,1.34,1.26,2.59,2.16,1.27Z"/><path class="cls-13" d="M228.64,94.54a39.23,39.23,0,0,0,4.65-2.61,11.54,11.54,0,0,0,3.26-3.59c1.76-3.08,1.37-6.55.28-9.78-.51-1.51-2.93-.86-2.41.67.91,2.68,1.4,5.52-.16,8.07s-4.33,3.71-6.88,5.08c-1.42.76-.16,2.92,1.26,2.16Z"/><path class="cls-2" d="M187.36,47.24c-16.36,14.57-34,28.41-54.66,36.32a102.27,102.27,0,0,1-17.58,5c-1.58.3-.91,2.71.67,2.41,21.86-4.14,41.31-15.79,58.54-29.46,5.06-4,10-8.23,14.8-12.53,1.2-1.07-.57-2.84-1.77-1.77Z"/><path class="cls-2" d="M165.36,48.33c-16.79,2.26-31,13.16-42.07,25.34-1.08,1.19.68,3,1.77,1.77,10.87-11.91,24.55-22.49,41-24.7,1.59-.21.91-2.62-.67-2.41Z"/><path class="cls-2" d="M258.15,89.32C256,75.73,244,67.3,233.37,60.19c-1.34-.9-2.59,1.26-1.26,2.16C242.23,69.12,253.65,77,255.74,90c.26,1.58,2.67.91,2.41-.67Z"/><path class="cls-3" d="M135.85,256.65c-.53-6,2.34-11.81,5.6-16.89s7.07-10,8.82-15.77.89-12.9-3.9-16.58c-3.62-2.78-8.61-3-13.12-2.34a41.33,41.33,0,0,0-23,11.6c-7,7.06-11.59,16.76-20.12,21.92a71.05,71.05,0,0,0,44.5,18.53"/><path class="cls-17" d="M124.17,34.62c-.15,1.48-.33,3-.56,4.43a9.72,9.72,0,0,1-1.08,3.45.63.63,0,0,0,1.08.63,10.5,10.5,0,0,0,1.2-3.75c.26-1.58.45-3.17.61-4.76a.62.62,0,0,0-.62-.62.64.64,0,0,0-.63.62Z"/><path class="cls-3" d="M139.53,38.14a119,119,0,0,0-14-11.07c-4.76-3.19-10.08-7-16.1-6.56-5.35.37-10.9,3.89-12.18,9.39-1.54,6.6,5,10.1,10.25,11.91,5.63,1.94,11.68,2.69,17.56,3.45,3.15.4,6.33.89,9.5,1,1.35,0,3,.2,4.24-.55a3,3,0,0,0,1-4.26c-.77-1.18-2.31-1.77-3.49-2.44l-4.3-2.44-8.38-4.74c-2.74-1.55-5.45-3.17-8.23-4.63-2.56-1.34-5.44-2.54-8.39-2.31-3.35.27-7,2.62-5.74,6.49,1,3,4.39,4.61,7,5.86,5.81,2.77,12.12,4,18.4,5.17,1.73.32,3.76-1.12,3.08-3.08-.9-2.6-3.74-3.18-6-4.11l-7.51-3.05c-1.06-.43-2.12-.84-3.16-1.34-.52-.26-1-.53-1.55-.83-.18-.11-.94-.82-1.13-.82,0,0-.4,1.82-.46,1.77s.28-.1.38-.07a11.9,11.9,0,0,0,2,0,9.5,9.5,0,0,1,3.18.81,2.59,2.59,0,0,0,3.42-.9,2.54,2.54,0,0,0-.9-3.42l-2.82-1.7L112.56,30l16.35,8c2.68,1.31,5.37,2.6,8.05,3.93l.4.2c.28.19.28.08,0-.32.06.87-.44-1.51-.1-.8-.08-.16.32,0,.11-.13a4.75,4.75,0,0,1-.71-.08c-1.48-.27-2.78-.85-4.33-.73a2.56,2.56,0,0,0-2.5,2.5,2.53,2.53,0,0,0,2.5,2.5c1.71-.13,3.31.83,5,.81a4.89,4.89,0,0,0,4.21-2.34,4,4,0,0,0-.68-5c-1.32-1.21-3.41-1.87-5-2.64L115.08,25.69c-2.86-1.4-5.31,2.64-2.52,4.32l2.82,1.7,2.52-4.32c-2.85-1.27-6.29-2.07-9.39-1.24a3.88,3.88,0,0,0-3,3.28,4.71,4.71,0,0,0,2.29,4.17c2.54,1.88,5.69,2.88,8.6,4.06l4.77,1.94,2.28.92a10,10,0,0,0,1.36.56c.6.13.41.63.05-.4l3.07-3.07c-7.15-1.32-15-2.58-21.1-6.87-.26-.18-.47-.41-.72-.61-.6-.46.14-.08-.22,0a7,7,0,0,1,1.26-.26,9.94,9.94,0,0,1,5.24,1.43c3.74,1.9,7.35,4.11,11,6.18l6.44,3.64,3,1.71,1.72,1,.65.36.43.25c.44.29.34.1-.31-.58V42.54l-.08.21.64-1.1.85-.38c-.24,0-.49,0-.74,0h-1c-.75,0-1.49-.07-2.24-.13-1.55-.14-3.1-.34-4.64-.53-2.9-.35-5.79-.71-8.67-1.19-5.19-.85-10.81-1.77-15.3-4.68a5.18,5.18,0,0,1-2.06-2,3.52,3.52,0,0,1,.4-2.89,8.2,8.2,0,0,1,4.35-3.83c5.28-2,10.14,1.43,14.4,4.18A109.06,109.06,0,0,1,136,41.68c2.36,2.17,5.91-1.36,3.53-3.54Z"/><path class="cls-3" d="M124,44.09c-3.54,4.87-6,11-5.52,17.1.24,3.3,1.22,7.19,5.2,7.41,3.2.17,6-2.34,8.17-4.42A53.88,53.88,0,0,0,138,57.06c1.75-2.42,3.77-5.2,4.58-8.11.87-3.16-.49-6.74-3.9-7.57s-6.18,1.37-8.34,3.59a38.8,38.8,0,0,0-5.93,8.33c-1.75,3.14-3.45,6.4-3.59,10.08a2.52,2.52,0,0,0,3.77,2.15c3.49-2.27,6.29-5.74,9.1-8.78,1.44-1.55,2.86-3.13,4.27-4.71s2.95-3.06,3.44-5.12A2.55,2.55,0,0,0,139,43.75c-2.93-.38-5.64,1.38-7.59,3.39a30.5,30.5,0,0,0-5,7c-1.51,2.84,2.8,5.37,4.32,2.53a27.24,27.24,0,0,1,3.71-5.44c1.21-1.35,2.6-2.69,4.54-2.44l-2.41-3.16c-.34,1.42-1.92,2.65-2.86,3.7-1.28,1.43-2.56,2.84-3.86,4.24s-2.6,2.78-3.93,4.16A23.12,23.12,0,0,1,122,61.22l3.76,2.16a14.88,14.88,0,0,1,2.2-6.26,51.72,51.72,0,0,1,3.65-6,15.86,15.86,0,0,1,4.43-4.51c.51-.29,1.13-.54,1.53-.33a.65.65,0,0,1,.22.44,3.34,3.34,0,0,1-.09.91,11,11,0,0,1-1.38,2.77q-1,1.65-2,3.21A46.54,46.54,0,0,1,129.94,59c-1.49,1.58-3.18,3.55-5.23,4.4a6.9,6.9,0,0,1-.67.2s0,.1-.15-.17a8.16,8.16,0,0,1-.42-2.8c-.22-5.13,1.9-10,4.86-14a2.51,2.51,0,0,0-.89-3.42,2.55,2.55,0,0,0-3.42.9Z"/><path class="cls-3" d="M139.73,39.16c3.22,0,3.23-5,0-5s-3.22,5,0,5Z"/><path class="cls-3" d="M141.19,35.32a62.54,62.54,0,0,1-.29-14.79,58.71,58.71,0,0,1,1.18-7.2c.39-1.72.73-4,2.16-5.17a8,8,0,0,1,4.9-1.42c1.47,0,2.51.16,2.5,1.84,0,2.25-1.3,4.57-2.28,6.53-1.13,2.23-2.39,4.39-3.67,6.53q-4.35,7.35-9.11,14.43L141.15,38c2-8.26,8.55-14.1,11.34-22,1.16-3.26,2.67-10.64-2.58-11.06-4.41-.35-7,3.88-8.06,7.55a131.76,131.76,0,0,0-3.22,14.85l4.91.66a19.11,19.11,0,0,1,1.23-8.65c.47-1.42,1-2.83,1.46-4.26a14.92,14.92,0,0,0,1-4.31,3.27,3.27,0,0,0-2.95-3.42A3.22,3.22,0,0,0,141,9.92a3.43,3.43,0,0,0,2.11,3.95,4,4,0,0,0,2.15.25,5.07,5.07,0,0,0,1.14-.31c.18-.07.92-.27.66-.29l-1.77-.74.19.16-.64-1.11c-.1-.24.23-.75,0-.22-.16.36-.27.77-.4,1.15-.24.69-.49,1.37-.74,2.06-.5,1.37-1,2.74-1.53,4.1q-1.53,4-3.21,8a2.59,2.59,0,0,0,.9,3.42,2.51,2.51,0,0,0,3.42-.9q2.7-6.33,5.08-12.79c.67-1.83,2-4.12,1.31-6.1a3,3,0,0,0-2.87-2,3.83,3.83,0,0,0-1.33.33c-1.73.68,0-.14.35,1.25V11.4l-.56.62-1.26.34.26,0L143,12.05l.22.14-.9-.9c-.35-.54.06-.66-.13-.32a4.79,4.79,0,0,0-.27,1.1c-.2.72-.42,1.44-.65,2.15-.5,1.5-1.05,3-1.53,4.48a21.49,21.49,0,0,0-1.2,9.33,2.53,2.53,0,0,0,2.17,2.46,2.48,2.48,0,0,0,2.74-1.79c.8-4.73,1.77-9.43,3-14.06.4-1.5.85-3.6,2.33-4.45-.09.05.84-.45.75-.25a1.08,1.08,0,0,1-1-.75c0,.22,0,.45,0,.67a12.18,12.18,0,0,1-.39,3.12c-1.07,4.29-3.84,7.86-6.21,11.51a39.43,39.43,0,0,0-5.65,12.18,2.51,2.51,0,0,0,4.57,1.93q5-7.49,9.59-15.25a81.87,81.87,0,0,0,4.09-7.61c1.23-2.73,2.42-5.63,1.92-8.68-1-5.91-8.11-6.12-12.6-4.37-5.65,2.21-6.65,8.33-7.47,13.69a68.51,68.51,0,0,0-.06,20.27,2.52,2.52,0,0,0,3.08,1.75,2.58,2.58,0,0,0,1.74-3.08Z"/><path class="cls-3" d="M142.9,46.63c5.33.42,10.54,2.43,15.68-.08,2.3-1.13,4.83-3.55,4-6.36-.69-2.4-3.13-3.84-5.4-4.44a34.67,34.67,0,0,0-7.73-.9,24.79,24.79,0,0,0-8.17,1c-2.53.81-6.08,2.72-4.58,6,.67,1.45,1.93,1.9,3.4,2.1l4.5.62a60.71,60.71,0,0,0,8.68,1.07,7.23,7.23,0,0,0,3.76-.92,3.23,3.23,0,0,0,1.25-4.3,4.64,4.64,0,0,0-3.27-1.9,38,38,0,0,0-4.48-.73A26.82,26.82,0,0,0,142,38c-3.11.7-3.95,3.95-2.44,6.51,1.36,2.3,4,3.64,6.47,4.45a21.09,21.09,0,0,0,15.77-1.19c2.73-1.35,5.11-3.89,4.64-7.15s-3.42-4.52-6.23-5.11a30.44,30.44,0,0,0-18.47,2,2.52,2.52,0,0,0-.9,3.42,2.57,2.57,0,0,0,3.42.9,24.72,24.72,0,0,1,10.77-2,21.74,21.74,0,0,1,5.2.79c.94.27,1.69.56.92,1.53-.91,1.16-2.84,1.74-4.2,2.13a16.27,16.27,0,0,1-5.33.63,15.34,15.34,0,0,1-5-1.08,8.09,8.09,0,0,1-1.78-1c-.14-.1-1.11-1.25-1.1-1.25l-.39.63c-.53.53-.6.72-.2.58l.8-.1c.53,0,1.06-.09,1.59-.11,1.14,0,2.28,0,3.41,0a26.35,26.35,0,0,1,3,.33c.6.1,1.2.22,1.79.36a5.28,5.28,0,0,0,.66.16c.46,0,.12.08,0,0l-.64-1.11.07.24V41.26l.68-.8-.4.12c-.17,0-.39.06-.57.07a10.81,10.81,0,0,1-1.8-.1c-1.3-.15-2.59-.35-3.88-.53l-3.79-.52-2.12-.3a4.85,4.85,0,0,1-1.49-.23l.9.9q-1.11,2-.24,1.44a4.06,4.06,0,0,1,.51-.26c.32-.14.68-.25,1-.36a18,18,0,0,1,2.3-.57,22.21,22.21,0,0,1,4.75-.26,39.42,39.42,0,0,1,4.48.38,14.36,14.36,0,0,1,2.05.43c.47.14.81.42,1.25.58.05,0,.21.28.27.26s.17-.55,0-.54-1.06.9-1.26,1a7.74,7.74,0,0,1-3.37.87c-3.44.17-6.83-1-10.25-1.23a2.5,2.5,0,0,0,0,5Z"/><path class="cls-3" d="M127.22,45.1l-1.57,3.64a21.41,21.41,0,0,0-.89,2.22,7.46,7.46,0,0,0-.24,1.4,6.14,6.14,0,0,0,.1,1.54,2.48,2.48,0,0,0,1.15,1.5,2.59,2.59,0,0,0,1.93.25,2.56,2.56,0,0,0,1.49-1.15l.25-.6a2.5,2.5,0,0,0,0-1.33l0-.12.09.66a3.77,3.77,0,0,1,0-.75l-.09.67a6.87,6.87,0,0,1,.51-1.71l-.25.6c.6-1.43,1.23-2.86,1.85-4.29a2.69,2.69,0,0,0,.25-1.93A2.49,2.49,0,0,0,128.72,44a2.41,2.41,0,0,0-1.5,1.14Z"/><path class="cls-3" d="M124.12,59.83a4.36,4.36,0,0,1-.34-3.17A32.11,32.11,0,0,1,125,52.25a18.11,18.11,0,0,1,4.27-7.16,2.5,2.5,0,0,0-3.53-3.53,23.3,23.3,0,0,0-5.65,9.64c-1.19,3.51-2.43,7.73-.32,11.15a2.5,2.5,0,1,0,4.32-2.52Z"/><path class="cls-3" d="M124.72,42.93c-4.15-.34-8.08-2-11.86-3.68a44.44,44.44,0,0,1-9.46-5,13.73,13.73,0,0,1-3.35-3.49c-.71-1.12-1.21-2.24,0-3.09a16,16,0,0,1,10.79-2.47,16.52,16.52,0,0,1,10.25,5.66,2.51,2.51,0,0,0,3.53,0,2.54,2.54,0,0,0,0-3.53A21.22,21.22,0,0,0,98.26,22.9c-2.17,1.26-4,3.05-4,5.71a10.3,10.3,0,0,0,2.87,6.55c2.9,3.45,7,5.64,11,7.47,5.3,2.39,10.67,4.81,16.53,5.3a2.52,2.52,0,0,0,2.5-2.5,2.56,2.56,0,0,0-2.5-2.5Z"/><path class="cls-3" d="M147.67,36.89c3.09-4.85,6.68-9.7,8.4-15.26a19.13,19.13,0,0,0,.73-8.13c-.4-3-1.47-6.28-4.83-6.7a2.51,2.51,0,0,0-2.5,2.5,2.56,2.56,0,0,0,2.5,2.5l.33,0L151,11.5c.43.21.65,1.67.76,2.17a11.53,11.53,0,0,1,.17,2.69,16.86,16.86,0,0,1-1.48,6c-1.84,4.25-4.66,8.12-7.14,12-1.73,2.72,2.6,5.23,4.32,2.52Z"/><path class="cls-3" d="M155.73,14.14A8.35,8.35,0,0,0,155,7.71l-3.93,3a4.11,4.11,0,0,1,.45.38c.17.16.37.42.11.08a4.85,4.85,0,0,1,.59,1c-.25-.55,0,0,0,.14s.09.39.15.58c.16.55,0-.41,0,.12,0,.23,0,.46,0,.69,0,.45,0,.89-.06,1.34,0,.23,0,.46-.06.68s0,.16,0-.08c0,.11,0,.23-.05.34a13.6,13.6,0,0,1-.77,2.74l4.82,1.33a20,20,0,0,0,1-3.79,20,20,0,0,0,.34-4.16,9.11,9.11,0,0,0-3.69-7,2.5,2.5,0,0,0-3,3.93c.76.75,1.46,1.56,2.22,2.3a2.54,2.54,0,0,0,3,.4,2.67,2.67,0,0,0,1.15-2.83C156.89,6,153.78,3.67,151,3.55c-3.18-.13-5.75,2.39-6.75,5.2A2.5,2.5,0,0,0,146,11.82a2.56,2.56,0,0,0,3.08-1.74c.17-.48-.22.39.08-.19.11-.19.24-.37.35-.56-.26.46,0,0,.09-.08s.27-.26.41-.39c-.46.43.14-.06.27-.14.4-.28-.43.1.08-.05l.54-.15c-.35,0-.4,0-.14,0a1,1,0,0,1,.25,0c.19,0,.11,0-.25,0l.34.09c.47.09-.4-.24.07,0l.49.28c.41.24-.31-.3.16.12.11.1.44.33.46.47l-.16-.22.2.3a3.07,3.07,0,0,1,.17.31l-.11-.29c.08,0,.14.56.16.64l4.17-2.43c-.76-.75-1.46-1.56-2.22-2.31l-3,3.93c-.5-.36.14.14.23.24s.4.56.1.08c.14.22.29.43.41.66s.28.67.07.11a12.39,12.39,0,0,1,.38,1.32c.12.5,0-.45,0,.22a5.3,5.3,0,0,1,0,.69c0,.53,0,1.07-.09,1.6,0,0-.1.8,0,.28,0,.32-.1.64-.16,1a19.72,19.72,0,0,1-.89,3.2,2.5,2.5,0,0,0,1.75,3.07,2.57,2.57,0,0,0,3.07-1.74,16.37,16.37,0,0,0,1.11-6.75,8.32,8.32,0,0,0-2.83-6.14A2.55,2.55,0,0,0,151.3,7a2.5,2.5,0,0,0-.64,3.22l.21.39c-.22-.39,0,0,0,.13a3,3,0,0,1,.12.43c0,.13.06.6,0,.1,0,.3,0,.59,0,.89,0,.47.07-.15,0,.11s-.09.36-.14.53a2.5,2.5,0,1,0,4.82,1.33Z"/><path class="cls-3" d="M165.94,40.14c.46-6.42-6.67-8.35-11.76-7.94a26.42,26.42,0,0,0-14.42,5.4,2.52,2.52,0,0,0,0,3.54,2.56,2.56,0,0,0,3.53,0,20.51,20.51,0,0,1,10-3.84c2.27-.31,7.94-.71,7.69,2.84a2.5,2.5,0,0,0,5,0Z"/><path class="cls-3" d="M163.75,43.49A4.07,4.07,0,0,0,165.09,38a2.53,2.53,0,0,0-3.42-.89,2.56,2.56,0,0,0-.89,3.42l.5,1.18a2.49,2.49,0,0,0,2.5,1.2,2.53,2.53,0,0,0,2.07-1.79,4.59,4.59,0,0,0,0-3.06L161.25,40a2.6,2.6,0,0,1,.53,1.27l4.82-1.33c-.91-4.6-5.18-7.71-9.65-8.33-5.23-.73-10,1.33-14.7,3.44a2.52,2.52,0,0,0-.9,3.42,2.57,2.57,0,0,0,3.42.9c3.44-1.57,7.06-3.18,10.93-2.9,3,.21,5.53,2,6.08,4.8A2.53,2.53,0,0,0,164.86,43a2.56,2.56,0,0,0,1.74-3.08,5.72,5.72,0,0,0-1-2.46,2.53,2.53,0,0,0-3.12-1A2.48,2.48,0,0,0,161,39.4c.17.47.19-.08,0,.4l4.57-.6L165.09,38l-4.31,2.53a1.06,1.06,0,0,1,.44-1.37,2.58,2.58,0,0,0-.89,3.43,2.52,2.52,0,0,0,3.42.89Z"/><path class="cls-3" d="M152.43,35q1.27-3.76,2.54-7.51a32.53,32.53,0,0,0,1.8-7.48,10.66,10.66,0,0,0-1.5-6.94c-1.62-2.25-5-3.07-7.06-.84a2.54,2.54,0,0,0,0,3.53,2.51,2.51,0,0,0,3.53,0c-.09.11-.36.07-.45.15s-.1-.35-.08.06a4.85,4.85,0,0,0,.29.67,5.82,5.82,0,0,1,.27,1.15,12.7,12.7,0,0,1-.54,4.9c-1,3.71-2.39,7.34-3.62,11A2.5,2.5,0,0,0,152.43,35Z"/><path class="cls-3" d="M135.49,34.73c-4.44-4.89-9.11-9.86-15.3-12.51a25.91,25.91,0,0,0-10.72-2.47c-3.06.12-7.94,1.54-8.49,5.14A2.58,2.58,0,0,0,102.73,28a2.52,2.52,0,0,0,3.08-1.74c.11-.74,1.71-1.15,2.38-1.31a9.52,9.52,0,0,1,3.57,0A25.44,25.44,0,0,1,120,27.67c4.71,2.59,8.36,6.66,11.93,10.6,2.17,2.39,5.7-1.16,3.54-3.54Z"/><rect class="cls-18" x="133.25" y="34.25" width="11.34" height="14.17" rx="5.67" transform="translate(-3.41 68.73) rotate(-27.46)"/><path class="cls-3" d="M112.3,24.37l-.38.06a2.87,2.87,0,0,0-1.5,1.15,1.79,1.79,0,0,0-.29.93,1.85,1.85,0,0,0,0,1l.25.6a2.5,2.5,0,0,0,.9.9l.6.25a2.5,2.5,0,0,0,1.33,0l.38-.05a1.89,1.89,0,0,0,.85-.45,2,2,0,0,0,.65-.7,1.85,1.85,0,0,0,.29-.93,1.89,1.89,0,0,0,0-1l-.25-.6a2.64,2.64,0,0,0-.9-.89l-.6-.26a2.5,2.5,0,0,0-1.33,0Z"/><path class="cls-17" d="M132.35,38.61c-2.45-1.1-5.08-2.14-7.77-1.26-.76.25-.43,1.46.34,1.21,2.35-.78,4.66.17,6.8,1.13a.64.64,0,0,0,.86-.23.63.63,0,0,0-.23-.85Z"/><path class="cls-17" d="M131.89,40.76a8.1,8.1,0,0,1-5,.26.62.62,0,0,0-.34,1.2,9.27,9.27,0,0,0,5.68-.26.64.64,0,0,0,.44-.76.62.62,0,0,0-.77-.44Z"/><path class="cls-17" d="M139.07,34.41a38.53,38.53,0,0,0,5.11-17.28,41.92,41.92,0,0,0-.91-8.43c-.19-1.07-.16-2-1.14-2.62-.69-.43-1.32.65-.63,1.08s.58,2,.73,2.78A33.23,33.23,0,0,1,142.9,18,37.75,37.75,0,0,1,138,33.78c-.39.71.69,1.34,1.08.63Z"/><path class="cls-17" d="M152.55,31.41c0,.12-.08.23-.13.35a1.34,1.34,0,0,1-.07.18v0a.42.42,0,0,1,0,.1,5.08,5.08,0,0,1-.33.66.64.64,0,0,1-.08.14l0,.08s-.07.09,0,0,0,0,0,0l-.07.08-.12.11c-.08.07.08-.06,0,0l-.06,0-.15.09-.29.15a.63.63,0,0,0,.63,1.08,3.59,3.59,0,0,0,.7-.44,2.39,2.39,0,0,0,.55-.68,8.48,8.48,0,0,0,.71-1.6.63.63,0,0,0-.44-.77.65.65,0,0,0-.77.44Z"/><ellipse class="cls-5" cx="61.37" cy="375.81" rx="6.08" ry="9.8" transform="matrix(0.83, -0.56, 0.56, 0.83, -199.13, 98.07)"/><ellipse class="cls-5" cx="318.23" cy="206.67" rx="6.08" ry="17.86" transform="translate(-26.66 364.9) rotate(-57.65)"/><path class="cls-13" d="M177.23,123.76a99.37,99.37,0,0,1-36.67-.11c-1.57-.3-2.24,2.11-.66,2.41a102.65,102.65,0,0,0,38,.11c1.58-.3.91-2.71-.67-2.41Z"/><path class="cls-13" d="M171.38,121.16c-.17.27-.35.54-.54.8l-.09.11c-.05.07,0,.05.05-.06a.76.76,0,0,1-.11.14l-.31.36a10.37,10.37,0,0,1-1.35,1.3c-.06,0-.2.2,0,0l-.18.13-.37.25q-.36.24-.75.45l-.38.19-.19.09c-.21.1.17-.07,0,0s-.55.2-.83.28a1.25,1.25,0,0,0,.66,2.41,11.72,11.72,0,0,0,6.52-5.18,1.25,1.25,0,0,0-2.16-1.26Z"/><path class="cls-13" d="M161.76,121.35a13.78,13.78,0,0,1-1.46,1.6l-.38.33-.22.18s-.2.16-.09.08l-.14.1-.18.13-.46.3c-.27.17-.56.33-.84.47l-.44.2c-.17.09.28-.1,0,0l-.19.07a7.89,7.89,0,0,1-.94.3l-.45.1-.2,0s-.39.06-.07,0a1.28,1.28,0,0,0-1.25,1.25c0,.61.55,1.34,1.25,1.25a12,12,0,0,0,7.87-4.67,1.27,1.27,0,0,0,0-1.76,1.26,1.26,0,0,0-1.77,0Z"/><path class="cls-13" d="M152.53,121.6l-.16.23s-.15.2-.07.1-.09.11-.11.13l-.15.17a5.9,5.9,0,0,1-.76.74l-.06,0-.18.14-.43.28a7.85,7.85,0,0,1-1,.51c-.09,0-.13.06,0,0l-.27.11-.49.16a8.56,8.56,0,0,1-1,.24l-.17,0c.16,0-.18,0-.18,0a4.36,4.36,0,0,1-.51,0,7.88,7.88,0,0,1-1.09-.05,1.24,1.24,0,0,0-1.25,1.25,1.28,1.28,0,0,0,1.25,1.25,9.41,9.41,0,0,0,8.74-4.13,1.26,1.26,0,0,0-.44-1.71,1.28,1.28,0,0,0-1.71.45Z"/><path class="cls-13" d="M172.68,127.24a8.83,8.83,0,0,0-4.92-2.3,1.33,1.33,0,0,0-1,.13,1.24,1.24,0,0,0-.45,1.71,1.17,1.17,0,0,0,.75.57,10.73,10.73,0,0,1,1.23.25l.58.19.27.1s.2.08,0,0l.05,0a8.44,8.44,0,0,1,1,.54l.25.17a.44.44,0,0,1,.11.08l-.1-.08.43.38a1.25,1.25,0,1,0,1.77-1.76Z"/><path class="cls-13" d="M166.37,127.61a10.69,10.69,0,0,0-6-2.4,1.25,1.25,0,0,0-1.25,1.25,1.28,1.28,0,0,0,1.25,1.25l.35,0h-.08l.17,0c.23,0,.45.08.68.13a9.22,9.22,0,0,1,1.26.4c.31.12-.17-.09.06,0l.3.14c.21.1.4.21.6.32a6.65,6.65,0,0,1,.56.36c.06,0,.24.12.27.19l-.06,0,.13.11a1.32,1.32,0,0,0,.88.37,1.26,1.26,0,0,0,.89-2.14Z"/><path class="cls-13" d="M154.22,127.52a10.73,10.73,0,0,0-5.33-2.62,1.34,1.34,0,0,0-1,.12,1.23,1.23,0,0,0-.57.75,1.27,1.27,0,0,0,.87,1.54,10,10,0,0,1,1.31.33c.2.06.41.13.61.21l.15.06c.15.06-.23-.1-.08,0l.33.15a9.83,9.83,0,0,1,1.09.62l.25.17.15.11c.13.09-.19-.16-.07-.06s.33.27.48.42a1.25,1.25,0,0,0,1.77-1.77Z"/><path class="cls-13" d="M148,127.49a6,6,0,0,0-5.46-3.47,1.28,1.28,0,0,0-1.25,1.25,1.26,1.26,0,0,0,1.25,1.25,5.32,5.32,0,0,1,.69,0l-.33,0a5.16,5.16,0,0,1,1.09.29c-.38-.14-.08,0,0,0l.25.13c.17.1.34.22.5.33l-.1-.08.12.11.21.19c.14.13.26.28.39.42s-.16-.22-.08-.1a1.47,1.47,0,0,0,.1.13l.15.25a4.63,4.63,0,0,1,.29.54,1.24,1.24,0,0,0,1.71.45,1.23,1.23,0,0,0,.57-.75,1.45,1.45,0,0,0-.12-1Z"/></svg>
