<svg height="110mm" viewBox="0 0 878.74 311.81" width="310mm" xmlns="http://www.w3.org/2000/svg"><path d="m245.58 62.81c-.2-28-32-36.75-54.63-37.43a129.48 129.48 0 0 0 -70.44 18.75c-16.16 9.71-31.88 22.06-44.46 36.1-7.08 7.9-14.57 20.69-4.21 29.37 3.89 3.27 9 4.79 13.88 5.94a193.62 193.62 0 0 0 22.71 3.71c14 1.6 28.12 2.3 42.11 4.13a201.58 201.58 0 0 1 77 26.45c19.24 11.44 39.52 28.87 38.8 53.33-.34 11.83-5.63 21.92-12.51 31.21-1.15 1.55-3.46 3.26 2-1.68l6.77-5.69c1-.73.75-.56-.82.54-1.95 1.2-3.95 2.37-6 3.45a144 144 0 0 1 -18.25 7.82c-25.69 9.31-52.93 17-80.08 20.32-28.68 3.53-59 .84-84.81-13-11.39-6.13-22.82-14.63-29.64-25.85-3.27-5.38-5.45-11.61-5.17-18a24.15 24.15 0 0 1 1.75-8 38.67 38.67 0 0 1 1.73-3.47c5.77-11.05-31.22 20.86-18.85 16.3 2.7-1 5.56-3.39 7.77-5 4.09-3.08 8.08-6.4 11.86-9.84a76.3 76.3 0 0 0 8.5-8.46c.33-.4 2.66-3.26.54-2.48-9.9 3.59-18.48 11.72-26.13 18.67-5.83 5.23-12.45 11-15.48 18.47-4.35 10.67-1.43 21.89 5.17 30.95 15 20.56 41.83 31.4 66.18 35.25 27.75 4.37 56 .28 83-6.55 26.85-6.79 55-14.39 78.18-30.12 15.42-10.47 31-23.17 42.2-38.21 7.36-9.88 12.54-21.59 12.47-34.1-.15-25.42-22.57-42.68-42.69-54-24.93-14.07-52.32-22.08-80.72-25.1-15-1.59-30-2.31-44.93-4.62-10.06-1.56-27-3.14-30.72-14.87a14.31 14.31 0 0 1 .89-10.4 24.2 24.2 0 0 1 1.45-2.76c4.31-7 2.14 2.61-9.47 7.42 4-1.66-1.62.86 2.07-1.47 1.44-.9 2.87-1.81 4.33-2.67 2.74-1.59 5.52-3.06 8.39-4.39a124.94 124.94 0 0 1 42.87-11.25c25-1.91 66.68 4.33 66.92 37.17 0 .8 6.33-3.37 5.38-2.72a132 132 0 0 0 11.14-8.73 138.88 138.88 0 0 0 10.37-9.62c1.13-1.18 3.56-3.12 3.55-4.87z" fill="#70c2b1"/><path d="m403.38 253.64a996.24 996.24 0 0 0 -58.08-126.9c-4.83-8.87-9.86-17.63-15-26.33-2.05-3.49-4.13-7-6.18-10.44-.88-1.5-1.71-3-2.64-4.52 5.43 8.6.83 1.44-.26-.54-1.38-2.49-3.94-8.36 1.17 2.33-.53-1-1-2.06-1.57-3.09l3.18 6.43c-4.15-8.44 7.18 17 4 9q2.64 7 1.39 3.59c-.29-.8-.57-1.6-.84-2.41 2.83 5.49.26.57-.22-1.31-.22-.82-.42-1.64-.61-2.46.28 1.29.24 1-.13-.92a102.45 102.45 0 0 1 -1.17-11.85c-.18-5.43-3.85-12.94-5.74-17.63-3.82-9.49-8.17-18.92-12.87-28-3.63-7-7.13-14.5-11.93-20.8-.73-.95-4.67-6.74-4.51-2.31.77 22.92 10.31 45.09 19.48 65.72 10.95 24.64 24 48 37.73 71.21l2.69 4.57q2.51 4.32-1.25-2.21c.62 1.08 1.23 2.16 1.84 3.24 2.13 3.78 4.2 7.6 6.28 11.41 3.45 6.32-4.29-8.28-1-1.89 1.14 2.21 2.28 4.41 3.41 6.62.84 1.66 1.66 3.33 2.5 5-6.52-12.86-2-4.09-.61-1.19q1.2 2.52 2.39 5.05c.52 1.12 1.05 2.24 1.57 3.37q-4.71-10.28-2.12-4.59c1.76 4 3.62 7.9 5.23 11.93l-2.29-5.38c.48 1.14 1 2.29 1.43 3.43q1.25 3 2.46 6c.81 2 1.6 4 2.4 6.06q1.8 4.65-.91-2.37c.44 1.16.88 2.32 1.31 3.48 6.58 17.54 14.36 35.16 24.3 51.08.88 1.42 5.61 10.31 7.59 9.37s-2.48-11.79-2.48-11.8z" fill="#70c2b1"/><path d="m418.51 139.82a1175.83 1175.83 0 0 0 -123.67 47.49c-7.4 3.32-14.33 9.12-20.59 14.15a67 67 0 0 0 -7.25 6.34c-.58.63-2.75 2.59-.71 2.43l3.87-.3c2.25-.17 6.53-3.47 8.11-4.49 4.3-2.77 8.51-5.81 12.53-9a76.06 76.06 0 0 0 9.07-7.83c.59-.63 2.76-2.59.71-2.43l-3.86.3-28.52 22.92a1140.47 1140.47 0 0 1 119.86-45.86c7.46-2.39 14.58-8.69 20.64-13.47a77 77 0 0 0 9.07-7.83c.32-.35 2.89-3.13.71-2.44z" fill="#70c2b1"/><path d="m462.23 205.38c-10.62-25.44-29-47.61-34.38-75.11-.26-1.3-16.9 7.87-18.15 8.63a139.32 139.32 0 0 0 -11.8 7.82c-.94.71-4.55 2.88-4.29 4.24 5.42 27.5 23.77 49.67 34.39 75.11.73 1.76 16.78-7.8 18.15-8.63 1.76-1.08 17.16-9.46 16.08-12.06z" fill="#70c2b1"/><path d="m428.75 100.49a277.09 277.09 0 0 0 17.18-26.24c.66-1.13-1.92-5.24-2.13-5.63a128.24 128.24 0 0 0 -7.5-12 139.24 139.24 0 0 0 -8.46-11.35c-.37-.44-4.08-4.69-4.47-4l-15 25.22c-2.33 3.92-4.61 7.89-7 11.77-1.09 1.76-1.17 2.66-3 2.58-1.3 0-4.3-3.28-5.41-4.12l-45.65-34.72c-.81-.62-.85-.12-.87.6-.07 2.07 2.2 4.8 3.18 6.5a156.66 156.66 0 0 0 12.38 18.41c12.8 16.28 25.7 32.49 41.28 46.23 2.06 1.83-.18-3.24.13-2.53a74.82 74.82 0 0 0 -6-10.39c-4.38-6.74-8.94-14.15-15-19.52-11.29-10-20.24-21.36-28.91-32.41l14.7 25.53 47.16 35.89c2.59 2 4.76 5 7.53 2.62 1.64-1.39 2.9-4.87 4-6.73l3.51-5.88 15.53-26.07-22.56-33a280.31 280.31 0 0 1 -17.19 26.23c-.72 1 2 5.46 2.14 5.64a131.46 131.46 0 0 0 7.49 12c.82 1.18 12.26 16.3 12.94 15.39z" fill="#70c2b1"/><path d="m500 219.31c2.09 2 3.66 3.1 6.44 3.62v-.93c0-13.32-5.21-25.77-10.22-37.89q-7.83-19-17.25-37.19c-4.16-8-9.9-15.53-15.74-22.39-1.65-1.94-4-5.83-6.44-6.67-1.83-.63-.49 1.67 0 2.54 5.95 11.47 11.46 23.17 16.34 35.14 2.33 5.71 4.64 11.47 6.45 17.37a77.09 77.09 0 0 1 2.19 8.84c.26 1.49.49 3 .63 4.48.06.58.6 5.94-1.34 4.11-5.75-5.4 1.51 6.53 2.08 7.39 4.93 7.47 10.34 15.38 16.9 21.54z" fill="#70c2b1"/><path d="m507.19 212.86c-5.56-20.31 2.38-42.84 17.23-57.22a53.72 53.72 0 0 1 26.63-14.41c3.81-.75 6.81-.32 10.55.32-19.71-3.37-26-23.69-18.59-14 .64.84 1.23 1.76 1.8 2.65a70.15 70.15 0 0 1 7.64 17.69c3.6 12 5.34 24.45 10.16 36 6.47 15.56 19.33 26.29 32.57 36.18 11.93 8.91 23.57 15.52 38.77 15.27 12.44-.21 24.72-3.9 36.4-7.92 24-8.27 48.11-21.71 59.3-45.68 5-10.65 7.14-22.85 4.55-34.44-4-17.69-19.64-28.67-33.86-38.42-7.25-5-13.62-7.54-22.38-8.05a71.2 71.2 0 0 0 -16.18.62c-10.88 1.91-20.24 8.32-21.39 20s4.84 24 11.2 33.51c7.58 11.34 17.49 21 27.78 29.85a370.7 370.7 0 0 0 47.25 34.75c13.51 8.34 27.83 16 43.41 19.65 31.73 7.39 64.39-1.81 94.05-13 .8-.3-4.47-5.46-3.73-4.74a127.22 127.22 0 0 0 -10.75-9.2 139.15 139.15 0 0 0 -11.47-8.27c-1.2-.75-4-3.07-5.48-2.51-24.4 9.2-50.61 17.28-77 15.34a101.12 101.12 0 0 1 -36.65-9.89 148.55 148.55 0 0 1 -14.33-8c-1-.63-2-1.26-3-1.91.09.06-4.76-3.16-2.23-1.45-.88-.59-1.76-1.2-2.63-1.8s-1.75-1.22-2.61-1.84q2.57 1.86 0 0c3.51 2.71 1.15.89.4.3-3.42-2.68 1.09.84 1.6 1.37-.73-.75-1.62-1.4-2.39-2.11 2.12 2-1.64-1.64-1.63-1.63a82.94 82.94 0 0 1 -9.62-11.87c-6.08-9.12-11.83-20.51-10.73-31.79 1-10.52 8.86-17.13 18.69-19.49a56.49 56.49 0 0 1 13.84-1.34 75.23 75.23 0 0 1 8.08.52c1.74.21 3.39.69 5.11 1q8.88 3.26-9.26-8-15.29-14.41-10.39-7.85c5.26 10 7.15 20 5.08 31.25a64.86 64.86 0 0 1 -14 29.26c-15.09 18.31-38.26 27.92-60.46 34.44-11 3.24-23 5.92-34.49 4a38.11 38.11 0 0 1 -7.41-1.93c-12.33-4.69 22.07 21.65 14 11.56a54.68 54.68 0 0 1 -7.62-14.08c-8.2-20.92-8.11-44.31-24.44-61.43-9.11-9.55-20.35-18.82-32-25.11-6.07-3.28-11.91-3.75-18.61-2.16a54.7 54.7 0 0 0 -25.92 15c-15 15.2-21.49 37.33-15.82 58 .53 2 5.32 5.59 6.48 6.63 3.82 3.4 7.86 6.66 12 9.69a77.56 77.56 0 0 0 10 6.67c.88.45 3 1.92 2.53 0z" fill="#70c2b1"/><g fill="#da9ebe"><path d="m835 213.39q10.26 8.82 7.11 19.89t-15.81 11.37q-5.4-.6-7-4a10.1 10.1 0 0 1 -.51-7.41 12.23 12.23 0 0 1 4-6.36 4.36 4.36 0 0 1 3.63-.84 4 4 0 0 1 2.61 1.53q.72 1.11-1.08 2a6.15 6.15 0 0 0 -2.34 2.67 6.6 6.6 0 0 0 -.81 3.84q.21 1.89 2.55 2.37 2.76.18 4.11-2.79a10.28 10.28 0 0 0 .3-7 12.2 12.2 0 0 0 -5.43-7 16 16 0 0 1 -6.69-10.47 17.56 17.56 0 0 1 2.13-12.87q3.54-6 13.26-6 5 0 6.6 3.57a14.2 14.2 0 0 1 1.08 7.53 13.56 13.56 0 0 1 -1.74 5.82 4.68 4.68 0 0 1 -3.15 2 2.91 2.91 0 0 1 -2.61-.81 1.93 1.93 0 0 1 0-2.49 10.77 10.77 0 0 0 1.5-3.75 10.21 10.21 0 0 0 .12-4.38 2.77 2.77 0 0 0 -2.34-2.37q-2-.06-2.91 2.91a13.79 13.79 0 0 0 -.21 6.75 10.2 10.2 0 0 0 3.63 6.29z"/><path d="m443.61 225.55a62.35 62.35 0 0 1 9.08.56 31.69 31.69 0 0 1 7.64 2.16 16.38 16.38 0 0 1 6.48 4.8 12.9 12.9 0 0 1 2.64 8.48q0 10.47-6 14.56a26.59 26.59 0 0 1 -12.6 4.72v26.88q0 4.88-3.64 6.6a8.53 8.53 0 0 1 -7.32.12q-3.68-1.6-3.68-6.72v-54.4c0-2.62.75-4.56 2.24-5.84a7.64 7.64 0 0 1 5.16-1.92zm7.28 26.24a20.48 20.48 0 0 0 7.28-3 7.31 7.31 0 0 0 3.28-6.56q0-4.25-3.2-5.92a18.71 18.71 0 0 0 -7.36-2z"/><path d="m492.89 225.55q16.64 0 22.12 17.4a56.35 56.35 0 0 1 -.08 34.84q-5.56 17.43-22 17.44-13.68 0-17.6-17.44a71.73 71.73 0 0 1 .76-34.84q4.64-17.4 16.8-17.4zm.32 63q3.84 0 5.84-8.52a90 90 0 0 0 2.12-19.44 82.85 82.85 0 0 0 -1.84-19.44q-2-8.52-6.12-8.52t-6.52 8.52a80.13 80.13 0 0 0 -2.44 19.44 74.73 74.73 0 0 0 2 19.44q2.16 8.56 6.96 8.56z"/><path d="m554.89 241.55q0 9-4.52 13.12a22.1 22.1 0 0 1 -10.28 5.44 9.51 9.51 0 0 1 1 1.44c.32.74 1.09 2.36 2.32 4.84s2.56 5.26 4 8.36l4.08 8.32q1.85 3.75 2.32 4.8 1.51 3.44.2 5.48a3.67 3.67 0 0 1 -3.68 1.8c-1.57-.16-3-1.34-4.2-3.52-.32-.75-.93-2-1.84-3.76q-2.48-5.13-8-16.48v16.32q0 4.88-3.64 6.6a8.53 8.53 0 0 1 -7.32.12q-3.68-1.6-3.68-6.72v-54.4c0-2.62.75-4.56 2.24-5.84a7.64 7.64 0 0 1 5.12-1.92 62.35 62.35 0 0 1 9.08.56 31.69 31.69 0 0 1 7.64 2.16 16.38 16.38 0 0 1 6.48 4.8 12.9 12.9 0 0 1 2.68 8.48zm-18.56 10.24a20.48 20.48 0 0 0 7.28-3 7.31 7.31 0 0 0 3.28-6.56q0-4.25-3.2-5.92a18.71 18.71 0 0 0 -7.36-2z"/><path d="m584.17 225.55c2.51.1 4.19.84 5 2.2a3.68 3.68 0 0 1 0 4.12c-.83 1.38-2.49 2.13-5 2.24h-2.4v53.36q0 5.11-3.68 6.84a8.41 8.41 0 0 1 -7.36 0c-2.45-1.12-3.68-3.42-3.68-6.88v-53.24l-.08.08h-2.48c-2.61-.11-4.27-.84-5-2.2a3.92 3.92 0 0 1 .28-4.12q1.32-2.08 4.6-2.24h.4q2.72 0 8.4-.08a12 12 0 0 1 2.08 0h7.75a9.7 9.7 0 0 1 1.17-.08z"/><path d="m620.65 225.55q3.84 0 5.08 2.16a4 4 0 0 1 0 4.28q-1.28 2.12-5 2.12h-12.32v15.6h4.4q3.84 0 5.08 2.16a4 4 0 0 1 0 4.28q-1.27 2.12-5 2.12h-4.4v29.44q0 4.88-3.68 6.6a8.62 8.62 0 0 1 -7.36.12q-3.68-1.6-3.68-6.72v-54.4c0-2.62.75-4.56 2.24-5.84a7.64 7.64 0 0 1 5.12-1.92h19.6z"/><path d="m650.41 225.55q16.64 0 22.12 17.4a56.43 56.43 0 0 1 -.08 34.84q-5.57 17.43-22 17.44-13.68 0-17.6-17.44a71.61 71.61 0 0 1 .76-34.84q4.64-17.4 16.8-17.4zm.32 63q3.84 0 5.84-8.52a90 90 0 0 0 2.12-19.44 83.39 83.39 0 0 0 -1.84-19.44q-2-8.52-6.12-8.52t-6.52 8.52a80.13 80.13 0 0 0 -2.44 19.44 74.73 74.73 0 0 0 2 19.44q2.16 8.56 6.96 8.56z"/><path d="m706.17 286.67c2.51 0 4.17.7 5 2.12a4 4 0 0 1 0 4.28c-.83 1.44-2.49 2.16-5 2.16h-19.52a7.8 7.8 0 0 1 -5.16-1.92q-2.28-1.92-2.28-5.84v-54.4q0-5.13 3.68-6.72a8.46 8.46 0 0 1 7.32.12q3.64 1.71 3.64 6.6v53.6z"/><path d="m715.61 233.31c0-3.47 1.22-5.76 3.68-6.88a8.38 8.38 0 0 1 7.36 0q3.68 1.71 3.68 6.84v54.4q0 4.88-3.68 6.6a8.62 8.62 0 0 1 -7.36.12c-2.46-1.07-3.68-3.31-3.68-6.72v-54.4z"/><path d="m753.77 225.55q16.63 0 22.12 17.4a56.43 56.43 0 0 1 -.08 34.84q-5.56 17.43-22 17.44-13.68 0-17.6-17.44a71.61 71.61 0 0 1 .76-34.84q4.64-17.4 16.8-17.4zm.32 63q3.84 0 5.84-8.52a90 90 0 0 0 2.12-19.44 83.39 83.39 0 0 0 -1.84-19.44q-2-8.52-6.12-8.52t-6.52 8.52a79.64 79.64 0 0 0 -2.44 19.44 74.73 74.73 0 0 0 2 19.44q2.16 8.56 6.96 8.56z"/></g><g fill="#70c2b1"><path d="m555.53 138.33c2.13 0-.62-2-1-2.32a74.53 74.53 0 0 0 -10.07-6.5c-4.45-2.55-9-5-13.65-7.16-2.5-1.15-5.87-3.33-8.65-3.33-2.13 0 .63 2 1 2.31a74.89 74.89 0 0 0 10.07 6.51c4.46 2.55 9 5 13.65 7.16 2.5 1.15 5.87 3.33 8.65 3.33z"/><path d="m539.05 133.85c6.43 0 6.44-10 0-10s-6.45 10 0 10z"/><path d="m540.2 135.72c6.44 0 6.45-10 0-10s-6.44 10 0 10z"/><path d="m402 100.05a5.08 5.08 0 0 1 -2.3 1.57l1.84 1a23.47 23.47 0 0 1 -.73-4.07c-.1-1.14-1.67-2.18-2.56-1.06-.09.12-.46.42-.51.55h-.1l.86.28c.12-.15-.38-1.19-.44-1.31a6.19 6.19 0 0 0 -1.41-1.81c-1-.94-2.36-1.65-2.93-3-.7-1.6-3.12-.43-2.74 1.16a28 28 0 0 0 7.1 12.9 1.51 1.51 0 0 0 2.36-.31 18.51 18.51 0 0 0 1.78-7l-2.56 1.06c.48.49.14 1.41 0 2a14.09 14.09 0 0 0 -.59 3.08 9.2 9.2 0 0 0 2.08 6.07 1.52 1.52 0 0 0 2.12 0 1.54 1.54 0 0 0 0-2.13 6.09 6.09 0 0 1 -1-5.35c.51-2 1.09-4.14-.53-5.78a1.52 1.52 0 0 0 -2.56 1.06 14.38 14.38 0 0 1 -1.38 5.46l2.36-.3a25.06 25.06 0 0 1 -6.33-11.58l-2.74 1.16c.83 1.91 2.78 2.62 4 4.18.72.94.49 2.18 1.7 2.82s2.73-.14 3.55-1.18l-2.56-1.06a27.61 27.61 0 0 0 .84 4.86 1.51 1.51 0 0 0 1.84 1.05 8 8 0 0 0 3.64-2.34c1.26-1.45-.85-3.58-2.13-2.12z"/><path d="m420.73 109.58a72.54 72.54 0 0 1 -5.45 5.36 14.12 14.12 0 0 1 -2.78 2.16c-1.2.61-1.68-.37-2.4-1.23q-5.1-6.14-9.73-12.66c-1.11-1.56-3.71-.06-2.59 1.51q2.73 3.86 5.62 7.57c1 1.25 2 2.48 2.94 3.71a27.17 27.17 0 0 0 2.87 3.37c2.38 2.13 5.1.31 7.09-1.37a69.56 69.56 0 0 0 6.55-6.3c1.3-1.42-.81-3.55-2.12-2.12z"/><path d="m403 101.38a5.44 5.44 0 0 0 -.17 2.16 1.52 1.52 0 0 0 2.25 1.3 7.67 7.67 0 0 0 2.26-1.94 1.55 1.55 0 0 0 0-2.12 1.51 1.51 0 0 0 -2.12 0 10.24 10.24 0 0 0 -2.32 4.31l2.74-.36a1.82 1.82 0 0 1 -.18-.79 1.52 1.52 0 0 0 -2.26-1.3c-2 1.23-2.08 3.86-1 5.73.53.9 1.27 1.64 1.85 2.49s1 1.56 1.46 2.35a10.75 10.75 0 0 0 3.88 4.2 6.56 6.56 0 0 0 9.3-4.59 1.57 1.57 0 0 0 -1.05-1.85 5.5 5.5 0 0 0 -6.51 2.4 1.5 1.5 0 0 0 2.35 1.82 5.51 5.51 0 0 0 1.64-4.2 1.56 1.56 0 0 0 -1.1-1.45 6.62 6.62 0 0 0 -6.53 1.94l2.36 1.82a13.06 13.06 0 0 0 1.56-4.27 1.55 1.55 0 0 0 -1.05-1.84 4.25 4.25 0 0 0 -3.37.24l2 .54a2.77 2.77 0 0 1 -.24-1.25 3.2 3.2 0 0 0 -.77-1.84 2.37 2.37 0 0 0 -3.47-.27 1.5 1.5 0 0 0 2.12 2.12c-.14.15-.73.06-.85.2a4 4 0 0 0 0 .53 4.15 4.15 0 0 0 .58 2 1.54 1.54 0 0 0 2.05.53 1.31 1.31 0 0 1 1.06.06l-1-1.84a10.64 10.64 0 0 1 -1.26 3.54c-.83 1.44 1.19 3.12 2.35 1.82a3.61 3.61 0 0 1 3.61-1.17l-1.07-1.4a2.57 2.57 0 0 1 -.76 2.08l2.36 1.81a2.5 2.5 0 0 1 3.13-1l-1.05-1.89a3.59 3.59 0 0 1 -2.68 3 3.06 3.06 0 0 1 -1.87 0 4.61 4.61 0 0 1 -1.83-1.37 50.08 50.08 0 0 1 -2.89-4.42 17 17 0 0 1 -1.91-2.63 1.58 1.58 0 0 1 -.16-1 .45.45 0 0 1 .23-.35l-2.26-1.29a5.31 5.31 0 0 0 .59 2.31 1.51 1.51 0 0 0 2.74-.36 7 7 0 0 1 1.55-3l-2.12-2.12a5.52 5.52 0 0 1 -1.65 1.47l2.26 1.29a3.28 3.28 0 0 1 .06-1.36 1.5 1.5 0 0 0 -2.89-.8z"/><path d="m410.83 107.31-.38 1.35 2.55-.66a34.86 34.86 0 0 0 -7.17-4.38 1.51 1.51 0 0 0 -2.05 2c1.25 2.23 2.44 5.45 5.18 6.16a7.81 7.81 0 0 0 3.5-.11 7.16 7.16 0 0 1 3.37-.27 1.5 1.5 0 0 0 1.15-2.74 5.21 5.21 0 0 0 -6.21.56 5.7 5.7 0 0 0 -1.7 3.22.75.75 0 0 1 -.18.31c.28.12.36.13.24 0a6.31 6.31 0 0 1 -.68-.79c-.46-.55-.91-1.09-1.35-1.65a83.75 83.75 0 0 1 -9.49-14.9c-.87-1.72-3.46-.2-2.59 1.52a87.59 87.59 0 0 0 10 15.5c.82 1 1.7 2.5 2.92 3.08a2.92 2.92 0 0 0 3.7-1.43c.57-1 .48-2.31 1.56-2.92a2.17 2.17 0 0 1 2.31.08l1.15-2.74c-2.17-.63-4.07.41-6.21.43a2.33 2.33 0 0 1 -2.12-1.45c-.67-1.1-1.28-2.25-1.92-3.38l-2.05 2a32.23 32.23 0 0 1 6.56 3.91 1.51 1.51 0 0 0 2.5-.66l.39-1.35a1.51 1.51 0 0 0 -2.9-.8z"/><path d="m420.28 110.34-7.4 4.88a7.05 7.05 0 0 1 -1.56 1c-.55.16-1.19-.4-1.65-.7a20.47 20.47 0 0 1 -2.83-2.26 28.19 28.19 0 0 1 -4.46-5.57q-1-1.58-1.8-3.24c-.53-1.06-1.39-2.42-1.15-3.65.35-1.88-2.54-2.69-2.9-.79-.56 3 1.4 6.07 2.87 8.56a31.29 31.29 0 0 0 5.59 7.06c2 1.81 5 4.7 7.83 3.19 1.51-.81 2.92-1.91 4.35-2.85l4.62-3c1.61-1.06.11-3.66-1.51-2.59z"/></g></svg>
